<svg width="1876" height="1950" viewBox="0 0 1876 1950" fill="none" xmlns="http://www.w3.org/2000/svg">
<path d="M411 2.80001C407.4 3.86668 402.2 5.33335 399.667 6.00001C397.134 6.66668 385.4 10 373.667 13.3333C361.934 16.6667 349.934 20 347 20.8C344.067 21.6 340.2 22.8 338.334 23.3333C336.467 23.8667 332.334 25.0667 329 26C325.667 26.9333 320.334 28.4 317 29.3333C313.667 30.2667 308.334 31.7333 305 32.6667C301.667 33.6 297.667 34.8 295.934 35.4667C294.2 36.1333 291.4 36.6667 289.667 36.6667C287.934 36.6667 286.2 37.2 285.8 37.8667C285.4 38.5333 283.134 39.3333 280.734 39.7333C278.334 40.1333 273 41.3333 269 42.6667C259.4 45.6 253.4 47.2 247.667 48.6667C245.134 49.3333 240.6 50.5333 237.667 51.3333C234.734 52.1333 230.2 53.3333 227.667 54C225.134 54.6667 219.667 56.1333 215.667 57.3333C207.934 59.6 200.2 61.6 194.067 62.9333C190.334 63.6 188.067 67.4667 189.8 70.1333C190.334 70.9333 191.134 73.4667 191.667 75.8667C192.2 78.1333 193.667 83.6 195 88C196.2 92.4 197.8 98.1334 198.467 100.667C199.267 103.2 200.334 107.067 201 109.333C201.534 111.467 203.667 119.067 205.667 126C207.534 132.933 209.8 140.8 210.467 143.333C211.267 145.867 212.334 150.133 213 152.667C214.334 158.133 215.934 163.867 218.867 174C221.534 182.933 226.2 199.733 227.667 206C229 211.333 230.467 216.8 233.667 227.333C234.867 231.333 236.334 236.8 237 239.333C237.667 241.867 238.734 246.133 239.534 248.667C240.2 251.2 241.4 255.467 242.2 258C242.867 260.533 244.334 266 245.534 270C247.534 276.8 251.534 291.2 254.6 302C255.267 304.533 256.334 308.8 257 311.333C257.534 313.867 259.4 320.533 261 326C262.6 331.467 264.467 338.4 265.267 341.333C267.667 350.267 268.734 354.267 271.534 364C275.134 377.067 278.334 388.4 279.934 394.667C282.467 404.267 283.534 407.867 287 418.267C288.867 423.867 290.334 429.733 290.334 431.333C290.334 432.933 290.867 433.867 291.534 433.467C292.6 432.8 291.8 426.667 289.134 416.667C286.734 407.733 282.467 392 280.334 384C275.934 368.267 270.734 349.2 265.8 330.667C263.8 323.333 260.734 312.267 259 306C257.267 299.733 253.934 287.467 251.667 278.667C249.4 269.867 238.734 231.2 228.2 192.667C196.334 77.3333 193.934 68.6667 194.6 67.8667C195.4 67.2 258.334 49.6 378.334 16.6667C399.934 10.8 418.334 5.73335 419.134 5.46668C420.067 5.06668 422.334 11.2 425 21.0667C427.4 30 429.667 38 429.934 38.9333C430.6 40.6667 431.667 40.4 391.4 50C370.734 54.9333 362.334 57.4667 362.334 58.8C362.334 59.8667 363.534 60.6667 364.867 60.6667C367.8 60.6667 428.467 46.4 430.334 45.3333C431.4 44.6667 434.734 54.2667 436.467 63.2C437.4 67.7333 440.467 66.5333 407.667 74.6667C388.067 79.6 384.734 80.9333 387.134 83.2C387.8 84 397 82.4 411.667 78.6667C424.467 75.3333 435.934 72.6667 437.134 72.6667C438.6 72.6667 440.067 75.6 442.2 82.8C443.8 88.4 445 93.0667 444.734 93.3334C444.334 93.7334 396.334 106 395.134 106C394.734 106 394.334 106.933 394.334 108C394.334 111.067 398.2 110.533 423 104.133C437 100.533 445.934 98.8 446.467 99.6C447.934 102 453.267 123.467 452.6 124.133C452.067 124.8 402.067 136.667 400.2 136.667C399.934 136.667 399.667 137.6 399.667 138.667C399.667 141.6 403.134 141.2 430.067 134.8C443.4 131.733 454.6 129.467 454.867 129.867C455.134 130.267 456.867 136.267 458.734 142.933L462.067 155.333L457.267 156.533C454.6 157.333 444.867 159.733 435.667 162C409.267 168.533 409 168.667 409 170.667C409 173.6 411.267 173.2 438.6 166.267L463.534 159.867L467 172.533C468.867 179.467 469.934 185.467 469.4 186C468.867 186.533 455.267 190 439.134 193.733C423.134 197.467 409.4 201.067 408.6 201.867C404.6 205.867 411.667 205.2 436.334 199.2C451 195.733 465.134 192.4 467.667 192L472.467 191.067L474.867 201.333C476.734 209.2 476.867 211.867 475.667 212.667C474.867 213.2 463.8 216.267 451.267 219.333C438.6 222.533 427.8 225.6 427 226.133C426.334 226.933 426.334 227.867 427.267 228.8C428.2 229.733 436.067 228.267 453.534 223.867C467.134 220.4 478.6 217.867 479 218.267C479.4 218.667 481 223.333 482.467 228.8C483.934 234.267 485.4 239.733 485.8 240.933C486.6 243.467 487.934 243.067 455.4 250.667C439.4 254.4 434.334 256 434.334 257.6C434.334 260.267 437.267 259.867 465.534 253.333C477.134 250.667 487 248.933 487.534 249.6C488.734 250.933 494.334 270.267 494.334 272.933C494.334 274.133 486.334 276.667 470.2 280.667C443.534 287.333 442.2 287.733 444.6 290.133C445.8 291.333 451.8 290.4 471 285.467C484.734 282 496.067 279.333 496.334 279.6C497.534 280.8 503.4 304.667 502.6 305.2C502.067 305.467 490.334 308.267 476.6 311.467C456.334 316 451.667 317.6 452.067 319.2C452.6 321.867 452.867 321.867 481 315.467C494.867 312.267 504.6 310.667 505 311.333C506.2 313.333 510.734 331.333 510.2 331.733C509.934 332 495 335.6 477 339.867C459 344.133 443.8 348.133 443 348.8C442.334 349.6 442.334 350.533 443.134 351.333C444.067 352.267 454.2 350.4 474.467 345.467C490.867 341.467 506.2 337.867 508.334 337.467L512.467 336.533L515.267 347.2L518.067 358L513.8 359.067C511.534 359.733 500.467 362.533 489.134 365.467C471.134 370 465.667 372.4 467.934 374.8C468.334 375.2 479.934 372.667 493.667 369.2C513.8 364.133 518.867 363.333 519.667 364.667C521.267 367.2 525.267 383.6 524.467 384.267C524.2 384.667 513.134 387.6 500.067 390.933C476.2 396.933 472.734 398.267 475 400.533C475.8 401.333 485 399.733 499.667 396C512.467 392.667 523.934 390 525 390C526.467 390 528.067 393.6 530.467 402.267C533.534 413.333 533.667 414.8 531.8 415.6C530.6 416.133 518.867 419.067 505.667 422C481.667 427.467 477.934 428.8 480.467 431.333C481.267 432.133 491.267 430.4 508.067 426.533C522.6 423.067 534.734 420.667 535.134 421.067C535.4 421.333 537 426 538.467 431.467C539.934 436.933 541.4 442.4 541.8 443.6C542.467 445.733 541.134 446 527.667 446C517.534 446 511.4 446.667 508.067 448C505.534 449.067 502.067 450 500.334 450C493.8 450 475.667 455.6 464.334 461.2C430.2 478 408.067 511.067 404.867 550C404.334 557.733 403.134 594 402.467 630.667C401.667 667.333 400.6 698.8 399.934 700.533C398.867 703.467 397.667 702.133 384.467 684.533C376.6 674 368.734 663.6 367.267 661.467C354.334 644.4 351.4 639.333 348.334 629.333C345.267 618.933 344.334 615.733 337.667 590.667C334.6 579.467 330.334 563.867 327.667 554.667C325.534 547.067 322.067 534.667 320.867 530.267C319.8 526.267 318.867 523.067 315.8 512.267C312.734 501.867 307.4 483.733 306.334 480.667C305.4 477.6 305.267 477.867 305.134 482.267C305 485.067 305.534 487.333 306.2 487.333C306.867 487.333 307.667 489.867 308.067 492.933C308.867 499.067 310.067 504.8 313.667 517.333C316.867 528.4 318.334 533.867 319.667 539.333C320.334 541.867 321.4 546.133 322.067 548.667C322.867 551.2 325 559.067 327 566C328.867 572.933 331 580.4 331.667 582.667C332.334 584.8 334.067 591.2 335.534 596.667C336.867 602.133 339.134 610.133 340.2 614.4C342.6 623.2 342.867 626.533 341.134 625.333C340.067 624.667 283.667 550 239.534 490.667C231.267 479.6 217.4 463.333 205 450.667C193.667 438.933 178.067 422.667 170.334 414.667C162.6 406.533 149.934 393.333 142.2 385.333C134.467 377.2 121.534 363.867 113.667 355.6C105.8 347.467 98.6002 340.667 97.6669 340.667C96.8669 340.667 84.4669 328.533 70.2002 313.733C17.5335 258.667 19.1335 260.267 14.6002 260.267C9.4002 260.267 4.33353 263.6 1.53353 268.8C-0.466467 272.933 -0.466466 272.933 9.26687 290.4C17.5335 304.933 29.4002 325.867 43.6669 350.667C53.6669 368 55.6669 372 55.6669 374.4C55.6669 376 56.8669 378.8 58.3335 380.667C59.8002 382.533 61.0002 384.4 61.0002 384.8C61.0002 385.333 69.9335 401.2 82.3335 422.667C85.9335 428.933 94.3335 443.467 97.2669 448.667C98.7335 451.2 104.6 461.467 110.334 471.333C120.6 489.067 123.667 494.533 129.134 504.267C141.934 527.067 152.334 542.133 191.8 594.667C216.467 627.6 245.267 665.733 255.534 679.333C265.934 692.933 278.734 710 283.934 717.333C289.267 724.667 295.934 733.6 298.734 737.333C301.534 740.933 308.067 749.733 313.4 756.667C318.6 763.6 323.267 769.6 323.667 770C324.067 770.4 326.734 774 329.667 778C332.6 782 335.267 785.6 335.667 786C336.067 786.4 337.4 787.867 338.467 789.467C340.6 792.533 349.8 803.733 353.4 807.467C354.6 808.933 355.4 810 355 810C354.334 810 367.267 828.4 369 830C369.4 830.4 371.267 832.8 373.267 835.333C375.134 837.867 377.934 841.333 379.534 842.933C381.134 844.533 382.334 846.4 382.334 847.067C382.334 847.6 383.4 849.333 384.734 850.8C385.934 852.133 389.4 856.533 392.2 860.533L397.267 867.733L396.334 900.4C395.8 918.267 395 934.533 394.467 936.4L393.534 939.733L388.734 935.467C381 928.667 380.2 930.8 387.667 938.133L394.734 945.067L393.8 979.2C393.267 998 392.6 1013.6 392.334 1013.87C391.934 1014.13 387.667 1011.33 382.734 1007.6C377.8 1003.87 373.4 1001.2 373 1001.6C372.334 1002.13 376.334 1005.87 387.667 1015.47L393.4 1020.27L391.8 1047.47C391 1062.4 390.334 1084.27 390.334 1096C390.2 1117.07 390.2 1117.47 386.6 1122.53C381.134 1130.4 379.134 1131.2 374.867 1127.33C371.8 1124.4 351.667 1095.2 351.667 1093.6C351.667 1092.13 329.667 1058.13 323 1049.33C313.267 1036.53 300.867 1024.8 289.267 1017.47C283.934 1014.13 279.267 1011.33 278.734 1011.33C278.2 1011.33 275.4 1010.13 272.467 1008.8C254.6 1000.53 247.534 998.933 227.667 998.933C215.267 998.8 210.6 999.467 203 1001.87C177.8 1010 157.934 1026.27 139.8 1053.33C119.934 1082.8 107 1116.27 98.3335 1160C97.5335 1164.4 96.4669 1169.2 96.2002 1170.67C93.8002 1181.6 91.5335 1208.4 90.8669 1232C89.5335 1277.73 93.8002 1323.73 102.334 1359.33C103.134 1362.67 104.467 1368 105.134 1371.33C109.934 1392.67 121.134 1426.93 129.667 1445.33C140.334 1468.8 151.267 1488.8 163.267 1507.07C171.8 1520.13 185.267 1538.67 187.534 1540.67C187.934 1541.07 191.267 1544.93 194.867 1549.33C201.534 1557.33 223.134 1579.2 231.8 1586.67C250.734 1603.07 267.534 1615.6 284.067 1626C292.2 1631.2 295.667 1634.13 295.8 1636C295.8 1637.47 296.6 1648.93 297.534 1661.47C299 1682.93 299.4 1684.93 303.4 1693.07C308.334 1703.07 316.067 1710.67 326.734 1715.73C338.2 1721.33 344.867 1722.4 364.467 1721.73C381.8 1721.07 382.467 1721.07 383.934 1723.87C389.8 1734.93 403 1747.73 413 1752.13C414.867 1752.93 417.8 1754.27 419.667 1755.07C427.934 1758.67 444.867 1759.33 520.734 1759.33C563.8 1759.33 661.8 1759.33 738.734 1759.33H878.334V1768.13C878.334 1772.93 879.267 1789.87 880.467 1805.73C882.067 1828 883.134 1834.93 884.6 1836C885.934 1837.07 886.867 1840.93 887.267 1849.07C887.934 1858.8 887.667 1860.67 886.067 1860.67C880.867 1860.67 869 1885.2 863.534 1907.33C858.067 1929.07 857.4 1936.67 860.467 1941.87C864.2 1948.27 869.4 1949.33 895.267 1949.33C921.4 1949.33 922.867 1948.8 928.6 1937.87C932.067 1931.47 932.067 1928.27 928.6 1910C927.267 1902.93 926.867 1894.4 927.4 1881.2C928.067 1861.87 927.267 1858.4 923 1862C921.267 1863.47 921 1862.93 921.134 1859.2C921.267 1856.67 921.934 1850.8 922.867 1846C924.334 1837.6 924.467 1837.33 928.6 1836.93C932.067 1836.53 932.867 1835.87 933.267 1832.93L933.667 1829.33L1018.2 1829.47C1089.8 1829.6 1103 1829.87 1103.8 1831.47C1104.33 1832.53 1105.4 1836.8 1106.33 1840.93C1107.53 1847.33 1108.47 1848.8 1111 1849.47C1114.47 1850.27 1115 1852.4 1116.47 1869.73C1117.27 1879.07 1117 1880.67 1115.27 1880.67C1109.8 1880.67 1105.13 1900.4 1105 1923.47C1105 1942.67 1106.33 1946.13 1115.4 1948.67C1118.47 1949.47 1143.67 1950 1181.4 1950C1248.33 1950 1247 1950.13 1250.33 1942C1252.6 1936.4 1250.2 1930.13 1242.07 1921.33C1233.53 1911.87 1221.93 1904.27 1198.33 1892.53C1175.8 1881.33 1170.47 1879.33 1163.53 1879.33H1158.33V1871.47C1158.33 1867.2 1157.93 1860.93 1157.53 1857.6C1156.73 1852.27 1157 1851.2 1160.07 1848.4C1162.87 1845.73 1163.53 1843.73 1163.93 1837.2L1164.33 1829.33L1299 1829.07C1373.13 1828.8 1434.6 1828.27 1435.67 1827.73C1441 1825.33 1415.8 1824.8 1295 1824.8L1164.33 1824.67L1164.2 1769.6C1164.07 1717.33 1162.47 1665.07 1159.53 1621.33C1158.87 1610.27 1157.67 1592.27 1157 1581.33C1154.87 1547.07 1151 1496.67 1149.13 1476C1148.33 1467.87 1147.13 1453.47 1146.33 1444C1144.47 1421.33 1141.93 1396.53 1136.2 1342.67L1131.53 1298.67L1140.87 1289.2C1153.53 1276.27 1155.4 1269.33 1152.47 1246.4L1151.8 1242.13L1242.73 1241.73L1333.67 1241.33L1337.93 1238.27C1346.73 1232 1346.73 1217.33 1337.93 1210.8C1334.2 1208 1333.13 1208 1241.8 1207.6L1149.4 1207.33L1148.47 1202.27C1148.07 1199.6 1147.67 1194.8 1147.67 1191.87C1147.67 1186.4 1147.8 1186.27 1153.27 1185.47C1156.33 1184.93 1162.47 1182.8 1166.87 1180.67C1192.33 1168.53 1203.13 1145.07 1199.53 1109.6C1198.87 1102.13 1197.93 1094.93 1197.53 1093.73C1196.87 1091.6 1199.8 1091.47 1236.87 1091.07L1277 1090.67L1281.13 1086.53C1289.13 1078.53 1287.13 1063.87 1277.67 1059.6C1275.27 1058.53 1261.53 1058 1232.33 1058H1190.47L1189 1052.27C1188.2 1049.2 1186.87 1044.27 1186.2 1041.33C1182.87 1027.87 1173.67 999.333 1168.47 986.133C1161.67 969.067 1153.27 956.533 1142.87 948L1135.4 942H1143.93C1156.07 941.867 1162.47 940.133 1166.6 935.467C1171.67 929.733 1172.6 923.6 1169.13 916.933C1164.47 907.867 1161.13 907.333 1110.73 907.333H1067.67V902.933C1067.67 898.8 1064.47 893.6 1061.13 892.533C1058.87 891.733 1062.47 875.467 1065.13 874.667C1066.33 874.267 1068.87 871.067 1070.87 867.467C1077.27 855.733 1075 839.333 1066.87 839.333C1063 839.333 1062.6 837.2 1066.33 836C1070.73 834.533 1076.87 825.867 1078.47 818.4C1079.8 812.533 1079.67 810.533 1077.8 805.6C1073.4 794 1064.6 790.133 1054.6 795.2C1047.53 798.8 1045.53 798.667 1036.87 794.8L1029.67 791.467H1215.27C1424.07 791.333 1406.33 792.267 1411.8 781.067C1414.07 776.4 1414.2 774.667 1413.13 770.4C1412.33 767.467 1410.2 763.733 1408.2 761.867L1404.73 758.667L1207.93 758.267C1099.67 758 1008.47 758.267 1005.4 758.667C1001.53 759.2 998.334 760.8 995.667 763.467C992.2 767.067 991.667 768.533 991.667 774.933C991.667 781.6 992.067 782.8 996.2 786.533L1000.6 790.8L994.467 793.067C985.267 796.267 979.534 800.667 975.267 807.6C968.067 819.333 969 841.067 977.8 860.133C981.134 867.467 981.4 870 982.734 895.6C983.4 910.8 983.667 924.667 983.134 926.533C982.467 929.467 981.4 929.867 974.6 930.533C962.2 931.867 940.067 937.6 931.267 941.733C926.734 943.867 919 948.4 913.934 951.733C909 955.2 904.867 958 904.6 958C904.467 958 904.6 884.4 905 794.4L905.667 630.667L909.267 624.4C913.934 616.533 921 610.667 930.067 607.333C936.867 604.8 940.734 604.667 1044.33 604.667H1151.67V635.867C1151.67 668.8 1152.33 673.6 1158.47 682.133C1159.93 684.267 1163.67 687.333 1166.73 689.067L1172.33 692L1301.93 692.4C1406.2 692.667 1432.2 692.4 1434.6 691.067C1437.13 689.6 1414.6 689.2 1304.87 688.667L1172.2 688L1167.13 684.667C1157.27 678 1157 676.8 1157 629.067C1157 581.467 1157 581.2 1166.73 573.467L1171.93 569.333L1229.27 568.933C1268.33 568.667 1287.13 568.933 1288.33 570C1291.67 572.8 1292.73 567.867 1293.4 546C1294.07 522.133 1295.67 515.067 1303 502.533C1314.47 482.933 1339.13 468.8 1361.67 468.8C1376.73 468.8 1395.67 476.133 1407.4 486.667C1415 493.6 1424.07 506.933 1426.6 514.933C1428.47 520.933 1429.53 522 1430.87 518.667C1432.6 514 1422.47 495.467 1413 486C1396.73 469.733 1374.07 462.533 1349.53 465.867C1338.87 467.333 1338.6 467.333 1329.8 463.333C1324.73 461.2 1319.93 459.333 1318.87 459.333C1317.8 459.333 1313.8 456.533 1310.07 452.933L1303.4 446.667L1195.67 446.267L1087.93 446L1087.4 420.933C1086.73 398.667 1086.33 394.933 1083.4 386.4C1081.53 381.2 1078.73 375.067 1077.13 372.933C1075.67 370.667 1074.33 368.267 1074.33 367.467C1074.33 364.4 1054.6 346.267 1046.07 341.467C1025.27 329.867 1026.6 330 905.934 330C802.734 330 797.4 330.133 783 334.4C763 340.133 744.067 356.133 734.467 375.467C726.6 391.467 725.134 398.933 725 424.267V446H709.667C701.267 446 694.334 445.867 694.334 445.6C694.067 443.867 689.934 397.733 689 385.333C687.267 363.333 684.467 331.2 680.334 285.333C676.867 247.467 673.8 211.333 671.8 184.667C669.934 161.067 667.4 149.867 663.4 147.2C662.467 146.533 656.334 130.667 650.334 112.667C649.667 110.8 646.467 101.867 643.267 92.6667C639.934 83.4667 635.667 71.4667 633.667 66C631.8 60.5333 629.667 54.8 629 53.3333C625.667 45.4667 624.467 40.4 623.8 31.3333C623 21.7333 622.867 21.3333 619.4 20.9333C615.934 20.5333 615.934 20.5333 615.4 30.2667C614.867 38.5333 610.467 57.0667 605 73.4667C604.334 75.7333 603.667 78.6667 603.667 80.2667C603.667 81.7333 603.267 83.3333 602.734 83.8667C601.667 84.8 600.867 88 587.667 137.333C586.067 143.2 583.8 149.467 582.6 151.333C578.067 158 577.134 166 577.267 194C577.267 209.067 577.667 224.933 578.2 229.333C579 236.4 579.267 235.067 580.067 218.667C580.6 208.4 581.534 190.8 582.067 179.733C582.734 166.933 583.667 158.8 584.734 157.733C586.334 156.133 598.067 155.2 641.267 153.333L662.067 152.4L663.667 157.467C665.267 163.467 667.134 177.733 669 200.933C669.8 210 671 223.867 671.667 232C676.467 288.4 679.934 329.067 681 343.333C681.8 352.533 683 366.533 683.8 374.667C685.667 394.933 687.534 417.6 688.467 432.933L689.4 446H634.867H580.334L578.334 441.6L576.467 437.333L575.134 441.733L573.934 446.133L560.6 445.733L547.267 445.333L539.934 420C531.667 390.8 531.4 390 527.8 376.667C526.334 371.2 524.2 363.333 523 359.333C521.8 355.333 519.667 347.733 518.334 342.667C515.8 333.2 511.934 319.2 508.2 306C504.867 294.133 503.934 291.2 501.134 280.667C499.667 275.2 497.534 267.333 496.334 263.333C495.134 259.333 493 251.6 491.534 246.267C485.534 223.733 483.667 216.667 480.334 204.667C478.334 197.733 476.334 190.133 475.667 188C475 185.733 473.667 180.933 472.6 177.333C471.534 173.6 469.134 164.667 467.134 157.333C462.6 140.667 459.8 130.533 458.334 125.333C456.734 119.867 450.334 96.9334 449 92C448.467 89.7334 446.6 83.4667 445.134 78C443.534 72.5333 440.867 62.5333 439 56C437.267 49.3333 434.6 39.4667 433.134 34C431.534 28.5333 428.867 18.9333 427.267 12.6667C423.8 -0.266654 423 -0.799988 411 2.80001ZM111.134 359.6C117.667 366.4 139 388.533 158.334 408.667C177.8 428.8 200.067 451.867 207.934 460L222.067 474.667L219.934 478.533C216.2 485.067 197 503.733 186.334 511.2C175.934 518.4 157.134 528.133 151.667 528.933C149 529.333 147.267 527.067 138.2 511.333C132.467 501.467 126.867 491.867 125.934 490C125 488.133 113.267 467.733 100.067 444.667C66.4669 385.733 60.6002 375.333 61.1335 374.8C61.4002 374.667 65.9335 371.733 71.0002 368.4C76.2002 365.067 84.2002 358.933 89.0002 354.933C93.8002 350.8 98.0669 347.467 98.4669 347.467C98.8669 347.333 104.6 352.933 111.134 359.6ZM988.334 372.533C1001.27 378.4 1004.73 380.667 1010.87 386.667C1018.2 393.867 1025.27 405.867 1028.33 416.267C1029.4 419.733 1030.33 427.867 1030.33 434.267V446H901.667H773V436.933C773.134 425.2 775.8 413.2 780.467 403.733C787.667 388.8 806.734 373.733 821.534 371.2C824.6 370.667 862.467 370.4 905.667 370.4C969.267 370.667 985.134 371.067 988.334 372.533ZM496.334 457.6C495.8 458.933 494.867 462.133 494.2 464.667C493.534 467.2 493 555.067 493 660C493 841.6 493.134 851.2 495.534 862.8C505.534 911.6 542.334 949.733 591 962.133L603 965.2L750.067 965.6L897 966.133L890.467 974.8C882.2 985.733 873 1003.47 868.6 1017.33C864.6 1029.47 853.934 1077.73 851.8 1092.67C848.067 1118.93 847.267 1130 848.067 1145.2C849.4 1172.13 856.467 1192.4 868.6 1204.13L874.6 1210H741.934C650.6 1210 607.934 1210.4 604.867 1211.47C593 1215.2 583.667 1221.6 578.067 1229.6C569 1242.93 569.8 1220.27 569 1500.67L568.334 1754.67L510.334 1755.07C441.8 1755.47 428.6 1754.53 416.334 1748.8C406.6 1744.27 395.134 1734.13 390.6 1726.13L387.534 1720.8L391.267 1719.87C421.8 1713.07 440.867 1702.4 461 1681.07C476.734 1664.53 485.8 1647.47 491.4 1624.27C492.6 1619.73 493 1587.6 493 1512.93C493 1394.67 493.934 1354 496.334 1354C497.267 1354 500.6 1351.6 503.8 1348.8C509.4 1343.87 509.667 1343.33 509.534 1336.53C509.4 1330.53 506.2 1312.93 501.667 1292C501.267 1289.73 500.334 1284.93 499.534 1281.33C493 1246.13 488.867 1227.87 486.6 1223.47C485.267 1221.07 481.534 1217.47 478.334 1215.47L472.334 1212L432.734 1211.87C410.867 1211.87 392.867 1211.6 392.6 1211.2C391.8 1210.13 396.067 1015.47 398.734 926C399.934 889.733 401.134 843.2 401.534 822.667C402.467 779.467 404.467 699.067 406.334 632C407.134 606.267 407.667 576.667 407.667 566C407.667 546.667 409.267 535.333 413.534 523.6C423.134 497.333 440.334 477.733 464.334 465.733C471.667 462 485 457.2 490.334 456.267C496.867 455.2 497.267 455.2 496.334 457.6ZM1324.87 466.133C1328.6 467.733 1331.67 469.333 1331.67 469.867C1331.67 471.2 1315.93 480.533 1315.13 479.6C1314.73 479.2 1314.33 475.333 1314.33 471.067C1314.33 462.133 1314.73 462 1324.87 466.133ZM241.134 499.467C248.734 509.467 256.334 519.333 257.934 521.467C290.6 565.333 359.134 656.667 360.734 658.667C361.934 660.133 364.734 663.733 367 666.667C369.134 669.6 371.667 672.933 372.6 674C373.4 675.067 377.934 681.067 382.6 687.333C387.267 693.6 392.067 699.867 393.267 701.2C394.6 702.667 395.934 704.933 396.467 706.267C396.867 707.6 397.8 708.667 398.467 708.667C399.8 708.667 400.2 755.733 398.734 757.067C398.334 757.6 397.134 757.333 396.067 756.533C393.267 754.133 393.934 757.867 397.134 763.2C399.667 767.467 399.8 768.933 398.867 788.533C398.467 800 397.534 810.4 397.134 811.6C396.067 814.4 395 813.6 388.334 805.333C381.934 797.333 380.067 795.333 379 795.333C378.067 795.333 385.267 805.067 386.734 805.733C387.267 806 387.667 806.933 387.667 807.733C387.667 808.667 389.8 812 392.334 815.2L397 821.067V839.467C397 849.6 396.467 858.133 395.8 858.667C395.134 859.067 391.8 855.867 388.334 851.733C385 847.467 381.267 842.933 380.2 841.6C379.134 840.4 378.334 838.933 378.334 838.533C378.334 837.867 371.934 828.933 370.334 827.333C369.934 826.933 366.067 821.867 361.667 816C357.267 810.133 353.267 805.067 352.867 804.667C352.467 804.267 349.134 799.733 345.667 794.667C340.734 787.333 328.867 771.2 319.4 758.667C318.867 757.867 311.934 748.667 303.934 738C296.067 727.333 285.8 713.867 281.267 708C276.734 702.133 267.8 690.133 261.4 681.333C255 672.533 249 664.4 248.067 663.333C247.134 662.267 241.4 654.4 235.267 646C229.134 637.6 208.067 609.333 188.6 583.333C169 557.333 153 535.333 153.134 534.667C153.134 533.867 159.534 530.267 167.4 526.4C185.667 517.733 199.934 507.067 214.334 491.6C220.6 484.933 226.067 479.867 226.467 480.4C227 480.933 233.534 489.467 241.134 499.467ZM1405.13 765.867C1410.07 770.933 1410.47 778 1405.93 782.533C1403 785.467 1401.67 785.6 1374.33 786.4C1337.67 787.6 1164.87 787.6 1073 786.4L1001.8 785.6L998.734 782.533C993.267 777.067 995.534 766.267 1002.87 763.333C1004.33 762.667 1094.6 762.133 1203.4 762.133L1401.27 762L1405.13 765.867ZM1057.8 837.333C1058.6 837.6 1058.87 839.867 1058.6 842.667L1058.07 847.467L1055.53 843.467C1052.33 838.133 1045.13 837.6 1041.4 842.533C1039.13 845.333 1038.07 845.6 1031 845.067C1019.67 844.267 1018.73 843.867 1021.67 840.667C1023 839.2 1025.93 837.467 1028.2 836.8C1031.93 835.867 1054.2 836.267 1057.8 837.333ZM1004.2 847.333C1005.4 850.267 1006.33 853.6 1006.33 854.533C1006.33 855.467 1007.27 857.067 1008.33 858C1010.73 860 1014.33 857.733 1014.33 854.133C1014.47 849.067 1016.2 848.4 1026.87 849.333C1037 850.267 1037 850.267 1037 854.133C1037 863.733 1043.27 871.067 1049.8 869.467C1053.4 868.533 1058.33 861.6 1058.33 857.467C1058.33 856 1059.93 858 1061.93 862C1064.6 867.333 1065 869.333 1063.8 869.733C1059.53 871.2 1057.4 875.2 1056.6 883.2C1055.53 892.4 1054.33 895.6 1049.27 900.933C1046.6 903.733 1044.6 904.667 1040.73 904.667C1032.07 904.667 1018.07 900.533 1013 896.4C1010.47 894.4 1007 892.667 1005.13 892.667C1001.13 892.667 994.067 885.333 989.667 876.533C987.8 872.933 986.334 869.867 986.334 869.467C986.334 869.2 987.8 868.533 989.667 868.133C992.2 867.467 993 866.4 993 863.467C993 861.333 992.067 858.933 991 858C987.534 855.067 988.467 847.6 993 843.2C997.934 838.267 1001 839.467 1004.2 847.333ZM1052.47 848.133C1056.33 857.333 1049.27 869.6 1044.07 862.533C1040.47 857.467 1043.67 843.333 1048.47 843.333C1049.53 843.333 1051.4 845.467 1052.47 848.133ZM1069.53 846.8C1070.73 850 1070.47 860.4 1069.13 861.333C1067.13 862.533 1063.67 856.533 1063.67 852C1063.67 846 1067.8 842.267 1069.53 846.8ZM999 898.533C999 899.333 1000.47 902.933 1002.33 906.667C1005 912 1005.67 915.867 1006.07 926C1006.2 932.933 1005.93 941.333 1005.4 944.667L1004.2 950.667L993 950.4C981.267 950 969.534 947.867 968.334 945.867C967.934 945.333 971 943.067 975.267 941.067C987.8 934.933 988.067 934 987.8 907.067L987.534 884.133L993.267 890.667C996.334 894.133 999 897.733 999 898.533ZM1011.4 901.067C1013 902.667 1016.07 908.133 1018.33 913.067C1020.6 918 1023.27 922.4 1024.33 922.933C1027 923.867 1045.4 911.733 1053 904C1060.87 896 1062.87 896.133 1061.8 904.267C1061.27 907.867 1060.73 913.067 1060.6 916C1060.33 918.933 1059.8 922.933 1059.13 924.933C1058.47 927.067 1058.73 930.4 1059.53 932.933C1062.47 941.733 1054.47 958.4 1043.8 965.6C1041.53 967.2 1036.73 969.6 1033.27 970.8C1029.8 972.133 1025.8 974.667 1024.2 976.4L1021.53 979.733L1012.07 973.333L1002.6 967.067L1005.8 960.133C1007.67 956 1009.53 948 1010.6 940.267C1012.73 923.333 1011 912.667 1003.93 898.933C1002.73 896.667 1008.73 898.267 1011.4 901.067ZM1028.73 908C1032.33 909.067 1032.6 912.8 1029 916C1025.8 918.8 1025.93 918.933 1023.13 912.133C1020.2 904.933 1019.67 905.333 1028.73 908ZM1162.87 916.8C1167.27 921.867 1167.27 927.333 1163.13 932.267C1159.93 936 1159.67 936 1143.13 936.4C1128.33 936.8 1125.27 936.533 1117.93 933.867C1111 931.467 1106.2 930.8 1087.67 930.4C1075.53 930.133 1065 929.6 1064.07 929.333C1062.73 928.933 1062.87 927.733 1064.2 924.4C1065.27 922 1065.8 918.4 1065.4 916.267L1064.73 912.667H1112.07H1159.4L1162.87 916.8ZM1105.8 936C1130.47 941.2 1148.33 954.933 1159.53 977.333C1171.53 1001.6 1189.27 1066.67 1194.47 1105.73C1199.53 1144.27 1187 1168.93 1157 1179.47C1144.2 1184 1124.73 1183.73 1108.33 1178.8C1082.07 1170.8 1053.4 1156.4 1021.4 1135.07C1011.8 1128.67 1003.27 1123.33 1002.47 1123.33C995.8 1123.33 1009 1133.87 1037.13 1151.07C1073.8 1173.33 1105.53 1185.73 1131.93 1188.13L1142.2 1189.07L1142.87 1193.87C1143.27 1196.53 1144.87 1214.27 1146.47 1233.33C1149.4 1267.33 1149.4 1268.13 1147 1273.33C1143.13 1281.47 1130.87 1292.93 1121 1297.6C1102.6 1306.4 1085.67 1306.67 1062.33 1298.67C1027.8 1286.8 972.734 1273.6 942.067 1269.87C926.467 1268 897.667 1268.8 893.267 1271.2C891.534 1272.13 889.8 1272.67 889.534 1272.27C889 1271.73 899 1233.2 902.467 1222.53C903.667 1218.53 904.067 1218.27 913.134 1217.73C927 1216.67 941.667 1209.07 954.334 1196.4C976.734 1174 993.267 1142.8 1009.67 1092.27C1015.27 1074.93 1017.8 1068.93 1018.87 1070C1022.07 1072.53 1051.4 1083.6 1063.53 1086.8C1086.2 1092.67 1098.2 1090.53 1108.6 1078.8C1115.53 1070.93 1118.73 1060.13 1118.07 1046C1117.8 1038 1117.27 1036 1115.53 1035.6C1113.67 1035.2 1113.4 1036.67 1113.53 1046.27C1113.67 1061.47 1111.27 1069.2 1103.67 1076.67C1093.67 1086.8 1086.2 1087.73 1063.67 1081.87C1055.8 1079.73 1020.73 1066.8 1018.47 1065.2C1018.2 1064.93 1019.93 1057.2 1022.2 1047.73C1025.93 1031.87 1029.8 1012.8 1032.73 995.6C1033.93 989.2 1033.67 988.133 1031.27 985.867C1029.8 984.533 1028.07 983.333 1027.4 983.333C1026.87 983.333 1027 981.867 1027.8 980.267C1028.87 978 1031.53 976.4 1036.73 974.667C1046.87 971.467 1058.07 960.4 1062.07 949.6C1063.67 945.333 1065 940.533 1065 938.8C1065 937.2 1065.4 935.333 1065.93 934.933C1067.53 933.2 1095.8 934 1105.8 936ZM970.6 937.6C966.467 939.067 964.734 940.533 964.2 942.933C962.2 950.533 969.4 953.867 989.4 954.933C996.467 955.333 1002.33 956 1002.33 956.533C1002.2 958.933 998.334 964 996.6 964C995.4 964 988.067 973.333 980.334 984.667C968.467 1001.87 955.934 1019.07 944.867 1032.93C942.867 1035.47 942.467 1035.47 939.534 1033.6C929.667 1027.07 907.134 1025.73 892.334 1030.8C878.334 1035.6 871.667 1041.87 871.667 1050.13C871.667 1058.67 879.134 1064.13 895.667 1068C901.134 1069.2 907 1070.93 908.6 1071.6C911 1072.8 912.334 1072.4 916.734 1068.93C932.467 1056.4 960.067 1023.33 983 989.333C989.534 979.733 995.267 971.467 995.8 970.8C996.6 969.867 1026.73 987.467 1028.33 989.867C1029.13 991.2 1019.27 1039.87 1014.33 1058.67C999.534 1115.47 979.534 1160.27 957.667 1185.87C939.4 1207.07 918.467 1216.4 897.4 1212.67C875.934 1208.93 863.134 1195.73 856.067 1170C852.6 1157.6 852.734 1111.2 856.2 1092C860.334 1069.33 871.267 1023.07 874.734 1014C890.067 973.2 916.467 948.667 955 938.8C969 935.333 979.4 934.4 970.6 937.6ZM253.4 1005.33C277.667 1011.33 299.934 1025.73 316.334 1046C320.6 1051.2 339.667 1079.07 339.667 1080.13C339.667 1080.53 340.734 1082.53 342.2 1084.4C343.534 1086.4 346.067 1090.67 347.934 1094C353.4 1103.73 364.867 1122.13 368.067 1126.13C369.667 1128.13 372.867 1130.8 375.134 1132.13C379.134 1134.4 379.534 1134.4 384.067 1131.47C386.6 1129.87 389 1129.07 389.267 1129.6C389.534 1130.13 389.4 1140.53 388.867 1152.67C388.334 1164.8 387.934 1182.8 387.8 1192.8C387.667 1208.13 387.267 1211.2 385.534 1211.87C384.334 1212.27 370.2 1212.67 353.934 1212.67C323.8 1212.67 319.4 1213.33 309.134 1218.53C305.134 1220.67 299.667 1226.53 297.4 1231.33C295.8 1234.67 293.4 1245.47 287 1278C281.8 1304.53 280.867 1309.07 279.667 1314.67C276.067 1330.67 275.667 1334.4 277 1339.2C279 1346.93 287.4 1353.6 297 1355.33C299.534 1355.73 301.534 1356.67 301.4 1357.47C301.4 1358.13 300.6 1371.2 299.8 1386.67C299 1402 297.534 1423.07 296.734 1433.33C295.534 1445.87 295 1481.07 295 1539.6C295 1587.87 294.734 1627.33 294.334 1627.33C292.334 1627.33 255.4 1601.07 243.934 1591.6C227.267 1577.87 198.867 1548.8 186.2 1532.4C118.067 1444.67 84.4669 1323.73 95.6669 1206.67C101 1152 111 1114.67 130.2 1078C161.8 1017.47 203.4 992.8 253.4 1005.33ZM930.867 1035.07C934.467 1036.4 937.8 1038.27 938.067 1039.2C938.334 1040.13 932.867 1046.67 925.8 1053.6L913 1066.27L906.067 1065.33C894.067 1063.73 883.134 1059.73 879.134 1055.47C875.534 1051.73 875.4 1051.2 877 1047.33C880.6 1038.53 894.867 1032.8 913 1032.8C920.467 1032.8 926.6 1033.6 930.867 1035.07ZM1276.87 1065.6C1282.6 1070.93 1282.87 1077.6 1277.67 1082.67L1274.47 1086H1235.27H1196.07L1194.47 1077.6C1193.67 1073.07 1192.6 1067.73 1192.07 1065.6L1191.4 1062H1232.2H1273L1276.87 1065.6ZM1336.2 1216C1341.13 1220.53 1341 1228.13 1335.93 1233.07L1332.2 1236.67H1241.93C1156.87 1236.67 1151.67 1236.53 1151.53 1234.27C1151.53 1233.07 1151 1227.6 1150.47 1222.27L1149.53 1212.67H1241.13H1332.6L1336.2 1216ZM889.8 1249.6C884.2 1269.33 882.2 1279.73 881.534 1291.73C880.734 1307.47 882.2 1312.4 890.2 1319.87C892.467 1322 894.067 1324.13 893.667 1324.53C893.4 1325.07 891.4 1334.53 889.134 1345.73C884.067 1370.8 879.134 1408.8 876.2 1444C872.2 1494.93 872.334 1655.07 876.6 1736.27L877.4 1752.67H739.134H601V1520.93C601 1269.07 600.734 1280 608.2 1268.67C612.2 1262.53 619.4 1255.6 624.334 1252.93C634.734 1247.47 634.2 1247.47 764.734 1247.47C883.934 1247.33 890.467 1247.47 889.8 1249.6ZM1106.87 1312.13C1107.93 1316.27 1118.07 1326.4 1123.53 1328.67C1126.07 1329.73 1127.67 1331.33 1127.67 1332.8C1127.67 1336.13 1126.87 1336 1118.87 1331.33C1110.73 1326.67 1101 1315.2 1101 1310.13C1101 1307.07 1106.07 1308.67 1106.87 1312.13ZM971.667 1320.4C971.667 1325.2 963.934 1337.73 956.334 1345.33C947.667 1354 936.067 1360.53 923.534 1363.73C919.134 1364.8 915.134 1365.2 914.2 1364.53C911.4 1362.93 913.667 1361.6 926.067 1357.6C945.4 1351.33 956.734 1341.87 965 1325.2C968.867 1317.2 971.667 1315.2 971.667 1320.4ZM490.067 1479.33C490.467 1623.33 490.334 1626.13 479.934 1646.8C471.4 1663.73 469.267 1666.8 458.334 1678C439.534 1697.07 420.6 1707.6 393.267 1714.27C377.134 1718.13 344.867 1718.4 334.734 1714.93C315.534 1708.27 304.467 1693.87 302.334 1672.93C300.2 1652 298.067 1552.8 299 1513.33C300.334 1449.73 305 1359.87 307.134 1356.4C307.534 1355.73 348.734 1355.47 398.734 1355.6L489.667 1356L490.067 1479.33ZM1050.07 1363.73C1050.33 1365.33 1049 1366 1044.6 1366.67C1037.13 1367.87 1031 1371.47 1027.93 1376.53C1026.6 1378.67 1024.47 1386.93 1023.13 1394.93C1020.87 1408.27 1020.87 1409.73 1022.87 1414.53C1025.8 1421.47 1035.13 1455.2 1040.2 1477.33C1042.87 1488.8 1045.67 1501.87 1047.4 1510.67C1048.07 1514.27 1049.93 1523.33 1051.53 1530.67C1055.67 1550.67 1058.2 1563.33 1061 1578.67C1061.67 1582.27 1063.13 1590.13 1064.33 1596C1068.73 1619.2 1070.47 1628.53 1072.33 1639.33C1072.73 1641.87 1073.8 1647.33 1074.47 1651.33C1075.13 1655.33 1076.73 1663.73 1077.8 1670C1083 1699.87 1083.8 1704.13 1086.2 1719.33C1086.87 1724.13 1089.13 1736.93 1091 1748C1093 1758.93 1095.13 1771.87 1095.8 1776.67C1096.6 1781.47 1097.67 1788.27 1098.33 1792C1098.87 1795.6 1100.07 1803.73 1100.87 1810C1101.67 1816.27 1102.6 1822 1103 1822.93C1103.27 1823.73 1101.93 1824.8 1099.93 1825.2C1094.87 1826.13 946.867 1826.13 939.934 1825.07L934.067 1824.27L934.867 1816.13C935.4 1811.73 936.334 1804.27 937 1799.6C937.667 1795.07 938.867 1786.93 939.667 1781.6C941.534 1769.73 943 1760.8 945.667 1746C946.734 1739.73 948.334 1731.07 949.134 1726.67C950.6 1718.13 950.6 1718.13 957.667 1681.33C963.667 1650.53 965 1643.87 966.334 1637.33C967 1634.4 967.8 1630.13 968.2 1628C968.6 1625.73 969.934 1619.73 971 1614.67C973.4 1604.13 978.067 1581.33 979.667 1573.33C981.267 1564.93 983.267 1555.6 986.2 1542.67C987.667 1536 989.534 1527.33 990.467 1523.33C992.067 1515.07 992.867 1511.73 997.667 1490C1003.13 1466.13 1003.4 1464.4 1005 1456.67C1005.8 1452.67 1007 1447.47 1007.67 1445.33C1009.8 1437.6 1015.53 1410.53 1018.47 1394.27C1022.33 1372.27 1026.33 1366.53 1040.47 1362.67C1048.07 1360.67 1049.53 1360.8 1050.07 1363.73ZM919 1841.6C918.6 1843.73 917.8 1848.67 917.267 1852.67L916.334 1859.87L909.267 1859.47C900.467 1859.07 894.334 1860.4 894.334 1862.67C894.334 1863.73 893.8 1864.93 893 1865.33C892.2 1865.87 891.667 1861.07 891.667 1852.13V1838H905.667H919.667L919 1841.6ZM1153.53 1851.6C1153.93 1853.33 1154.33 1860.27 1154.33 1866.93V1879.33L1150.73 1880.13C1143.8 1881.6 1141 1883.2 1141 1886C1141 1889.33 1140.6 1889.33 1131 1885.6L1123 1882.53L1121.4 1871.87C1120.6 1866.13 1119.8 1858.8 1119.8 1855.73L1119.67 1850.13L1132.73 1849.6C1139.8 1849.47 1147.27 1849.07 1149.13 1848.93C1151.8 1848.8 1152.87 1849.47 1153.53 1851.6ZM913 1868.27C913 1870.4 913.667 1872.93 914.334 1874C915.4 1875.6 916.2 1875.33 919.667 1872L923.667 1868.13V1888.13C923.667 1901.87 924.334 1910.67 925.8 1916.93C928.334 1927.2 927.667 1932.93 923.267 1939.47C920.467 1943.6 919.534 1944.13 911 1945.07C905.8 1945.73 894.2 1945.73 885.134 1945.33C870.2 1944.4 868.334 1944.13 865.4 1941.2C861.4 1937.2 861.534 1933.6 866.2 1915.2C870.467 1898 876.2 1882.4 881.667 1873.2L885.267 1866.93L888.6 1871.2C890.334 1873.47 892.467 1875.33 893.134 1875.33C893.8 1875.33 895.267 1872.93 896.467 1870C898.6 1864.67 898.734 1864.67 905.8 1864.67C912.734 1864.67 913 1864.8 913 1868.27ZM1193 1894.27C1228.47 1911.87 1246.33 1926.4 1246.33 1938C1246.33 1947.2 1235.8 1948.27 1165.67 1946.13L1115 1944.53L1111.8 1940.93C1108.73 1937.6 1108.6 1936.93 1109.27 1920C1110.07 1902 1113 1887.73 1116.47 1886.4C1117.4 1886 1123.4 1887.6 1129.67 1889.87C1143.93 1895.07 1145 1895.07 1145 1890.27C1145 1888.13 1145.4 1886 1145.93 1885.47C1146.6 1884.93 1153.27 1884.67 1161 1884.93L1175 1885.33L1193 1894.27Z" fill="black"/>
<path d="M225 590.8C225 592.533 281.133 668.933 285 672.667C285.4 673.067 290.333 679.6 296.067 687.333C317.133 715.867 323 723.2 324.867 723.333C325.8 723.333 326.333 722.533 325.933 721.6C325.533 720.667 314.467 705.467 301.4 687.867C288.333 670.4 266.2 640.8 252.467 622.267C238.6 603.867 226.867 588.667 226.2 588.667C225.533 588.667 225 589.6 225 590.8Z" fill="black"/>
<path d="M319.667 658.533C319.667 660.133 359.267 714.133 362.2 716.667C362.6 717.067 364.867 719.733 367 722.667C371.267 728.4 374.2 732.133 376.467 734.533C377.134 735.333 380.467 739.6 383.8 744C392.6 755.867 393.134 756.533 392.067 753.333C391 750 386.467 743.333 383.4 740.533C382.067 739.333 381 738 381 737.467C381 736.933 380.467 735.867 379.667 734.933C379 734 375.8 729.733 372.6 725.333C359.4 706.933 329.534 666.4 326.6 662.667C322.467 657.467 319.667 655.867 319.667 658.533Z" fill="black"/>
<path d="M243.134 1082C229.667 1087.2 220.067 1096.4 213.4 1110.8C208.467 1121.33 208.2 1137.33 212.867 1148.93C220.067 1167.2 237.934 1179.33 257.667 1179.33C274.734 1179.33 289.4 1171.2 299.4 1156.53C305.934 1146.8 308.067 1138.4 307.4 1124.93C306.734 1112.4 303.667 1104.27 296.067 1095.33C291.534 1089.87 280.734 1083.07 273.534 1080.93C265.534 1078.67 250.734 1079.2 243.134 1082Z" fill="black"/>
<path d="M187 1226.27C179.933 1228.8 176.333 1230.53 173.933 1232.93C170.733 1236.13 172.733 1236 180.6 1232.4C190.467 1228 208.467 1228.27 218.6 1232.93C234.867 1240.4 243.933 1254.8 244.733 1274C245.267 1287.07 242.467 1296.8 235.133 1306.4C226.067 1318.27 214.733 1324.27 198.733 1325.6C187.133 1326.67 173.267 1321.73 165.133 1313.73C155.533 1304.27 150.333 1292.27 150.467 1279.33C150.467 1272.13 152.867 1260.4 154.733 1258.53C155.267 1258 155.667 1256 155.667 1254.13L155.533 1250.67L153.267 1254.67C152.067 1256.8 150.333 1260.8 149.4 1263.33C147.267 1269.2 147.133 1288.67 149.133 1293.6C153.667 1304.4 155.4 1307.33 161.933 1314.27C172.867 1325.6 178.6 1327.87 195.8 1328C205.133 1328 211.267 1327.33 213.8 1326.13C229.267 1318.8 234.2 1314.93 241 1305.33C246.067 1298 250.333 1284.53 250.333 1275.73C250.333 1267.07 246.2 1254.27 240.867 1246.53C237 1240.8 228.333 1233.07 222.6 1230.13C212.867 1225.07 195.933 1223.2 187 1226.27Z" fill="black"/>
<path d="M222.333 1390.4C211.533 1394.93 203 1401.2 197 1409.2C189.267 1419.47 187.267 1425.87 187.133 1440.67C187 1452.27 187.4 1454.13 191.267 1462.27C206.467 1494.27 246.733 1501.73 272.733 1477.47C299.8 1452.13 293.133 1407.07 259.933 1391.6C249 1386.53 232.733 1386 222.333 1390.4ZM259.533 1395.2C271.8 1401.47 280.2 1411.87 284.467 1425.87C287 1434.13 286.733 1439.73 283.8 1449.73C278.867 1466 270.067 1476.53 255.8 1483.2C249.533 1486.13 246.467 1486.67 237 1486.67C227.4 1486.67 224.6 1486.13 218.333 1483.07C205 1476.53 194.6 1463.6 192.333 1450.53C191.8 1447.73 190.867 1444.67 190.2 1443.87C188.333 1441.6 191.533 1427.47 195.933 1418.27C201.8 1406 214.067 1395.87 227 1392.53C234.733 1390.53 253.267 1392 259.533 1395.2Z" fill="black"/>
<path d="M881 1908C881 1909.6 883.4 1910 895 1910C906.6 1910 909 1909.6 909 1908C909 1906.4 906.6 1906 895 1906C883.4 1906 881 1906.4 881 1908Z" fill="black"/>
<path d="M871.401 1931.47C868.067 1933.6 872.334 1935.2 885.001 1936.67C900.067 1938.27 917.667 1936.93 917.667 1934.13C917.667 1932.67 914.467 1932.4 901.667 1932.53C892.867 1932.67 882.867 1932.27 879.401 1931.6C876.067 1930.93 872.467 1930.93 871.401 1931.47Z" fill="black"/>
<path d="M1160.2 1891.47C1159.13 1893.2 1160.73 1894.53 1176.73 1905.6C1184.33 1910.8 1188.07 1912.8 1189.13 1911.73C1190.07 1910.8 1186.07 1907.2 1176.33 1900.27C1168.6 1894.53 1162.07 1890 1161.8 1890C1161.4 1890 1160.73 1890.67 1160.2 1891.47Z" fill="black"/>
<path d="M1119 1929.87C1117.93 1931.87 1120.07 1932.67 1130.6 1934C1142.47 1935.73 1223.13 1937.47 1228.2 1936.13C1230.2 1935.6 1231.67 1934.67 1231.4 1933.87C1231.13 1932.93 1220.07 1932.53 1199.67 1932.53C1181.93 1932.67 1158.2 1931.87 1145 1930.67C1117.13 1928.27 1119.93 1928.4 1119 1929.87Z" fill="black"/>
<path d="M846.334 111.733C839.534 114.667 831.801 122.133 828.467 128.933C820.067 145.733 827.134 166.533 844.334 175.733L849.667 178.667H1007H1164.33L1170.6 175.067C1183.8 167.2 1189.93 155.467 1188.6 140.933C1187.53 127.867 1181.27 118.8 1169.4 112.8L1163.8 110L1006.73 110.133C893.667 110.133 848.734 110.533 846.334 111.733ZM1166.33 116.133C1169.67 117.6 1174.6 121.333 1177.27 124.4C1191.4 140 1185 164.933 1164.6 173.733C1161.8 174.933 1124.33 175.333 1007.53 175.333H854.201L847.001 171.867C831.801 164.8 825.534 149.6 831.001 133.867C834.734 123.467 843.934 116 855.534 114C858.867 113.467 928.867 113.067 1011 113.2C1159.4 113.333 1160.33 113.333 1166.33 116.133Z" fill="black"/>
<path d="M1240.07 112.8C1228.07 118.667 1218.6 135.067 1220.2 147.333C1221.8 159.2 1229.4 170 1240.33 175.733C1247.27 179.333 1263.4 179.6 1269.93 176.133C1287.8 166.933 1295.27 146.267 1286.87 129.467C1282.47 120.667 1280.47 118.533 1272.33 113.867C1266.6 110.533 1264.33 110 1255.67 110.133C1248.33 110.133 1244.07 110.933 1240.07 112.8ZM1267 116C1291.13 125.733 1292.33 159.867 1269 171.6C1256.73 177.733 1245.27 176.267 1235 167.067C1227.27 160.267 1224.6 153.867 1225.27 142.8C1225.67 134.8 1226.33 132.4 1229.93 127.2C1238.6 114.8 1253.13 110.4 1267 116Z" fill="black"/>
<path d="M1751.67 177.2C1751.67 178.133 1756.87 182.267 1763.4 186.4C1769.8 190.533 1781.53 198.667 1789.4 204.533C1802.33 214.133 1806.33 216.133 1806.33 212.8C1806.33 210.4 1756.33 175.333 1752.73 175.333C1752.2 175.333 1751.67 176.133 1751.67 177.2Z" fill="black"/>
<path d="M969 223.333C959.4 224.667 955.667 226.267 949.667 231.467C928.734 249.867 932.467 279.467 957.667 294.267L963 297.333L1195 297.733C1322.6 298 1429 297.733 1431.4 297.333C1433.67 296.933 1435.67 296 1435.67 295.333C1435.67 294.533 1349.93 294 1203 294C973 294 970.334 294 963.267 291.333C948.467 285.733 940.2 273.2 941.267 257.467C942.2 242.933 951.4 231.733 965.8 227.6C969.934 226.4 1029.4 226 1203.53 226C1332.33 226 1435.67 225.467 1435.67 224.8C1435.67 224.267 1432.47 223.333 1428.73 222.8C1418.73 221.733 977.934 222.133 969 223.333Z" fill="black"/>
<path d="M1441.4 222.933C1440.47 223.333 1439.67 224.133 1439.67 224.8C1439.67 225.467 1454.33 226 1474.73 226C1510.33 226 1515.13 226.533 1524.47 231.6C1529 234.133 1535.53 241.733 1538.07 247.733C1539 249.733 1539.67 255.333 1539.67 260.133C1539.67 270.8 1536.07 278.933 1528.6 285.333C1519.53 293.067 1513.8 294 1473.67 294C1445.8 294 1438.2 294.4 1438.73 295.6C1439.13 296.933 1448.07 297.333 1477.8 297.333C1514.07 297.2 1516.73 297.067 1522.33 294.4C1545.67 283.6 1552.07 253.733 1534.87 235.333C1524.2 223.867 1522.87 223.6 1480.2 222.933C1459.8 222.667 1442.2 222.667 1441.4 222.933Z" fill="black"/>
<path d="M1815.67 224.533C1815.67 225.2 1816.73 226.533 1817.93 227.467C1828.6 236.267 1852.6 267.6 1858.6 280.667C1868.33 301.6 1871.67 315.6 1871.67 335.6C1871.67 375.2 1853.93 415.867 1816.6 462C1809.13 471.2 1805.67 476.4 1806.6 477.333C1807.4 478.267 1809.27 477.067 1811.93 474C1844.07 436.667 1862.73 403.467 1873.13 365.333C1875.67 356.267 1875.67 317.067 1873.13 308C1865.8 280.667 1852.87 258.4 1831.13 235.733C1820.6 224.667 1815.67 221.067 1815.67 224.533Z" fill="black"/>
<path d="M578.067 276.667C576.2 296.267 575.533 338.933 576.467 375.867C578.067 436.267 579.667 412.933 579.4 335.733C579.133 296.8 578.6 271.067 578.067 276.667Z" fill="black"/>
<path d="M1801.93 285.6C1801.4 286 1804.47 290.133 1808.73 294.533C1818.33 304.533 1822.87 312.133 1825.53 322.8C1831.8 346.933 1822.6 377.467 1795.53 422.667C1783.4 443.067 1782.6 444.667 1785.4 444.667C1787.67 444.667 1803.4 418.533 1814.2 397.2C1837.27 351.2 1836.87 316.933 1813 292.667C1805.13 284.8 1803.67 283.867 1801.93 285.6Z" fill="black"/>
<path d="M1562.07 356.267C1555.13 358.4 1555.27 358 1555.67 368.933C1555.93 376.267 1555.8 376.667 1551.4 379.333C1545.67 382.8 1544.6 382.667 1537.67 378C1534.47 375.733 1531.27 374 1530.47 374C1528.6 374 1518.33 383.6 1518.33 385.333C1518.33 386 1520.47 389.867 1522.87 393.733L1527.4 400.8L1524.47 406L1521.67 411.333H1512.6C1502.73 411.333 1503.53 410.8 1499.93 421.6C1498.87 425.067 1499 426.267 1500.87 427.867C1502.2 429.067 1503.67 430 1504.07 430C1504.6 430 1507.4 431.467 1510.33 433.333C1515.13 436.4 1515.67 437.333 1515.67 442C1515.67 447.6 1515.67 447.467 1503 454.8C1500.87 456 1500.47 457.467 1500.73 462.133C1501.53 471.733 1503.13 473.2 1513.13 472.8C1521.53 472.533 1521.67 472.667 1524.73 477.333C1526.33 479.867 1527.67 482.267 1527.67 482.533C1527.67 482.933 1525.93 486.267 1523.67 490C1521.53 493.733 1519.67 497.6 1519.67 498.4C1519.67 500.267 1529.13 510 1530.73 510C1531.27 510 1534.87 508 1538.6 505.467L1545.4 500.8L1550.33 503.333C1556.47 506.4 1557.27 508.533 1556.2 516.667C1555.4 522.4 1555.67 523.333 1558.47 525.2C1560.2 526.267 1564.2 527.6 1567.27 528.133L1572.73 528.933L1576.07 522.4C1580.47 514 1582.47 512.4 1588.33 512.933C1592.6 513.333 1593.53 514.133 1596.73 520C1598.73 523.6 1601 527.067 1601.67 527.733C1603.27 528.933 1610.47 527.867 1615.13 525.733C1618.2 524.267 1618.33 523.733 1617.53 515.867L1616.6 507.6L1622.07 504L1627.53 500.4L1635.8 505.333L1644.2 510.267L1650.07 504.133L1655.8 498L1651 490.533C1645.93 482.667 1645.8 480.667 1650.47 474.8C1652.87 471.733 1654.2 471.333 1661.53 471.333C1669.27 471.333 1670.07 471.067 1671.4 468C1672.33 466.133 1673 462.267 1673 459.6C1672.87 455.067 1672.47 454.4 1665.93 451.2C1659 447.6 1659 447.6 1659 441.2C1659 434.8 1659.13 434.8 1666.07 430.8C1673.67 426.4 1674.33 424.667 1671.4 415.2L1669.93 410H1660.2H1650.47L1648.2 405.067L1645.8 400.267L1650.2 392.267L1654.6 384.4L1649.53 379.2C1646.73 376.4 1643.53 374 1642.33 374C1641.27 374 1637.67 375.867 1634.47 378C1627.53 382.8 1627.53 382.667 1622.07 379.333C1617.93 376.8 1617.67 376.267 1617 367.2L1616.33 357.6L1609.67 355.867C1606.07 354.933 1602.47 354.133 1601.67 354.133C1601 354 1598.6 357.6 1596.33 362L1592.47 370H1586.33C1580.33 370 1580.2 370 1575.93 362C1573.4 357.6 1570.73 354 1569.93 354.133C1569 354.267 1565.53 355.2 1562.07 356.267ZM1603.13 400.8C1617.27 406.8 1626.2 417.6 1629.93 432.933C1637 463.2 1606.6 492.533 1576.33 484.533C1549 477.467 1534.87 448.267 1546.73 423.333C1550.73 414.933 1554.6 410.4 1562.6 404.933C1570.73 399.467 1575 398.267 1586.6 398.133C1594.07 398 1598.47 398.667 1603.13 400.8Z" fill="black"/>
<path d="M293.267 438C293.267 440.534 293.533 441.6 293.933 440.267C294.2 439.067 294.2 436.934 293.933 435.6C293.533 434.4 293.267 435.467 293.267 438Z" fill="black"/>
<path d="M295.934 448C295.934 450.133 296.2 450.933 296.6 449.6C296.867 448.4 296.867 446.533 296.6 445.6C296.2 444.8 295.934 445.733 295.934 448Z" fill="black"/>
<path d="M299.4 461.6C300.067 464.4 300.333 464.667 300.733 462.8C301 461.467 300.733 459.867 299.933 459.067C299.133 458.267 299 459.067 299.4 461.6Z" fill="black"/>
<path d="M1767.53 466.4C1755.53 483.733 1752.73 488.667 1755.27 488.667C1757.67 488.667 1775.67 463.867 1775.67 460.8C1775.67 457.333 1771.93 460 1767.53 466.4Z" fill="black"/>
<path d="M302.601 472.667C302.601 474.533 302.867 475.2 303.267 474.267C303.534 473.467 303.534 471.867 303.267 470.933C302.867 470.133 302.601 470.8 302.601 472.667Z" fill="black"/>
<path d="M1350.2 507.2C1339.27 512.667 1334.47 518.4 1331.93 528.934C1329.27 539.334 1333.27 552 1341.27 558.667C1353.13 568.667 1370.33 568.534 1382.2 558.534C1392.73 549.6 1395.67 532.4 1388.6 520.267C1380.47 506.534 1363.27 500.667 1350.2 507.2ZM1369.67 510.134C1376.73 512.134 1382.6 518.4 1386.2 528C1389.67 537.334 1389.27 541.6 1383.8 550.267C1378.33 558.8 1370.2 562.667 1359.4 561.6C1353.13 561.067 1350.33 560 1346.47 556.934C1335.53 548.134 1332.33 533.867 1339 522.534C1345.67 511.2 1357 506.667 1369.67 510.134Z" fill="black"/>
<path d="M1439.93 566.267C1440.47 567.6 1453.4 568.133 1496.47 568.667C1558.73 569.467 1555.67 568.933 1563.27 578.933L1567 583.867L1566.87 627.2C1566.87 676.8 1566.6 678.133 1556.47 683.867C1551 686.933 1550.6 687.067 1495.13 687.867C1464.33 688.267 1438.87 688.933 1438.47 689.333C1436.33 691.6 1445.53 692 1496.6 692C1551.93 692 1552.33 692 1557.93 688.933C1561.13 687.333 1565.27 683.467 1567.27 680.4L1571 674.933L1571.4 639.733L1571.8 604.533L1670.73 604.933L1769.67 605.333L1776.6 609.2C1784.87 613.733 1790.6 621.333 1793.93 632C1796.2 639.733 1796.33 660.533 1796.33 1217.33V1794.67L1793.13 1801.6C1789.13 1810.67 1779.4 1819.6 1770.87 1822.53C1765.53 1824.27 1760.07 1824.67 1744.47 1824.4L1724.87 1824L1717 1804.13C1692.6 1743.07 1673.53 1668.53 1658.87 1576.67C1655.93 1558 1651.67 1539.87 1648.33 1531.2C1647.8 1529.73 1649 1528.4 1652.87 1526.67C1663.67 1521.87 1663.53 1522.93 1657.27 1490.93C1649 1449.87 1647.53 1436.13 1647.4 1404C1647.4 1364.67 1652.33 1310.53 1657.93 1289.33C1659.4 1283.33 1659.8 1278.27 1659 1268.67C1657.67 1249.87 1657.67 1250.53 1662.2 1233.33C1665.8 1219.87 1666.33 1215.87 1665.67 1208.67C1664.73 1198.8 1658.07 1163.73 1654.07 1148C1652.6 1142.13 1651 1131.87 1650.33 1125.33C1648.87 1108 1643.13 1098.27 1631.67 1093.73C1627.53 1092 1626.6 1090.8 1623.67 1081.87C1620.47 1072.53 1620.07 1072 1616.07 1071.6C1612.87 1071.33 1611.4 1071.87 1609.8 1074.27C1608.07 1076.93 1608.07 1079.07 1609.93 1093.2C1611.4 1105.07 1611.53 1109.87 1610.47 1112.27C1607.27 1119.33 1610.2 1128.13 1619.13 1137.47C1621.8 1140.4 1624.73 1144.53 1625.67 1146.67C1629.53 1155.6 1632.87 1197.2 1631.13 1211.87C1630.2 1218.4 1629.4 1220.4 1625.67 1223.87C1623.13 1226.13 1618.73 1231.33 1615.8 1235.33C1610.2 1242.8 1574.07 1282 1573.27 1281.33C1573 1281.07 1574.33 1278 1576.2 1274.4C1583.53 1259.73 1583.4 1239.87 1575.67 1223.73C1570.73 1213.6 1570.73 1212.67 1575.13 1212.67C1578.73 1212.67 1578.73 1212.67 1577.93 1204.93C1576.07 1187.6 1567.4 1170.93 1556.87 1164.4C1535.27 1150.93 1479 1161.33 1469.4 1180.67C1466.07 1187.2 1465.27 1199.07 1467.67 1207.33C1468.73 1210.93 1468.6 1213.87 1466.87 1220.27C1463.53 1232.53 1464.73 1236.4 1474.73 1244.93C1479.27 1248.8 1486.87 1255.33 1491.53 1259.6C1496.07 1263.73 1502.6 1268.53 1505.93 1270.13C1509.27 1271.73 1513.67 1275.33 1515.8 1278.4C1520.2 1284.4 1529.53 1300.67 1528.73 1301.2C1528.6 1301.33 1526.2 1302.4 1523.67 1303.73C1521.13 1304.93 1515.4 1308.13 1511 1310.67C1506.6 1313.2 1499.4 1316.53 1494.87 1318C1480.33 1322.93 1475.13 1330.93 1472.2 1353.07C1471 1363.07 1468.07 1375.07 1463.53 1389.2C1450.33 1430.53 1448.87 1441.87 1454.87 1453.87C1464.07 1471.87 1476.07 1477.2 1495.67 1472C1508.33 1468.67 1507.93 1467.6 1507.4 1498.4C1507 1523.2 1507.27 1525.73 1509.67 1530.67C1511.53 1534.4 1513.93 1536.8 1517.93 1538.67C1521.8 1540.4 1523.4 1541.87 1523 1543.33C1521.13 1549.33 1518.07 1574.93 1516.87 1596.53C1513.8 1646.67 1521 1729.07 1535.13 1803.87C1536.87 1813.33 1538.33 1821.87 1538.33 1822.8C1538.33 1824.27 1529.4 1824.67 1488.73 1824.93C1445.53 1825.33 1439 1825.6 1439 1827.33C1439 1829.07 1445.67 1829.33 1490.07 1829.73C1535.8 1830 1541 1830.27 1541 1832.13C1541 1833.33 1542.87 1842.53 1545 1852.53C1547.8 1864.8 1549.8 1871.33 1551.53 1872.67C1552.87 1873.87 1554.33 1877.6 1554.87 1880.93C1555.93 1888.27 1557.67 1886.93 1531.53 1898.67C1506.2 1910 1500.6 1915.2 1503.8 1924.53C1506.2 1931.6 1508.87 1932 1546.2 1932C1579.67 1932 1580.47 1932 1585.8 1928.8C1592.33 1925.2 1594.6 1921.07 1593.53 1915.07C1590.73 1898.27 1588.33 1888.8 1586.2 1884.8C1583.4 1879.47 1582.87 1873.33 1585.13 1871.87C1586.2 1871.2 1586.33 1865.07 1585.67 1850.67L1584.73 1830.4L1601.13 1829.6C1610.07 1829.07 1632.87 1828.67 1651.67 1828.67H1685.8L1693.13 1834.8C1697.53 1838.53 1701.4 1843.33 1703.13 1847.07C1705.93 1853.2 1705.93 1854.13 1704.73 1886.53C1703.27 1923.07 1703.4 1924.27 1711 1928.93C1713.27 1930.27 1717 1931.33 1719.53 1931.33C1725.8 1931.33 1735 1926.67 1738.47 1921.73C1742.73 1915.87 1748.33 1903.73 1751 1894.67C1752.2 1890.27 1753.8 1884.93 1754.47 1882.8C1755.13 1880.67 1755.67 1873.2 1755.67 1866.13C1755.67 1856.27 1755.13 1852.53 1753.27 1849.73C1750.73 1845.6 1736.2 1834 1733.67 1834C1732.73 1834 1731.27 1833.07 1730.33 1832C1728.87 1830.27 1730.6 1830 1745.27 1830C1755.67 1830 1764.6 1829.2 1769.4 1828C1773.67 1826.93 1781.8 1826 1787.53 1826C1802.73 1826 1810.6 1823.2 1819 1814.8C1826.6 1807.33 1829.53 1802 1831.67 1792.4C1832.6 1788.13 1833 1603.87 1833 1220.4C1833 601.6 1833.4 637.467 1825.4 623.067C1820.87 615.067 1812.6 608.133 1805.27 606C1802.6 605.333 1796.6 604.667 1792.07 604.667C1787.53 604.667 1779.13 603.733 1773.4 602.667C1764.73 601.067 1746.87 600.667 1667.4 600.667H1571.67V594.8C1571.67 582.4 1565.4 572 1555 567.2C1550.07 564.933 1545.4 564.667 1494.6 564.667C1451 564.667 1439.53 565.067 1439.93 566.267ZM1619 1082.93C1621.93 1093.2 1624.07 1096.27 1629.93 1098.67C1640.73 1103.2 1644.6 1110.27 1646.33 1128.4C1647 1135.47 1649.13 1147.87 1651 1155.87C1656.2 1178.13 1661 1205.73 1661 1212.93C1661 1220 1655.93 1242 1654.33 1242C1653.8 1242 1652.6 1240.27 1651.67 1238.13C1649.67 1233.07 1641.4 1224.8 1637.4 1223.87C1634.47 1223.07 1634.33 1222.67 1635.27 1216.8C1636.6 1209.07 1636.07 1180.8 1634.33 1165.87C1632.47 1150.27 1629.67 1141.73 1624.73 1136.4C1615 1126.27 1612.33 1118.93 1615.67 1112.67C1616.6 1111.07 1616.33 1105.2 1614.87 1094.67C1613.8 1086 1613.13 1078.13 1613.53 1077.2C1615 1073.47 1616.87 1075.47 1619 1082.93ZM1570.2 1223.87C1578.6 1241.33 1579.13 1256.67 1571.67 1272.27C1569 1278 1567.13 1284.53 1566.6 1290C1565.8 1297.87 1565.27 1298.8 1561.13 1301.6C1555.53 1305.33 1547.53 1307.6 1541.93 1307.07C1538.07 1306.67 1537.13 1305.6 1531.93 1296C1528.87 1290.13 1524.2 1282.27 1521.8 1278.53L1517.27 1271.87L1523.53 1268.53C1537.53 1261.07 1543.13 1253.07 1544.47 1237.87C1545.27 1230.13 1546.07 1227.47 1548.87 1224.53C1552.33 1220.8 1561.67 1215.33 1564.47 1215.33C1565.4 1215.33 1567.93 1219.2 1570.2 1223.87ZM1642.47 1233.73C1653.93 1245.87 1657.53 1269.07 1651.8 1294.13C1646.33 1318 1641.67 1381.07 1642.73 1415.87C1643.53 1443.47 1645 1454.93 1652.6 1492.8C1656.6 1512.93 1657.27 1518.13 1655.93 1519.73C1649.67 1527.2 1593.67 1535.47 1546.33 1535.87C1524.87 1536 1521.13 1535.73 1518.07 1533.73C1512.07 1529.87 1511.27 1523.47 1512.33 1492.67C1513.13 1468.8 1513.53 1464.93 1515.8 1462.13C1523 1453.07 1527.53 1412.4 1521.53 1410.4C1520.6 1410.13 1519.8 1415.07 1519.27 1425.6C1518.47 1441.87 1515.8 1453.47 1511.53 1459.47C1508.07 1464.27 1491.53 1469.2 1481 1468.4C1470.73 1467.6 1465.13 1463.47 1459.53 1451.87C1455.13 1443.07 1455.13 1443.07 1456.73 1432.67C1457.53 1427.07 1460.6 1414.93 1463.53 1405.87C1472.6 1377.87 1475.67 1366.13 1477 1353.6C1478.47 1340.93 1481.53 1332.27 1485.8 1328.4C1487.27 1327.07 1493.67 1324 1500.07 1321.33C1506.47 1318.8 1515 1314.53 1519.13 1312C1527.53 1306.53 1530.33 1306.27 1535.67 1310.13C1540.6 1313.87 1548.87 1312.8 1560.6 1307.2C1567.27 1304 1569.13 1302.4 1570.33 1298.8C1571.13 1296.27 1571.53 1293.73 1571.4 1292.93C1571.13 1292.13 1576.47 1285.87 1583 1279.07C1598.33 1263.2 1615.27 1244.4 1621 1236.67C1623.4 1233.33 1626.47 1229.87 1627.53 1228.93C1630.87 1226.13 1637.13 1228.13 1642.47 1233.73ZM1645 1541.2C1645 1543.33 1642.07 1544.13 1631.4 1545.47C1619.93 1546.8 1620.33 1546 1622.2 1564.93C1623.13 1573.87 1624.2 1582.4 1624.6 1583.73C1624.87 1585.07 1629.4 1588.13 1634.47 1590.8L1643.8 1595.47L1649.67 1591.33C1656.2 1586.93 1658.33 1586.4 1658.33 1589.33C1658.33 1590.4 1655.13 1593.47 1651.13 1596.13L1643.93 1600.93L1632.47 1595.2C1626.2 1592.13 1620.73 1588.67 1620.33 1587.47C1619.67 1585.2 1615.67 1552 1615.67 1548.67C1615.67 1544.53 1618.47 1542.8 1627.27 1541.2C1639.93 1538.93 1645 1538.93 1645 1541.2ZM1589.53 1548.13C1591.27 1549.73 1591.53 1552.67 1590.87 1564.4C1589.53 1592 1589.13 1592.93 1577 1601.47C1570.2 1606.13 1567.4 1607.33 1563.13 1607.2C1555.8 1607.2 1535.67 1597.2 1533.4 1592.67C1532.33 1590.53 1531.67 1582.67 1531.67 1570.53C1531.67 1546.8 1531.8 1546.67 1547.93 1547.6C1554.07 1547.87 1563.8 1547.87 1569.67 1547.33C1587 1545.87 1587.4 1545.87 1589.53 1548.13ZM1613 1602.67C1613 1608.93 1611.67 1615.07 1608.33 1625.33C1605.27 1634.4 1603 1644.53 1602.07 1653.33C1600.6 1666.53 1600.6 1667.87 1603.53 1676.93C1620.73 1730.93 1645.27 1779.87 1671.27 1811.87C1674.73 1816.13 1678.47 1820.8 1679.53 1822.13C1681.27 1824.53 1679.93 1824.67 1633 1824.67H1584.6L1585.53 1801.6C1587.27 1758 1589.4 1729.07 1595 1676.67C1598.87 1640.67 1599.8 1635.07 1603.67 1624.4C1605.93 1618.4 1607.93 1609.6 1608.47 1604.8C1609.4 1594.13 1609.93 1592.27 1611.67 1593.33C1612.33 1593.73 1613 1598 1613 1602.67ZM1718.47 1820.67C1719.8 1821.47 1721 1823.07 1721 1824.13C1721 1825.2 1721.8 1827.73 1722.87 1829.87C1724.73 1833.33 1724.6 1833.6 1721 1835.73C1719 1836.93 1715.53 1840.8 1713.53 1844.27L1709.93 1850.53L1707.4 1844.8C1706.07 1841.47 1703.93 1838.8 1702.33 1838.4C1696.2 1836.8 1702.2 1823.87 1710.33 1821.07C1712.87 1820.13 1715.13 1819.47 1715.4 1819.47C1715.67 1819.33 1717 1820 1718.47 1820.67ZM1735.13 1839.87C1737.53 1841.73 1737.53 1841.87 1734.2 1843.2C1727.4 1845.73 1725.53 1849.87 1723.93 1866.53C1723.13 1875.07 1721.93 1882.8 1721.4 1883.87C1720.87 1884.8 1717.8 1888.53 1714.6 1892.13L1708.87 1898.53L1709.27 1892C1709.67 1885.6 1709.8 1885.33 1715 1883.87C1722.47 1881.87 1722.2 1878.53 1714.73 1879.07C1707.27 1879.6 1706.73 1876.13 1713.93 1874.4C1717.13 1873.73 1719.13 1872.4 1719.4 1870.8C1719.8 1868.67 1719.27 1868.53 1714.47 1869.33L1709 1870.27V1865.07C1709 1861.2 1710.47 1857.73 1715.27 1850.67C1718.6 1845.47 1722.47 1840.67 1723.53 1839.73C1726.47 1837.47 1731.93 1837.6 1735.13 1839.87ZM1739.13 1849.33C1733.27 1852.4 1732.07 1854.93 1731.13 1866.4C1729.53 1884.93 1728.07 1889.33 1720.73 1897.73C1717 1901.87 1712.6 1908.27 1710.87 1912C1708.33 1917.73 1707.8 1918.13 1707.8 1915.07C1707.67 1909.47 1709.67 1905.47 1717.67 1896.13C1721.67 1891.33 1725.67 1885.87 1726.33 1884C1727 1882.13 1728.2 1874.27 1729 1866.4C1730.47 1850.53 1732.2 1847.33 1738.87 1847.33H1743L1739.13 1849.33ZM1749.53 1854.8C1756.47 1861.6 1746.2 1905.07 1734.33 1919.47C1730.07 1924.67 1722.73 1927.47 1717 1926C1714.07 1925.2 1713.67 1924.53 1713.93 1920.27C1714.33 1914 1716.87 1909.07 1723.67 1901.87C1726.73 1898.67 1730.07 1894.53 1731 1892.67C1732.87 1888.93 1735 1878.53 1736.33 1864.93C1737 1858.67 1737.93 1856.13 1740.07 1854.67C1743.8 1852.13 1747 1852.13 1749.53 1854.8ZM1579.67 1880C1579.67 1885.2 1579.13 1886.13 1575.67 1888C1573.53 1889.07 1569.67 1890 1567 1890C1563.27 1890 1562.07 1889.33 1561.13 1886.93C1560.07 1884.13 1559.13 1877.6 1559.53 1874.93C1559.67 1874.4 1564.2 1874 1569.67 1874H1579.67V1880ZM1586.33 1900.53C1588.6 1912.4 1588.33 1912.67 1573.13 1916.27C1565.27 1918.13 1557.27 1918.67 1537.4 1918.67C1523.4 1918.67 1511.4 1918.27 1510.87 1917.73C1509 1915.87 1513.8 1912.13 1524.33 1907.2L1535 1902.13L1539.4 1905.6C1542.87 1908.13 1544.2 1908.67 1545.4 1907.33C1546.6 1906.13 1546.2 1905.2 1543.8 1903.2C1541 1900.93 1540.87 1900.27 1542.47 1899.2C1545.13 1897.6 1545.53 1897.6 1549.4 1900.67C1552.6 1903.2 1557 1904.27 1557 1902.4C1557 1901.87 1555.67 1900.13 1554.07 1898.4C1551.53 1895.6 1551.4 1894.93 1553 1893.87C1554.07 1893.2 1556.87 1893.07 1559 1893.6C1565.8 1895.2 1575.13 1894.53 1578.47 1892.13C1580.2 1890.93 1582.2 1890.13 1583 1890.4C1583.67 1890.67 1585.13 1895.2 1586.33 1900.53ZM1589.67 1918C1591 1920.13 1583.8 1925.87 1578.47 1926.93C1575.8 1927.6 1559.8 1928 1542.73 1928C1515.13 1928 1511.53 1927.73 1509.4 1925.73C1508.2 1924.4 1507.4 1923.2 1507.8 1922.8C1508.07 1922.53 1514.33 1922.93 1521.67 1923.6C1537.93 1925.33 1567.67 1923.2 1579.13 1919.47C1588.73 1916.4 1588.6 1916.4 1589.67 1918Z" fill="black"/>
<path d="M1555.13 1223.6C1552.2 1227.87 1552.6 1235.07 1556.07 1241.2C1559.4 1247.2 1563.93 1249.47 1566.33 1246.67C1567.67 1245.07 1567.27 1244.4 1564.6 1243.2C1560.6 1241.33 1558.33 1236.8 1558.33 1230.67C1558.33 1225.73 1559.4 1224.93 1562.07 1227.6C1563.27 1228.8 1564.07 1228.8 1565.27 1227.6C1566.47 1226.4 1566.2 1225.47 1564.33 1223.33C1561.13 1219.87 1557.67 1220 1555.13 1223.6Z" fill="black"/>
<path d="M1556.2 1552.27L1537.4 1552.8L1536.6 1569.47C1536.07 1580.53 1536.33 1587.33 1537.27 1589.47C1539.13 1593.47 1557.13 1602.27 1563.4 1602.27C1567.93 1602.27 1581 1593.6 1583.53 1588.93C1584.2 1587.73 1585.13 1578.67 1585.67 1568.93L1586.6 1551.33L1580.87 1551.6C1577.67 1551.73 1566.6 1552.13 1556.2 1552.27Z" fill="black"/>
<path d="M1291.67 651.733C1291.67 653.867 1297 659.867 1300.6 661.733C1302.6 662.933 1320.33 663.333 1362.07 663.333C1420.6 663.333 1420.6 663.333 1425 660.267C1429.93 656.933 1432.73 653.2 1431.27 651.867C1430.73 651.333 1428.47 652.667 1426.2 654.8L1422.2 658.667L1365.27 659.067C1333.93 659.333 1306.47 659.067 1304.07 658.667C1301.8 658.267 1298.07 656.133 1295.8 654.133C1293.53 652 1291.67 650.933 1291.67 651.733Z" fill="black"/>
<path d="M9 658.533C9 660.4 12.7333 671.6 15.6667 678.667C16.2 680.133 17.4 683.467 18.3333 686C19.2667 688.533 20.8667 692.533 21.8 694.933C22.8667 697.2 23.6667 699.467 23.6667 699.867C23.6667 700.267 25 703.6 26.4667 707.067C28.0667 710.533 30.2 715.467 31.2667 718C35 726.4 50.0667 757.067 55.4 766.667C80.8667 813.2 115.133 846.267 154.2 862C167.533 867.333 178.067 869.2 191.533 868.267C202.6 867.6 203.667 867.733 207.133 870.667C211.4 874 235.133 893.2 238.333 895.733C239.4 896.667 252.067 906.667 266.333 918.133C280.6 929.467 295.667 941.2 299.667 944.133C303.667 946.933 309.133 951.333 311.667 953.733C314.2 956.133 320.867 961.6 326.333 965.733C336.333 973.2 337.933 974.533 344.733 980.267C346.733 982 349.267 983.333 350.333 983.2C352.067 983.2 352.067 983.067 350.467 982.4C349.4 982 347.267 980.4 345.667 978.8C339.8 972.933 325.667 961.067 317.133 954.667C305.133 945.733 285 928.267 285 926.8C285 926.267 288.2 921.733 292.067 916.8C295.8 912 299.667 907.067 300.6 906C303 903.067 311.4 892.8 316.733 886.267C319.267 883.2 322.067 880.667 322.867 880.667C323.8 880.667 328.467 884 333.4 888.133C338.333 892.133 342.333 895.067 342.333 894.4C342.333 893.067 318.867 870.133 301 854C294.067 847.733 282.467 836.933 275.133 829.867C267.667 822.8 259.533 815.2 256.867 812.933C252.333 809.067 251.933 808 251.133 799.067C248.867 775.867 239.4 757.733 217.933 736.133C199.667 717.6 186.467 707.867 165.133 697.467C152.867 691.467 129.267 682 126.6 682C125.667 682 123.933 681.467 122.6 680.667C120.2 679.333 102.2 674 91 671.467C87.4 670.533 82.2 669.333 79.6667 668.667C77.1333 668 73.2667 667.067 71 666.667C68.8667 666.267 64.6 665.333 61.6667 664.8C51.5333 662.667 24.3333 658.267 16.7333 657.333C10.3333 656.667 9 656.8 9 658.533ZM255.4 816.8C259.533 820 281.133 839.6 295.667 853.467C301.133 858.667 308.867 865.867 312.733 869.333C316.467 872.933 319.667 876.4 319.667 877.2C319.667 878 317.667 880.8 315.267 883.333C312.867 885.867 304.467 896 296.467 905.6C288.467 915.333 281.4 923.333 280.6 923.333C279.533 923.333 231 885.067 225.8 880.133C225 879.333 221.4 876.267 217.667 873.333C210.467 867.6 209 866 209 864C209 863.2 211.933 859.333 215.4 855.2C218.867 851.067 227.933 840.133 235.667 830.8C243.4 821.6 250.2 814 250.733 814C251.4 814 253.533 815.2 255.4 816.8Z" fill="black"/>
<path d="M1605.67 721.2C1600.07 723.6 1594.73 730.267 1593 736.8C1592.07 740.267 1591.67 753.867 1591.93 773.733C1592.33 804.533 1592.47 805.467 1595.67 811.2C1597.93 815.2 1601 818.133 1604.87 820.267C1610.6 823.2 1611.8 823.333 1644.07 823.333C1675.4 823.333 1677.8 823.2 1683.4 820.533C1686.87 818.8 1690.6 815.467 1692.73 812.267L1696.33 806.933L1696.73 774.533C1697.27 739.467 1696.47 734.133 1690.73 727.2C1684.47 719.733 1681.93 719.333 1644.07 719.333C1618.47 719.467 1608.6 719.867 1605.67 721.2ZM1681.13 726C1691.53 731.333 1691.8 732.667 1691.4 772C1690.87 820.667 1693.53 818 1644.33 818C1605.93 818 1605 817.733 1599.8 808.667C1597.13 804 1597 801.6 1597 771.467C1597 747.067 1597.4 738.133 1598.87 734.8C1600.73 730.267 1606.33 725.467 1611 724.267C1612.47 724 1627.67 723.6 1644.73 723.467C1673.53 723.333 1676.2 723.467 1681.13 726Z" fill="black"/>
<path d="M1664.6 752.933C1660.73 759.067 1653.13 771.067 1647.8 779.6C1642.47 788.267 1637.53 795.333 1637 795.333C1636.33 795.333 1633.13 788.133 1629.67 779.333C1626.2 770.533 1622.87 763.067 1622.2 762.533C1618.73 760.533 1620.07 767.6 1625.8 782.667C1631.13 796.667 1632.73 799.6 1635.4 800.267C1637.53 800.8 1639.4 800.267 1641 798.533C1645.27 794.133 1675.67 744.4 1674.87 743.2C1673.27 740.533 1671.27 742.4 1664.6 752.933Z" fill="black"/>
<path d="M1605.53 871.333C1593.4 877.467 1591.67 883.6 1591.67 921.333C1591.67 952.667 1592.47 958.267 1597.93 964.667C1604.47 972.533 1605.53 972.667 1644.33 972.667C1683.13 972.667 1684.2 972.533 1690.87 964.667C1696.6 957.733 1697.27 953.067 1696.73 918.667C1696.33 882.267 1695.53 879.333 1685.93 872.933L1680.6 869.333L1645.8 868.933C1613 868.667 1610.73 868.8 1605.53 871.333ZM1681.53 876C1683.93 877.2 1687.13 880.4 1688.73 883.2C1691.53 888.133 1691.67 890 1691.67 921.6C1691.67 954 1691.53 955.067 1688.6 959.467C1682.73 968.267 1680.33 968.8 1643 968.4C1595.27 967.867 1597 969.733 1597 920.4C1597 890.4 1597.27 887.733 1599.67 883.6C1601.13 881.2 1604.2 878.133 1606.6 876.667C1610.73 874.267 1613.4 874 1644.07 874C1671.13 874 1678.07 874.4 1681.53 876Z" fill="black"/>
<path d="M1654.33 919.333C1645.13 934 1637.27 946 1636.87 946C1636.47 946 1633.13 938.533 1629.67 929.333C1625.8 919.2 1622.6 912.667 1621.53 912.667C1618.6 912.667 1619.27 916.267 1625.8 932.933C1631.93 948.533 1634.6 952.133 1638.87 950.533C1640.73 949.733 1674.07 898 1674.73 894.933C1674.87 894.133 1674.07 893.333 1673 893.067C1671.53 892.667 1665.67 900.933 1654.33 919.333Z" fill="black"/>
<path d="M1228.07 909.333C1219.27 913.067 1215.8 924.933 1221 933.333C1226.2 941.733 1219.13 941.333 1354.47 941.733C1451.53 942 1479 941.733 1483.13 940.4C1497.27 935.733 1498.2 916.133 1484.6 909.867C1479.27 907.467 1474.07 907.333 1355.67 907.467C1252.73 907.467 1231.67 907.733 1228.07 909.333ZM1486.47 916.533C1492.07 922.133 1491.27 928.8 1484.47 934.267C1481.8 936.4 1473.13 936.667 1357.27 936.667C1221.27 936.667 1226.73 936.933 1224.07 929.067C1223.27 926.933 1223.27 923.6 1223.93 921.067C1226.33 912.133 1217.8 912.667 1356.73 912.667H1482.6L1486.47 916.533Z" fill="black"/>
<path d="M355.4 988.667C357.8 990.8 360.334 992.667 361.134 992.667C363 992.667 354.334 984.667 352.467 984.667C351.8 984.667 353.134 986.4 355.4 988.667Z" fill="black"/>
<path d="M1600.2 1021.87C1593.13 1026.13 1591.67 1032.27 1591.67 1058C1591.67 1079.73 1591.8 1080.67 1594.33 1080.67C1596.87 1080.67 1597 1079.73 1597 1057.2C1597 1031.07 1597.93 1027.33 1605.4 1024.67C1610.87 1022.8 1677.93 1022.93 1683.53 1024.8C1690.2 1027.2 1691 1029.73 1691.67 1056C1692.2 1076.13 1692.6 1080 1694.33 1080C1696.07 1080 1696.33 1076.4 1696.33 1055.33C1696.33 1017.73 1698.73 1019.33 1644.07 1019.33C1607.4 1019.33 1604.07 1019.6 1600.2 1021.87Z" fill="black"/>
<path d="M1187 1359.2C1178.2 1362.93 1174.33 1375.47 1179.53 1383.73C1181 1386.13 1183.8 1388.93 1185.67 1389.73C1188.2 1390.93 1205 1391.33 1244.47 1391.33C1305.13 1391.33 1305.53 1391.33 1309.67 1383.33C1310.73 1381.2 1311.67 1377.07 1311.67 1374C1311.67 1369.73 1310.73 1367.6 1307.13 1363.6L1302.6 1358.67L1246.07 1358.4C1215 1358.27 1188.47 1358.67 1187 1359.2ZM1303.27 1366.27C1307.13 1370.53 1308.2 1374.93 1306.2 1379.47C1303 1387.2 1302.33 1387.33 1243.93 1387.33C1191.67 1387.33 1190.6 1387.33 1187.13 1384.53C1181.93 1380.4 1180.6 1376.13 1182.87 1370.8C1183.93 1368.27 1185.8 1365.6 1187.27 1364.8C1188.87 1363.87 1208.2 1363.47 1245.13 1363.33H1300.6L1303.27 1366.27Z" fill="black"/>
<path d="M423.667 1820.53C423.667 1822.53 463.934 1836.53 487 1842.67C491.4 1843.87 500.467 1846.27 507.134 1848.13C529.534 1854 569.8 1861.87 595.667 1865.2C628.067 1869.47 646.734 1870.53 685.667 1870.4C721.934 1870.4 752.067 1868.8 754.067 1866.8C754.467 1866.27 754.2 1865.33 753.4 1864.53C752.467 1863.6 744.734 1863.6 727.534 1864.8C697.8 1866.67 641.934 1865.73 614.334 1862.67C590.467 1860 555 1854.67 533 1850.27C512.867 1846.27 461.534 1831.2 438.467 1822.53C429.8 1819.2 423.667 1818.4 423.667 1820.53Z" fill="black"/>
<path d="M479.001 1876.67C478.067 1878.13 482.734 1880.4 491.001 1882.27C493.934 1882.93 498.734 1884 501.667 1884.8C513.001 1887.47 517.401 1887.87 516.734 1885.87C516.334 1884.8 510.334 1882.53 502.201 1880.4C483.134 1875.6 480.067 1875.07 479.001 1876.67Z" fill="black"/>
<path d="M826.2 1890.67C825.933 1890.93 815.267 1892.67 802.733 1894.53C725.133 1906.13 646.733 1906 567.133 1894C561 1893.07 557.4 1893.07 556.6 1893.87C555 1895.47 556.467 1896.13 565 1897.33C568.333 1897.73 575.267 1898.67 580.333 1899.47C585.533 1900.27 594.733 1901.33 601 1902C607.267 1902.67 619.8 1903.87 629 1904.8C650.867 1907.07 728.333 1907.07 750.333 1904.8C797.933 1900 829 1895.2 829 1892.67C829 1891.33 827 1889.87 826.2 1890.67Z" fill="black"/>
</svg>
