<svg width="1875" height="1950" viewBox="0 0 1875 1950" fill="none" xmlns="http://www.w3.org/2000/svg">
<path d="M410.52 1.91671C406.92 2.98338 401.72 4.45005 399.186 5.11671C396.653 5.78338 384.92 9.11671 373.186 12.45C361.453 15.7834 349.453 19.1167 346.52 19.9167C343.586 20.7167 339.72 21.9167 337.853 22.45C335.986 22.9834 331.853 24.1834 328.52 25.1167C325.186 26.05 319.853 27.5167 316.52 28.45C313.186 29.3834 307.853 30.85 304.52 31.7834C301.186 32.7167 297.186 33.9167 295.453 34.5834C293.72 35.25 290.92 35.7834 289.186 35.7834C287.453 35.7834 285.72 36.3167 285.32 36.9834C284.92 37.65 282.653 38.45 280.253 38.85C277.853 39.25 272.52 40.45 268.52 41.7834C258.92 44.7167 252.92 46.3167 247.186 47.7834C244.653 48.45 240.12 49.65 237.186 50.45C234.253 51.25 229.72 52.45 227.186 53.1167C224.653 53.7834 219.186 55.25 215.186 56.45C207.453 58.7167 199.72 60.7167 193.586 62.05C189.853 62.7167 187.586 66.5834 189.32 69.25C189.853 70.05 190.653 72.5834 191.186 74.9834C191.72 77.25 193.186 82.7167 194.52 87.1167C195.72 91.5167 197.32 97.25 197.986 99.7834C198.786 102.317 199.853 106.183 200.52 108.45C201.053 110.583 203.186 118.183 205.186 125.117C207.053 132.05 209.32 139.917 209.986 142.45C210.786 144.983 211.853 149.25 212.52 151.783C213.853 157.25 215.453 162.983 218.386 173.117C221.053 182.05 225.72 198.85 227.186 205.117C228.52 210.45 229.986 215.917 233.186 226.45C234.386 230.45 235.853 235.917 236.52 238.45C237.186 240.983 238.253 245.25 239.053 247.783C239.72 250.317 240.92 254.583 241.72 257.117C242.386 259.65 243.853 265.117 245.053 269.117C247.053 275.917 251.053 290.317 254.12 301.117C254.786 303.65 255.853 307.917 256.52 310.45C257.053 312.983 258.92 319.65 260.52 325.117C262.12 330.583 263.986 337.517 264.786 340.45C267.186 349.383 268.253 353.383 271.053 363.117C274.653 376.183 277.853 387.517 279.453 393.783C281.986 403.383 283.053 406.983 286.52 417.383C288.386 422.983 289.853 428.85 289.853 430.45C289.853 432.05 290.386 432.983 291.053 432.583C292.12 431.917 291.32 425.783 288.653 415.783C286.253 406.85 281.986 391.117 279.853 383.117C275.453 367.383 270.253 348.317 265.32 329.783C263.32 322.45 260.253 311.383 258.52 305.117C256.786 298.85 253.453 286.583 251.186 277.783C248.92 268.983 238.253 230.317 227.72 191.783C195.853 76.45 193.453 67.7834 194.12 66.9834C194.92 66.3167 257.853 48.7167 377.853 15.7834C399.453 9.91671 417.853 4.85005 418.653 4.58338C419.586 4.18338 421.853 10.3167 424.52 20.1834C426.92 29.1167 429.186 37.1167 429.453 38.05C430.12 39.7834 431.186 39.5167 390.92 49.1167C370.253 54.05 361.853 56.5834 361.853 57.9167C361.853 58.9834 363.053 59.7834 364.386 59.7834C367.32 59.7834 427.986 45.5167 429.853 44.45C430.92 43.7834 434.253 53.3834 435.986 62.3167C436.92 66.85 439.986 65.65 407.186 73.7834C387.586 78.7167 384.253 80.05 386.653 82.3167C387.32 83.1167 396.52 81.5167 411.186 77.7834C423.986 74.45 435.453 71.7834 436.653 71.7834C438.12 71.7834 439.586 74.7167 441.72 81.9167C443.32 87.5167 444.52 92.1834 444.253 92.45C443.853 92.85 395.853 105.117 394.653 105.117C394.253 105.117 393.853 106.05 393.853 107.117C393.853 110.183 397.72 109.65 422.52 103.25C436.52 99.6501 445.453 97.9167 445.986 98.7167C447.453 101.117 452.786 122.583 452.12 123.25C451.586 123.917 401.586 135.783 399.72 135.783C399.453 135.783 399.186 136.717 399.186 137.783C399.186 140.717 402.653 140.317 429.586 133.917C442.92 130.85 454.12 128.583 454.386 128.983C454.653 129.383 456.386 135.383 458.253 142.05L461.586 154.45L456.786 155.65C454.12 156.45 444.386 158.85 435.186 161.117C408.786 167.65 408.52 167.783 408.52 169.783C408.52 172.717 410.786 172.317 438.12 165.383L463.053 158.983L466.52 171.65C468.386 178.583 469.453 184.583 468.92 185.117C468.386 185.65 454.786 189.117 438.653 192.85C422.653 196.583 408.92 200.183 408.12 200.983C404.12 204.983 411.186 204.317 435.853 198.317C450.52 194.85 464.653 191.517 467.186 191.117L471.986 190.183L474.386 200.45C476.253 208.317 476.386 210.983 475.186 211.783C474.386 212.317 463.32 215.383 450.786 218.45C438.12 221.65 427.32 224.717 426.52 225.25C425.853 226.05 425.853 226.983 426.786 227.917C427.72 228.85 435.586 227.383 453.053 222.983C466.653 219.517 478.12 216.983 478.52 217.383C478.92 217.783 480.52 222.45 481.986 227.917C483.453 233.383 484.92 238.85 485.32 240.05C486.12 242.583 487.453 242.183 454.92 249.783C438.92 253.517 433.853 255.117 433.853 256.717C433.853 259.383 436.786 258.983 465.053 252.45C476.653 249.783 486.52 248.05 487.053 248.717C488.253 250.05 493.853 269.383 493.853 272.05C493.853 273.25 485.853 275.783 469.72 279.783C443.053 286.45 441.72 286.85 444.12 289.25C445.32 290.45 451.32 289.517 470.52 284.583C484.253 281.117 495.586 278.45 495.853 278.717C497.053 279.917 502.92 303.783 502.12 304.317C501.586 304.583 489.853 307.383 476.12 310.583C455.853 315.117 451.186 316.717 451.586 318.317C452.12 320.983 452.386 320.983 480.52 314.583C494.386 311.383 504.12 309.783 504.52 310.45C505.72 312.45 510.253 330.45 509.72 330.85C509.453 331.117 494.52 334.717 476.52 338.983C458.52 343.25 443.32 347.25 442.52 347.917C441.853 348.717 441.853 349.65 442.653 350.45C443.586 351.383 453.72 349.517 473.986 344.583C490.386 340.583 505.72 336.983 507.853 336.583L511.986 335.65L514.786 346.317L517.586 357.117L513.32 358.183C511.053 358.85 499.986 361.65 488.653 364.583C470.653 369.117 465.186 371.517 467.453 373.917C467.853 374.317 479.453 371.783 493.186 368.317C513.32 363.25 518.386 362.45 519.186 363.783C520.786 366.317 524.786 382.717 523.986 383.383C523.72 383.783 512.653 386.717 499.586 390.05C475.72 396.05 472.253 397.383 474.52 399.65C475.32 400.45 484.52 398.85 499.186 395.117C511.986 391.783 523.453 389.117 524.52 389.117C525.986 389.117 527.586 392.717 529.986 401.383C533.053 412.45 533.186 413.917 531.32 414.717C530.12 415.25 518.386 418.183 505.186 421.117C481.186 426.583 477.453 427.917 479.986 430.45C480.786 431.25 490.786 429.517 507.586 425.65C522.12 422.183 534.253 419.783 534.653 420.183C534.92 420.45 536.52 425.117 537.986 430.583C539.453 436.05 540.92 441.517 541.32 442.717C541.986 444.85 540.653 445.117 527.186 445.117C517.053 445.117 510.92 445.783 507.586 447.117C505.053 448.183 501.586 449.117 499.853 449.117C493.32 449.117 475.186 454.717 463.853 460.317C429.72 477.117 407.586 510.183 404.386 549.117C403.853 556.85 402.653 593.117 401.986 629.783C401.186 666.45 400.12 697.917 399.453 699.65C398.386 702.583 397.186 701.25 383.986 683.65C376.12 673.117 368.253 662.717 366.786 660.583C353.853 643.517 350.92 638.45 347.853 628.45C344.786 618.05 343.853 614.85 337.186 589.783C334.12 578.583 329.853 562.983 327.186 553.783C325.053 546.183 321.586 533.783 320.386 529.383C319.32 525.383 318.386 522.183 315.32 511.383C312.253 500.983 306.92 482.85 305.853 479.783C304.92 476.717 304.786 476.983 304.653 481.383C304.52 484.183 305.053 486.45 305.72 486.45C306.386 486.45 307.186 488.983 307.586 492.05C308.386 498.183 309.586 503.917 313.186 516.45C316.386 527.517 317.853 532.983 319.186 538.45C319.853 540.983 320.92 545.25 321.586 547.783C322.386 550.317 324.52 558.183 326.52 565.117C328.386 572.05 330.52 579.517 331.186 581.783C331.853 583.917 333.586 590.317 335.053 595.783C336.386 601.25 338.653 609.25 339.72 613.517C342.12 622.317 342.386 625.65 340.653 624.45C339.586 623.783 283.186 549.117 239.053 489.783C230.786 478.717 216.92 462.45 204.52 449.783C193.186 438.05 177.586 421.783 169.853 413.783C162.12 405.65 149.453 392.45 141.72 384.45C133.986 376.317 121.053 362.983 113.186 354.717C105.32 346.583 98.1197 339.783 97.1864 339.783C96.3864 339.783 83.9864 327.65 69.7197 312.85C17.0531 257.783 18.6531 259.383 14.1197 259.383C8.91973 259.383 3.85306 262.717 1.05306 267.917C-0.946936 272.05 -0.946935 272.05 8.7864 289.517C17.0531 304.05 28.9197 324.983 43.1864 349.783C53.1864 367.117 55.1864 371.117 55.1864 373.517C55.1864 375.117 56.3864 377.917 57.8531 379.783C59.3197 381.65 60.5197 383.517 60.5197 383.917C60.5197 384.45 69.4531 400.317 81.8531 421.783C85.4531 428.05 93.8531 442.583 96.7864 447.783C98.2531 450.317 104.12 460.583 109.853 470.45C120.12 488.183 123.186 493.65 128.653 503.383C141.453 526.183 151.853 541.25 191.32 593.783C215.986 626.717 244.786 664.85 255.053 678.45C265.453 692.05 278.253 709.117 283.453 716.45C288.786 723.783 295.453 732.717 298.253 736.45C301.053 740.05 307.586 748.85 312.92 755.783C318.12 762.717 322.786 768.717 323.186 769.117C323.586 769.517 326.253 773.117 329.186 777.117C332.12 781.117 334.786 784.717 335.186 785.117C335.586 785.517 336.92 786.983 337.986 788.583C340.12 791.65 349.32 802.85 352.92 806.583C354.12 808.05 354.92 809.117 354.52 809.117C353.853 809.117 366.786 827.517 368.52 829.117C368.92 829.517 370.786 831.917 372.786 834.45C374.653 836.983 377.453 840.45 379.053 842.05C380.653 843.65 381.853 845.517 381.853 846.183C381.853 846.717 382.92 848.45 384.253 849.917C385.453 851.25 388.92 855.65 391.72 859.65L396.786 866.85L395.853 899.517C395.32 917.383 394.52 933.65 393.986 935.517L393.053 938.85L388.253 934.583C380.52 927.783 379.72 929.917 387.186 937.25L394.253 944.183L393.32 978.317C392.786 997.117 392.12 1012.72 391.853 1012.98C391.453 1013.25 387.186 1010.45 382.253 1006.72C377.32 1002.98 372.92 1000.32 372.52 1000.72C371.853 1001.25 375.853 1004.98 387.186 1014.58L392.92 1019.38L391.32 1046.58C390.52 1061.52 389.853 1083.38 389.853 1095.12C389.72 1116.18 389.72 1116.58 386.12 1121.65C380.653 1129.52 378.653 1130.32 374.386 1126.45C371.32 1123.52 351.186 1094.32 351.186 1092.72C351.186 1091.25 329.186 1057.25 322.52 1048.45C312.786 1035.65 300.386 1023.92 288.786 1016.58C283.453 1013.25 278.786 1010.45 278.253 1010.45C277.72 1010.45 274.92 1009.25 271.986 1007.92C254.12 999.65 247.053 998.05 227.186 998.05C214.786 997.917 210.12 998.583 202.52 1000.98C177.32 1009.12 157.453 1025.38 139.32 1052.45C119.453 1081.92 106.52 1115.38 97.8531 1159.12C97.0531 1163.52 95.9864 1168.32 95.7197 1169.78C93.3197 1180.72 91.0531 1207.52 90.3864 1231.12C89.0531 1276.85 93.3197 1322.85 101.853 1358.45C102.653 1361.78 103.986 1367.12 104.653 1370.45C109.453 1391.78 120.653 1426.05 129.186 1444.45C139.853 1467.92 150.786 1487.92 162.786 1506.18C171.32 1519.25 184.786 1537.78 187.053 1539.78C187.453 1540.18 190.786 1544.05 194.386 1548.45C201.053 1556.45 222.653 1578.32 231.32 1585.78C250.253 1602.18 267.053 1614.72 283.586 1625.12C291.72 1630.32 295.186 1633.25 295.32 1635.12C295.32 1636.58 296.12 1648.05 297.053 1660.58C298.52 1682.05 298.92 1684.05 302.92 1692.18C307.853 1702.18 315.586 1709.78 326.253 1714.85C337.72 1720.45 344.386 1721.52 363.986 1720.85C381.32 1720.18 381.986 1720.18 383.453 1722.98C389.32 1734.05 402.52 1746.85 412.52 1751.25C414.386 1752.05 417.32 1753.38 419.186 1754.18C427.453 1757.78 444.386 1758.45 520.253 1758.45C563.32 1758.45 661.32 1758.45 738.253 1758.45H877.853V1767.25C877.853 1772.05 878.786 1788.98 879.986 1804.85C881.586 1827.12 882.653 1834.05 884.12 1835.12C885.453 1836.18 886.386 1840.05 886.786 1848.18C887.453 1857.92 887.186 1859.78 885.586 1859.78C880.386 1859.78 868.52 1884.32 863.053 1906.45C857.586 1928.18 856.92 1935.78 859.986 1940.98C863.72 1947.38 868.92 1948.45 894.786 1948.45C920.92 1948.45 922.386 1947.92 928.12 1936.98C931.586 1930.58 931.586 1927.38 928.12 1909.12C926.786 1902.05 926.386 1893.52 926.92 1880.32C927.586 1860.98 926.786 1857.52 922.52 1861.12C920.786 1862.58 920.52 1862.05 920.653 1858.32C920.786 1855.78 921.453 1849.92 922.386 1845.12C923.853 1836.72 923.986 1836.45 928.12 1836.05C931.586 1835.65 932.386 1834.98 932.786 1832.05L933.186 1828.45L1017.72 1828.58C1089.32 1828.72 1102.52 1828.98 1103.32 1830.58C1103.85 1831.65 1104.92 1835.92 1105.85 1840.05C1107.05 1846.45 1107.99 1847.92 1110.52 1848.58C1113.99 1849.38 1114.52 1851.52 1115.99 1868.85C1116.79 1878.18 1116.52 1879.78 1114.79 1879.78C1109.32 1879.78 1104.65 1899.52 1104.52 1922.58C1104.52 1941.78 1105.85 1945.25 1114.92 1947.78C1117.99 1948.58 1143.19 1949.12 1180.92 1949.12C1247.85 1949.12 1246.52 1949.25 1249.85 1941.12C1252.12 1935.52 1249.72 1929.25 1241.59 1920.45C1233.05 1910.98 1221.45 1903.38 1197.85 1891.65C1175.32 1880.45 1169.99 1878.45 1163.05 1878.45H1157.85V1870.58C1157.85 1866.32 1157.45 1860.05 1157.05 1856.72C1156.25 1851.38 1156.52 1850.32 1159.59 1847.52C1162.39 1844.85 1163.05 1842.85 1163.45 1836.32L1163.85 1828.45L1298.52 1828.18C1372.65 1827.92 1434.12 1827.38 1435.19 1826.85C1440.52 1824.45 1415.32 1823.92 1294.52 1823.92L1163.85 1823.78L1163.72 1768.72C1163.59 1716.45 1161.99 1664.18 1159.05 1620.45C1158.39 1609.38 1157.19 1591.38 1156.52 1580.45C1154.39 1546.18 1150.52 1495.78 1148.65 1475.12C1147.85 1466.98 1146.65 1452.58 1145.85 1443.12C1143.99 1420.45 1141.45 1395.65 1135.72 1341.78L1131.05 1297.78L1140.39 1288.32C1153.05 1275.38 1154.92 1268.45 1151.99 1245.52L1151.32 1241.25L1242.25 1240.85L1333.19 1240.45L1337.45 1237.38C1346.25 1231.12 1346.25 1216.45 1337.45 1209.92C1333.72 1207.12 1332.65 1207.12 1241.32 1206.72L1148.92 1206.45L1147.99 1201.38C1147.59 1198.72 1147.19 1193.92 1147.19 1190.98C1147.19 1185.52 1147.32 1185.38 1152.79 1184.58C1155.85 1184.05 1161.99 1181.92 1166.39 1179.78C1191.85 1167.65 1202.65 1144.18 1199.05 1108.72C1198.39 1101.25 1197.45 1094.05 1197.05 1092.85C1196.39 1090.72 1199.32 1090.58 1236.39 1090.18L1276.52 1089.78L1280.65 1085.65C1288.65 1077.65 1286.65 1062.98 1277.19 1058.72C1274.79 1057.65 1261.05 1057.12 1231.85 1057.12H1189.99L1188.52 1051.38C1187.72 1048.32 1186.39 1043.38 1185.72 1040.45C1182.39 1026.98 1173.19 998.45 1167.99 985.25C1161.19 968.183 1152.79 955.65 1142.39 947.117L1134.92 941.117H1143.45C1155.59 940.983 1161.99 939.25 1166.12 934.583C1171.19 928.85 1172.12 922.717 1168.65 916.05C1163.99 906.983 1160.65 906.45 1110.25 906.45H1067.19V902.05C1067.19 897.917 1063.99 892.717 1060.65 891.65C1058.39 890.85 1061.99 874.583 1064.65 873.783C1065.85 873.383 1068.39 870.183 1070.39 866.583C1076.79 854.85 1074.52 838.45 1066.39 838.45C1062.52 838.45 1062.12 836.317 1065.85 835.117C1070.25 833.65 1076.39 824.983 1077.99 817.517C1079.32 811.65 1079.19 809.65 1077.32 804.717C1072.92 793.117 1064.12 789.25 1054.12 794.317C1047.05 797.917 1045.05 797.783 1036.39 793.917L1029.19 790.583H1214.79C1423.59 790.45 1405.85 791.383 1411.32 780.183C1413.59 775.517 1413.72 773.783 1412.65 769.517C1411.85 766.583 1409.72 762.85 1407.72 760.983L1404.25 757.783L1207.45 757.383C1099.19 757.117 1007.99 757.383 1004.92 757.783C1001.05 758.317 997.853 759.917 995.186 762.583C991.72 766.183 991.186 767.65 991.186 774.05C991.186 780.717 991.586 781.917 995.72 785.65L1000.12 789.917L993.986 792.183C984.786 795.383 979.053 799.783 974.786 806.717C967.586 818.45 968.52 840.183 977.32 859.25C980.653 866.583 980.92 869.117 982.253 894.717C982.92 909.917 983.186 923.783 982.653 925.65C981.986 928.583 980.92 928.983 974.12 929.65C961.72 930.983 939.586 936.717 930.786 940.85C926.253 942.983 918.52 947.517 913.453 950.85C908.52 954.317 904.386 957.117 904.12 957.117C903.986 957.117 904.12 883.517 904.52 793.517L905.186 629.783L908.786 623.517C913.453 615.65 920.52 609.783 929.586 606.45C936.386 603.917 940.253 603.783 1043.85 603.783H1151.19V634.983C1151.19 667.917 1151.85 672.717 1157.99 681.25C1159.45 683.383 1163.19 686.45 1166.25 688.183L1171.85 691.117L1301.45 691.517C1405.72 691.783 1431.72 691.517 1434.12 690.183C1436.65 688.717 1414.12 688.317 1304.39 687.783L1171.72 687.117L1166.65 683.783C1156.79 677.117 1156.52 675.917 1156.52 628.183C1156.52 580.583 1156.52 580.317 1166.25 572.583L1171.45 568.45L1228.79 568.05C1267.85 567.783 1286.65 568.05 1287.85 569.117C1291.19 571.917 1292.25 566.983 1292.92 545.117C1293.59 521.25 1295.19 514.183 1302.52 501.65C1313.99 482.05 1338.65 467.917 1361.19 467.917C1376.25 467.917 1395.19 475.25 1406.92 485.783C1414.52 492.717 1423.59 506.05 1426.12 514.05C1427.99 520.05 1429.05 521.117 1430.39 517.783C1432.12 513.117 1421.99 494.583 1412.52 485.117C1396.25 468.85 1373.59 461.65 1349.05 464.983C1338.39 466.45 1338.12 466.45 1329.32 462.45C1324.25 460.317 1319.45 458.45 1318.39 458.45C1317.32 458.45 1313.32 455.65 1309.59 452.05L1302.92 445.783L1195.19 445.383L1087.45 445.117L1086.92 420.05C1086.25 397.783 1085.85 394.05 1082.92 385.517C1081.05 380.317 1078.25 374.183 1076.65 372.05C1075.19 369.783 1073.85 367.383 1073.85 366.583C1073.85 363.517 1054.12 345.383 1045.59 340.583C1024.79 328.983 1026.12 329.117 905.453 329.117C802.253 329.117 796.92 329.25 782.52 333.517C762.52 339.25 743.586 355.25 733.986 374.583C726.12 390.583 724.653 398.05 724.52 423.383V445.117H709.186C700.786 445.117 693.853 444.983 693.853 444.717C693.586 442.983 689.453 396.85 688.52 384.45C686.786 362.45 683.986 330.317 679.853 284.45C676.386 246.583 673.32 210.45 671.32 183.783C669.453 160.183 666.92 148.983 662.92 146.317C661.986 145.65 655.853 129.783 649.853 111.783C649.186 109.917 645.986 100.983 642.786 91.7834C639.453 82.5834 635.186 70.5834 633.186 65.1167C631.32 59.65 629.186 53.9167 628.52 52.45C625.186 44.5834 623.986 39.5167 623.32 30.45C622.52 20.85 622.386 20.45 618.92 20.05C615.453 19.65 615.453 19.65 614.92 29.3834C614.386 37.65 609.986 56.1834 604.52 72.5834C603.853 74.85 603.186 77.7834 603.186 79.3834C603.186 80.85 602.786 82.45 602.253 82.9834C601.186 83.9167 600.386 87.1167 587.186 136.45C585.586 142.317 583.32 148.583 582.12 150.45C577.586 157.117 576.653 165.117 576.786 193.117C576.786 208.183 577.186 224.05 577.72 228.45C578.52 235.517 578.786 234.183 579.586 217.783C580.12 207.517 581.053 189.917 581.586 178.85C582.253 166.05 583.186 157.917 584.253 156.85C585.853 155.25 597.586 154.317 640.786 152.45L661.586 151.517L663.186 156.583C664.786 162.583 666.653 176.85 668.52 200.05C669.32 209.117 670.52 222.983 671.186 231.117C675.986 287.517 679.453 328.183 680.52 342.45C681.32 351.65 682.52 365.65 683.32 373.783C685.186 394.05 687.053 416.717 687.986 432.05L688.92 445.117H634.386H579.853L577.853 440.717L575.986 436.45L574.653 440.85L573.453 445.25L560.12 444.85L546.786 444.45L539.453 419.117C531.186 389.917 530.92 389.117 527.32 375.783C525.853 370.317 523.72 362.45 522.52 358.45C521.32 354.45 519.186 346.85 517.853 341.783C515.32 332.317 511.453 318.317 507.72 305.117C504.386 293.25 503.453 290.317 500.653 279.783C499.186 274.317 497.053 266.45 495.853 262.45C494.653 258.45 492.52 250.717 491.053 245.383C485.053 222.85 483.186 215.783 479.853 203.783C477.853 196.85 475.853 189.25 475.186 187.117C474.52 184.85 473.186 180.05 472.12 176.45C471.053 172.717 468.653 163.783 466.653 156.45C462.12 139.783 459.32 129.65 457.853 124.45C456.253 118.983 449.853 96.05 448.52 91.1167C447.986 88.85 446.12 82.5834 444.653 77.1167C443.053 71.65 440.386 61.65 438.52 55.1167C436.786 48.45 434.12 38.5834 432.653 33.1167C431.053 27.65 428.386 18.05 426.786 11.7834C423.32 -1.14996 422.52 -1.68329 410.52 1.91671ZM110.653 358.717C117.186 365.517 138.52 387.65 157.853 407.783C177.32 427.917 199.586 450.983 207.453 459.117L221.586 473.783L219.453 477.65C215.72 484.183 196.52 502.85 185.853 510.317C175.453 517.517 156.653 527.25 151.186 528.05C148.52 528.45 146.786 526.183 137.72 510.45C131.986 500.583 126.386 490.983 125.453 489.117C124.52 487.25 112.786 466.85 99.5864 443.783C65.9864 384.85 60.1197 374.45 60.6531 373.917C60.9197 373.783 65.4531 370.85 70.5197 367.517C75.7197 364.183 83.7197 358.05 88.5197 354.05C93.3197 349.917 97.5864 346.583 97.9864 346.583C98.3864 346.45 104.12 352.05 110.653 358.717ZM987.853 371.65C1000.79 377.517 1004.25 379.783 1010.39 385.783C1017.72 392.983 1024.79 404.983 1027.85 415.383C1028.92 418.85 1029.85 426.983 1029.85 433.383V445.117H901.186H772.52V436.05C772.653 424.317 775.32 412.317 779.986 402.85C787.186 387.917 806.253 372.85 821.053 370.317C824.12 369.783 861.986 369.517 905.186 369.517C968.786 369.783 984.653 370.183 987.853 371.65ZM495.853 456.717C495.32 458.05 494.386 461.25 493.72 463.783C493.053 466.317 492.52 554.183 492.52 659.117C492.52 840.717 492.653 850.317 495.053 861.917C505.053 910.717 541.853 948.85 590.52 961.25L602.52 964.317L749.586 964.717L896.52 965.25L889.986 973.917C881.72 984.85 872.52 1002.58 868.12 1016.45C864.12 1028.58 853.453 1076.85 851.32 1091.78C847.586 1118.05 846.786 1129.12 847.586 1144.32C848.92 1171.25 855.986 1191.52 868.12 1203.25L874.12 1209.12H741.453C650.12 1209.12 607.453 1209.52 604.386 1210.58C592.52 1214.32 583.186 1220.72 577.586 1228.72C568.52 1242.05 569.32 1219.38 568.52 1499.78L567.853 1753.78L509.853 1754.18C441.32 1754.58 428.12 1753.65 415.853 1747.92C406.12 1743.38 394.653 1733.25 390.12 1725.25L387.053 1719.92L390.786 1718.98C421.32 1712.18 440.386 1701.52 460.52 1680.18C476.253 1663.65 485.32 1646.58 490.92 1623.38C492.12 1618.85 492.52 1586.72 492.52 1512.05C492.52 1393.78 493.453 1353.12 495.853 1353.12C496.786 1353.12 500.12 1350.72 503.32 1347.92C508.92 1342.98 509.186 1342.45 509.053 1335.65C508.92 1329.65 505.72 1312.05 501.186 1291.12C500.786 1288.85 499.853 1284.05 499.053 1280.45C492.52 1245.25 488.386 1226.98 486.12 1222.58C484.786 1220.18 481.053 1216.58 477.853 1214.58L471.853 1211.12L432.253 1210.98C410.386 1210.98 392.386 1210.72 392.12 1210.32C391.32 1209.25 395.586 1014.58 398.253 925.117C399.453 888.85 400.653 842.317 401.053 821.783C401.986 778.583 403.986 698.183 405.853 631.117C406.653 605.383 407.186 575.783 407.186 565.117C407.186 545.783 408.786 534.45 413.053 522.717C422.653 496.45 439.853 476.85 463.853 464.85C471.186 461.117 484.52 456.317 489.853 455.383C496.386 454.317 496.786 454.317 495.853 456.717ZM1324.39 465.25C1328.12 466.85 1331.19 468.45 1331.19 468.983C1331.19 470.317 1315.45 479.65 1314.65 478.717C1314.25 478.317 1313.85 474.45 1313.85 470.183C1313.85 461.25 1314.25 461.117 1324.39 465.25ZM240.653 498.583C248.253 508.583 255.853 518.45 257.453 520.583C290.12 564.45 358.653 655.783 360.253 657.783C361.453 659.25 364.253 662.85 366.52 665.783C368.653 668.717 371.186 672.05 372.12 673.117C372.92 674.183 377.453 680.183 382.12 686.45C386.786 692.717 391.586 698.983 392.786 700.317C394.12 701.783 395.453 704.05 395.986 705.383C396.386 706.717 397.32 707.783 397.986 707.783C399.32 707.783 399.72 754.85 398.253 756.183C397.853 756.717 396.653 756.45 395.586 755.65C392.786 753.25 393.453 756.983 396.653 762.317C399.186 766.583 399.32 768.05 398.386 787.65C397.986 799.117 397.053 809.517 396.653 810.717C395.586 813.517 394.52 812.717 387.853 804.45C381.453 796.45 379.586 794.45 378.52 794.45C377.586 794.45 384.786 804.183 386.253 804.85C386.786 805.117 387.186 806.05 387.186 806.85C387.186 807.783 389.32 811.117 391.853 814.317L396.52 820.183V838.583C396.52 848.717 395.986 857.25 395.32 857.783C394.653 858.183 391.32 854.983 387.853 850.85C384.52 846.583 380.786 842.05 379.72 840.717C378.653 839.517 377.853 838.05 377.853 837.65C377.853 836.983 371.453 828.05 369.853 826.45C369.453 826.05 365.586 820.983 361.186 815.117C356.786 809.25 352.786 804.183 352.386 803.783C351.986 803.383 348.653 798.85 345.186 793.783C340.253 786.45 328.386 770.317 318.92 757.783C318.386 756.983 311.453 747.783 303.453 737.117C295.586 726.45 285.32 712.983 280.786 707.117C276.253 701.25 267.32 689.25 260.92 680.45C254.52 671.65 248.52 663.517 247.586 662.45C246.653 661.383 240.92 653.517 234.786 645.117C228.653 636.717 207.586 608.45 188.12 582.45C168.52 556.45 152.52 534.45 152.653 533.783C152.653 532.983 159.053 529.383 166.92 525.517C185.186 516.85 199.453 506.183 213.853 490.717C220.12 484.05 225.586 478.983 225.986 479.517C226.52 480.05 233.053 488.583 240.653 498.583ZM1404.65 764.983C1409.59 770.05 1409.99 777.117 1405.45 781.65C1402.52 784.583 1401.19 784.717 1373.85 785.517C1337.19 786.717 1164.39 786.717 1072.52 785.517L1001.32 784.717L998.253 781.65C992.786 776.183 995.053 765.383 1002.39 762.45C1003.85 761.783 1094.12 761.25 1202.92 761.25L1400.79 761.117L1404.65 764.983ZM1057.32 836.45C1058.12 836.717 1058.39 838.983 1058.12 841.783L1057.59 846.583L1055.05 842.583C1051.85 837.25 1044.65 836.717 1040.92 841.65C1038.65 844.45 1037.59 844.717 1030.52 844.183C1019.19 843.383 1018.25 842.983 1021.19 839.783C1022.52 838.317 1025.45 836.583 1027.72 835.917C1031.45 834.983 1053.72 835.383 1057.32 836.45ZM1003.72 846.45C1004.92 849.383 1005.85 852.717 1005.85 853.65C1005.85 854.583 1006.79 856.183 1007.85 857.117C1010.25 859.117 1013.85 856.85 1013.85 853.25C1013.99 848.183 1015.72 847.517 1026.39 848.45C1036.52 849.383 1036.52 849.383 1036.52 853.25C1036.52 862.85 1042.79 870.183 1049.32 868.583C1052.92 867.65 1057.85 860.717 1057.85 856.583C1057.85 855.117 1059.45 857.117 1061.45 861.117C1064.12 866.45 1064.52 868.45 1063.32 868.85C1059.05 870.317 1056.92 874.317 1056.12 882.317C1055.05 891.517 1053.85 894.717 1048.79 900.05C1046.12 902.85 1044.12 903.783 1040.25 903.783C1031.59 903.783 1017.59 899.65 1012.52 895.517C1009.99 893.517 1006.52 891.783 1004.65 891.783C1000.65 891.783 993.586 884.45 989.186 875.65C987.32 872.05 985.853 868.983 985.853 868.583C985.853 868.317 987.32 867.65 989.186 867.25C991.72 866.583 992.52 865.517 992.52 862.583C992.52 860.45 991.586 858.05 990.52 857.117C987.053 854.183 987.986 846.717 992.52 842.317C997.453 837.383 1000.52 838.583 1003.72 846.45ZM1051.99 847.25C1055.85 856.45 1048.79 868.717 1043.59 861.65C1039.99 856.583 1043.19 842.45 1047.99 842.45C1049.05 842.45 1050.92 844.583 1051.99 847.25ZM1069.05 845.917C1070.25 849.117 1069.99 859.517 1068.65 860.45C1066.65 861.65 1063.19 855.65 1063.19 851.117C1063.19 845.117 1067.32 841.383 1069.05 845.917ZM998.52 897.65C998.52 898.45 999.986 902.05 1001.85 905.783C1004.52 911.117 1005.19 914.983 1005.59 925.117C1005.72 932.05 1005.45 940.45 1004.92 943.783L1003.72 949.783L992.52 949.517C980.786 949.117 969.053 946.983 967.853 944.983C967.453 944.45 970.52 942.183 974.786 940.183C987.32 934.05 987.586 933.117 987.32 906.183L987.053 883.25L992.786 889.783C995.853 893.25 998.52 896.85 998.52 897.65ZM1010.92 900.183C1012.52 901.783 1015.59 907.25 1017.85 912.183C1020.12 917.117 1022.79 921.517 1023.85 922.05C1026.52 922.983 1044.92 910.85 1052.52 903.117C1060.39 895.117 1062.39 895.25 1061.32 903.383C1060.79 906.983 1060.25 912.183 1060.12 915.117C1059.85 918.05 1059.32 922.05 1058.65 924.05C1057.99 926.183 1058.25 929.517 1059.05 932.05C1061.99 940.85 1053.99 957.517 1043.32 964.717C1041.05 966.317 1036.25 968.717 1032.79 969.917C1029.32 971.25 1025.32 973.783 1023.72 975.517L1021.05 978.85L1011.59 972.45L1002.12 966.183L1005.32 959.25C1007.19 955.117 1009.05 947.117 1010.12 939.383C1012.25 922.45 1010.52 911.783 1003.45 898.05C1002.25 895.783 1008.25 897.383 1010.92 900.183ZM1028.25 907.117C1031.85 908.183 1032.12 911.917 1028.52 915.117C1025.32 917.917 1025.45 918.05 1022.65 911.25C1019.72 904.05 1019.19 904.45 1028.25 907.117ZM1162.39 915.917C1166.79 920.983 1166.79 926.45 1162.65 931.383C1159.45 935.117 1159.19 935.117 1142.65 935.517C1127.85 935.917 1124.79 935.65 1117.45 932.983C1110.52 930.583 1105.72 929.917 1087.19 929.517C1075.05 929.25 1064.52 928.717 1063.59 928.45C1062.25 928.05 1062.39 926.85 1063.72 923.517C1064.79 921.117 1065.32 917.517 1064.92 915.383L1064.25 911.783H1111.59H1158.92L1162.39 915.917ZM1105.32 935.117C1129.99 940.317 1147.85 954.05 1159.05 976.45C1171.05 1000.72 1188.79 1065.78 1193.99 1104.85C1199.05 1143.38 1186.52 1168.05 1156.52 1178.58C1143.72 1183.12 1124.25 1182.85 1107.85 1177.92C1081.59 1169.92 1052.92 1155.52 1020.92 1134.18C1011.32 1127.78 1002.79 1122.45 1001.99 1122.45C995.32 1122.45 1008.52 1132.98 1036.65 1150.18C1073.32 1172.45 1105.05 1184.85 1131.45 1187.25L1141.72 1188.18L1142.39 1192.98C1142.79 1195.65 1144.39 1213.38 1145.99 1232.45C1148.92 1266.45 1148.92 1267.25 1146.52 1272.45C1142.65 1280.58 1130.39 1292.05 1120.52 1296.72C1102.12 1305.52 1085.19 1305.78 1061.85 1297.78C1027.32 1285.92 972.253 1272.72 941.586 1268.98C925.986 1267.12 897.186 1267.92 892.786 1270.32C891.053 1271.25 889.32 1271.78 889.053 1271.38C888.52 1270.85 898.52 1232.32 901.986 1221.65C903.186 1217.65 903.586 1217.38 912.653 1216.85C926.52 1215.78 941.186 1208.18 953.853 1195.52C976.253 1173.12 992.786 1141.92 1009.19 1091.38C1014.79 1074.05 1017.32 1068.05 1018.39 1069.12C1021.59 1071.65 1050.92 1082.72 1063.05 1085.92C1085.72 1091.78 1097.72 1089.65 1108.12 1077.92C1115.05 1070.05 1118.25 1059.25 1117.59 1045.12C1117.32 1037.12 1116.79 1035.12 1115.05 1034.72C1113.19 1034.32 1112.92 1035.78 1113.05 1045.38C1113.19 1060.58 1110.79 1068.32 1103.19 1075.78C1093.19 1085.92 1085.72 1086.85 1063.19 1080.98C1055.32 1078.85 1020.25 1065.92 1017.99 1064.32C1017.72 1064.05 1019.45 1056.32 1021.72 1046.85C1025.45 1030.98 1029.32 1011.92 1032.25 994.717C1033.45 988.317 1033.19 987.25 1030.79 984.983C1029.32 983.65 1027.59 982.45 1026.92 982.45C1026.39 982.45 1026.52 980.983 1027.32 979.383C1028.39 977.117 1031.05 975.517 1036.25 973.783C1046.39 970.583 1057.59 959.517 1061.59 948.717C1063.19 944.45 1064.52 939.65 1064.52 937.917C1064.52 936.317 1064.92 934.45 1065.45 934.05C1067.05 932.317 1095.32 933.117 1105.32 935.117ZM970.12 936.717C965.986 938.183 964.253 939.65 963.72 942.05C961.72 949.65 968.92 952.983 988.92 954.05C995.986 954.45 1001.85 955.117 1001.85 955.65C1001.72 958.05 997.853 963.117 996.12 963.117C994.92 963.117 987.586 972.45 979.853 983.783C967.986 1000.98 955.453 1018.18 944.386 1032.05C942.386 1034.58 941.986 1034.58 939.053 1032.72C929.186 1026.18 906.653 1024.85 891.853 1029.92C877.853 1034.72 871.186 1040.98 871.186 1049.25C871.186 1057.78 878.653 1063.25 895.186 1067.12C900.653 1068.32 906.52 1070.05 908.12 1070.72C910.52 1071.92 911.853 1071.52 916.253 1068.05C931.986 1055.52 959.586 1022.45 982.52 988.45C989.053 978.85 994.786 970.583 995.32 969.917C996.12 968.983 1026.25 986.583 1027.85 988.983C1028.65 990.317 1018.79 1038.98 1013.85 1057.78C999.053 1114.58 979.053 1159.38 957.186 1184.98C938.92 1206.18 917.986 1215.52 896.92 1211.78C875.453 1208.05 862.653 1194.85 855.586 1169.12C852.12 1156.72 852.253 1110.32 855.72 1091.12C859.853 1068.45 870.786 1022.18 874.253 1013.12C889.586 972.317 915.986 947.783 954.52 937.917C968.52 934.45 978.92 933.517 970.12 936.717ZM252.92 1004.45C277.186 1010.45 299.453 1024.85 315.853 1045.12C320.12 1050.32 339.186 1078.18 339.186 1079.25C339.186 1079.65 340.253 1081.65 341.72 1083.52C343.053 1085.52 345.586 1089.78 347.453 1093.12C352.92 1102.85 364.386 1121.25 367.586 1125.25C369.186 1127.25 372.386 1129.92 374.653 1131.25C378.653 1133.52 379.053 1133.52 383.586 1130.58C386.12 1128.98 388.52 1128.18 388.786 1128.72C389.053 1129.25 388.92 1139.65 388.386 1151.78C387.853 1163.92 387.453 1181.92 387.32 1191.92C387.186 1207.25 386.786 1210.32 385.053 1210.98C383.853 1211.38 369.72 1211.78 353.453 1211.78C323.32 1211.78 318.92 1212.45 308.653 1217.65C304.653 1219.78 299.186 1225.65 296.92 1230.45C295.32 1233.78 292.92 1244.58 286.52 1277.12C281.32 1303.65 280.386 1308.18 279.186 1313.78C275.586 1329.78 275.186 1333.52 276.52 1338.32C278.52 1346.05 286.92 1352.72 296.52 1354.45C299.053 1354.85 301.053 1355.78 300.92 1356.58C300.92 1357.25 300.12 1370.32 299.32 1385.78C298.52 1401.12 297.053 1422.18 296.253 1432.45C295.053 1444.98 294.52 1480.18 294.52 1538.72C294.52 1586.98 294.253 1626.45 293.853 1626.45C291.853 1626.45 254.92 1600.18 243.453 1590.72C226.786 1576.98 198.386 1547.92 185.72 1531.52C117.586 1443.78 83.9864 1322.85 95.1864 1205.78C100.52 1151.12 110.52 1113.78 129.72 1077.12C161.32 1016.58 202.92 991.917 252.92 1004.45ZM930.386 1034.18C933.986 1035.52 937.32 1037.38 937.586 1038.32C937.853 1039.25 932.386 1045.78 925.32 1052.72L912.52 1065.38L905.586 1064.45C893.586 1062.85 882.653 1058.85 878.653 1054.58C875.053 1050.85 874.92 1050.32 876.52 1046.45C880.12 1037.65 894.386 1031.92 912.52 1031.92C919.986 1031.92 926.12 1032.72 930.386 1034.18ZM1276.39 1064.72C1282.12 1070.05 1282.39 1076.72 1277.19 1081.78L1273.99 1085.12H1234.79H1195.59L1193.99 1076.72C1193.19 1072.18 1192.12 1066.85 1191.59 1064.72L1190.92 1061.12H1231.72H1272.52L1276.39 1064.72ZM1335.72 1215.12C1340.65 1219.65 1340.52 1227.25 1335.45 1232.18L1331.72 1235.78H1241.45C1156.39 1235.78 1151.19 1235.65 1151.05 1233.38C1151.05 1232.18 1150.52 1226.72 1149.99 1221.38L1149.05 1211.78H1240.65H1332.12L1335.72 1215.12ZM889.32 1248.72C883.72 1268.45 881.72 1278.85 881.053 1290.85C880.253 1306.58 881.72 1311.52 889.72 1318.98C891.986 1321.12 893.586 1323.25 893.186 1323.65C892.92 1324.18 890.92 1333.65 888.653 1344.85C883.586 1369.92 878.653 1407.92 875.72 1443.12C871.72 1494.05 871.853 1654.18 876.12 1735.38L876.92 1751.78H738.653H600.52V1520.05C600.52 1268.18 600.253 1279.12 607.72 1267.78C611.72 1261.65 618.92 1254.72 623.853 1252.05C634.253 1246.58 633.72 1246.58 764.253 1246.58C883.453 1246.45 889.986 1246.58 889.32 1248.72ZM1106.39 1311.25C1107.45 1315.38 1117.59 1325.52 1123.05 1327.78C1125.59 1328.85 1127.19 1330.45 1127.19 1331.92C1127.19 1335.25 1126.39 1335.12 1118.39 1330.45C1110.25 1325.78 1100.52 1314.32 1100.52 1309.25C1100.52 1306.18 1105.59 1307.78 1106.39 1311.25ZM971.186 1319.52C971.186 1324.32 963.453 1336.85 955.853 1344.45C947.186 1353.12 935.586 1359.65 923.053 1362.85C918.653 1363.92 914.653 1364.32 913.72 1363.65C910.92 1362.05 913.186 1360.72 925.586 1356.72C944.92 1350.45 956.253 1340.98 964.52 1324.32C968.386 1316.32 971.186 1314.32 971.186 1319.52ZM489.586 1478.45C489.986 1622.45 489.853 1625.25 479.453 1645.92C470.92 1662.85 468.786 1665.92 457.853 1677.12C439.053 1696.18 420.12 1706.72 392.786 1713.38C376.653 1717.25 344.386 1717.52 334.253 1714.05C315.053 1707.38 303.986 1692.98 301.853 1672.05C299.72 1651.12 297.586 1551.92 298.52 1512.45C299.853 1448.85 304.52 1358.98 306.653 1355.52C307.053 1354.85 348.253 1354.58 398.253 1354.72L489.186 1355.12L489.586 1478.45ZM1049.59 1362.85C1049.85 1364.45 1048.52 1365.12 1044.12 1365.78C1036.65 1366.98 1030.52 1370.58 1027.45 1375.65C1026.12 1377.78 1023.99 1386.05 1022.65 1394.05C1020.39 1407.38 1020.39 1408.85 1022.39 1413.65C1025.32 1420.58 1034.65 1454.32 1039.72 1476.45C1042.39 1487.92 1045.19 1500.98 1046.92 1509.78C1047.59 1513.38 1049.45 1522.45 1051.05 1529.78C1055.19 1549.78 1057.72 1562.45 1060.52 1577.78C1061.19 1581.38 1062.65 1589.25 1063.85 1595.12C1068.25 1618.32 1069.99 1627.65 1071.85 1638.45C1072.25 1640.98 1073.32 1646.45 1073.99 1650.45C1074.65 1654.45 1076.25 1662.85 1077.32 1669.12C1082.52 1698.98 1083.32 1703.25 1085.72 1718.45C1086.39 1723.25 1088.65 1736.05 1090.52 1747.12C1092.52 1758.05 1094.65 1770.98 1095.32 1775.78C1096.12 1780.58 1097.19 1787.38 1097.85 1791.12C1098.39 1794.72 1099.59 1802.85 1100.39 1809.12C1101.19 1815.38 1102.12 1821.12 1102.52 1822.05C1102.79 1822.85 1101.45 1823.92 1099.45 1824.32C1094.39 1825.25 946.386 1825.25 939.453 1824.18L933.586 1823.38L934.386 1815.25C934.92 1810.85 935.853 1803.38 936.52 1798.72C937.186 1794.18 938.386 1786.05 939.186 1780.72C941.053 1768.85 942.52 1759.92 945.186 1745.12C946.253 1738.85 947.853 1730.18 948.653 1725.78C950.12 1717.25 950.12 1717.25 957.186 1680.45C963.186 1649.65 964.52 1642.98 965.853 1636.45C966.52 1633.52 967.32 1629.25 967.72 1627.12C968.12 1624.85 969.453 1618.85 970.52 1613.78C972.92 1603.25 977.586 1580.45 979.186 1572.45C980.786 1564.05 982.786 1554.72 985.72 1541.78C987.186 1535.12 989.053 1526.45 989.986 1522.45C991.586 1514.18 992.386 1510.85 997.186 1489.12C1002.65 1465.25 1002.92 1463.52 1004.52 1455.78C1005.32 1451.78 1006.52 1446.58 1007.19 1444.45C1009.32 1436.72 1015.05 1409.65 1017.99 1393.38C1021.85 1371.38 1025.85 1365.65 1039.99 1361.78C1047.59 1359.78 1049.05 1359.92 1049.59 1362.85ZM918.52 1840.72C918.12 1842.85 917.32 1847.78 916.786 1851.78L915.853 1858.98L908.786 1858.58C899.986 1858.18 893.853 1859.52 893.853 1861.78C893.853 1862.85 893.32 1864.05 892.52 1864.45C891.72 1864.98 891.186 1860.18 891.186 1851.25V1837.12H905.186H919.186L918.52 1840.72ZM1153.05 1850.72C1153.45 1852.45 1153.85 1859.38 1153.85 1866.05V1878.45L1150.25 1879.25C1143.32 1880.72 1140.52 1882.32 1140.52 1885.12C1140.52 1888.45 1140.12 1888.45 1130.52 1884.72L1122.52 1881.65L1120.92 1870.98C1120.12 1865.25 1119.32 1857.92 1119.32 1854.85L1119.19 1849.25L1132.25 1848.72C1139.32 1848.58 1146.79 1848.18 1148.65 1848.05C1151.32 1847.92 1152.39 1848.58 1153.05 1850.72ZM912.52 1867.38C912.52 1869.52 913.186 1872.05 913.853 1873.12C914.92 1874.72 915.72 1874.45 919.186 1871.12L923.186 1867.25V1887.25C923.186 1900.98 923.853 1909.78 925.32 1916.05C927.853 1926.32 927.186 1932.05 922.786 1938.58C919.986 1942.72 919.053 1943.25 910.52 1944.18C905.32 1944.85 893.72 1944.85 884.653 1944.45C869.72 1943.52 867.853 1943.25 864.92 1940.32C860.92 1936.32 861.053 1932.72 865.72 1914.32C869.986 1897.12 875.72 1881.52 881.186 1872.32L884.786 1866.05L888.12 1870.32C889.853 1872.58 891.986 1874.45 892.653 1874.45C893.32 1874.45 894.786 1872.05 895.986 1869.12C898.12 1863.78 898.253 1863.78 905.32 1863.78C912.253 1863.78 912.52 1863.92 912.52 1867.38ZM1192.52 1893.38C1227.99 1910.98 1245.85 1925.52 1245.85 1937.12C1245.85 1946.32 1235.32 1947.38 1165.19 1945.25L1114.52 1943.65L1111.32 1940.05C1108.25 1936.72 1108.12 1936.05 1108.79 1919.12C1109.59 1901.12 1112.52 1886.85 1115.99 1885.52C1116.92 1885.12 1122.92 1886.72 1129.19 1888.98C1143.45 1894.18 1144.52 1894.18 1144.52 1889.38C1144.52 1887.25 1144.92 1885.12 1145.45 1884.58C1146.12 1884.05 1152.79 1883.78 1160.52 1884.05L1174.52 1884.45L1192.52 1893.38Z" fill="white"/>
<path d="M224.52 589.917C224.52 591.65 280.653 668.05 284.52 671.784C284.92 672.184 289.853 678.717 295.586 686.45C316.653 714.984 322.52 722.317 324.386 722.45C325.32 722.45 325.853 721.65 325.453 720.717C325.053 719.784 313.986 704.584 300.92 686.984C287.853 669.517 265.72 639.917 251.986 621.384C238.12 602.984 226.386 587.784 225.72 587.784C225.053 587.784 224.52 588.717 224.52 589.917Z" fill="white"/>
<path d="M319.187 657.65C319.187 659.25 358.787 713.25 361.72 715.783C362.12 716.183 364.387 718.85 366.52 721.783C370.787 727.517 373.72 731.25 375.987 733.65C376.653 734.45 379.987 738.717 383.32 743.117C392.12 754.983 392.653 755.65 391.587 752.45C390.52 749.117 385.987 742.45 382.92 739.65C381.587 738.45 380.52 737.117 380.52 736.583C380.52 736.05 379.987 734.983 379.187 734.05C378.52 733.117 375.32 728.85 372.12 724.45C358.92 706.05 329.053 665.517 326.12 661.783C321.987 656.583 319.187 654.983 319.187 657.65Z" fill="white"/>
<path d="M242.653 1081.12C229.186 1086.32 219.586 1095.52 212.92 1109.92C207.986 1120.45 207.72 1136.45 212.386 1148.05C219.586 1166.32 237.453 1178.45 257.186 1178.45C274.253 1178.45 288.92 1170.32 298.92 1155.65C305.453 1145.92 307.586 1137.52 306.92 1124.05C306.253 1111.52 303.186 1103.38 295.586 1094.45C291.053 1088.98 280.253 1082.18 273.053 1080.05C265.053 1077.78 250.253 1078.32 242.653 1081.12Z" fill="white"/>
<path d="M186.52 1225.38C179.453 1227.92 175.853 1229.65 173.453 1232.05C170.253 1235.25 172.253 1235.12 180.12 1231.52C189.987 1227.12 207.987 1227.38 218.12 1232.05C234.387 1239.52 243.453 1253.92 244.253 1273.12C244.787 1286.18 241.987 1295.92 234.653 1305.52C225.587 1317.38 214.253 1323.38 198.253 1324.72C186.653 1325.78 172.787 1320.85 164.653 1312.85C155.053 1303.38 149.853 1291.38 149.987 1278.45C149.987 1271.25 152.387 1259.52 154.253 1257.65C154.787 1257.12 155.187 1255.12 155.187 1253.25L155.053 1249.78L152.787 1253.78C151.587 1255.92 149.853 1259.92 148.92 1262.45C146.787 1268.32 146.653 1287.78 148.653 1292.72C153.187 1303.52 154.92 1306.45 161.453 1313.38C172.387 1324.72 178.12 1326.98 195.32 1327.12C204.653 1327.12 210.787 1326.45 213.32 1325.25C228.787 1317.92 233.72 1314.05 240.52 1304.45C245.587 1297.12 249.853 1283.65 249.853 1274.85C249.853 1266.18 245.72 1253.38 240.387 1245.65C236.52 1239.92 227.853 1232.18 222.12 1229.25C212.387 1224.18 195.453 1222.32 186.52 1225.38Z" fill="white"/>
<path d="M221.853 1389.52C211.053 1394.05 202.52 1400.32 196.52 1408.32C188.786 1418.58 186.786 1424.98 186.653 1439.78C186.52 1451.38 186.92 1453.25 190.786 1461.38C205.986 1493.38 246.253 1500.85 272.253 1476.58C299.32 1451.25 292.653 1406.18 259.453 1390.72C248.52 1385.65 232.253 1385.12 221.853 1389.52ZM259.053 1394.32C271.32 1400.58 279.72 1410.98 283.986 1424.98C286.52 1433.25 286.253 1438.85 283.32 1448.85C278.386 1465.12 269.586 1475.65 255.32 1482.32C249.053 1485.25 245.986 1485.78 236.52 1485.78C226.92 1485.78 224.12 1485.25 217.853 1482.18C204.52 1475.65 194.12 1462.72 191.853 1449.65C191.32 1446.85 190.386 1443.78 189.72 1442.98C187.853 1440.72 191.053 1426.58 195.453 1417.38C201.32 1405.12 213.586 1394.98 226.52 1391.65C234.253 1389.65 252.786 1391.12 259.053 1394.32Z" fill="white"/>
<path d="M880.52 1907.12C880.52 1908.72 882.92 1909.12 894.52 1909.12C906.12 1909.12 908.52 1908.72 908.52 1907.12C908.52 1905.52 906.12 1905.12 894.52 1905.12C882.92 1905.12 880.52 1905.52 880.52 1907.12Z" fill="white"/>
<path d="M870.92 1930.58C867.586 1932.72 871.853 1934.32 884.52 1935.78C899.586 1937.38 917.186 1936.05 917.186 1933.25C917.186 1931.78 913.986 1931.52 901.186 1931.65C892.386 1931.78 882.386 1931.38 878.92 1930.72C875.586 1930.05 871.986 1930.05 870.92 1930.58Z" fill="white"/>
<path d="M1159.72 1890.58C1158.65 1892.32 1160.25 1893.65 1176.25 1904.72C1183.85 1909.92 1187.59 1911.92 1188.65 1910.85C1189.59 1909.92 1185.59 1906.32 1175.85 1899.38C1168.12 1893.65 1161.59 1889.12 1161.32 1889.12C1160.92 1889.12 1160.25 1889.78 1159.72 1890.58Z" fill="white"/>
<path d="M1118.52 1928.98C1117.45 1930.98 1119.59 1931.78 1130.12 1933.12C1141.99 1934.85 1222.65 1936.58 1227.72 1935.25C1229.72 1934.72 1231.19 1933.78 1230.92 1932.98C1230.65 1932.05 1219.59 1931.65 1199.19 1931.65C1181.45 1931.78 1157.72 1930.98 1144.52 1929.78C1116.65 1927.38 1119.45 1927.52 1118.52 1928.98Z" fill="white"/>
<path d="M845.853 110.85C839.053 113.783 831.32 121.25 827.986 128.05C819.586 144.85 826.653 165.65 843.853 174.85L849.186 177.783H1006.52H1163.85L1170.12 174.183C1183.32 166.317 1189.45 154.583 1188.12 140.05C1187.05 126.983 1180.79 117.917 1168.92 111.917L1163.32 109.117L1006.25 109.25C893.186 109.25 848.253 109.65 845.853 110.85ZM1165.85 115.25C1169.19 116.717 1174.12 120.45 1176.79 123.517C1190.92 139.117 1184.52 164.05 1164.12 172.85C1161.32 174.05 1123.85 174.45 1007.05 174.45H853.72L846.52 170.983C831.32 163.917 825.053 148.717 830.52 132.983C834.253 122.583 843.453 115.117 855.053 113.117C858.386 112.583 928.386 112.183 1010.52 112.317C1158.92 112.45 1159.85 112.45 1165.85 115.25Z" fill="white"/>
<path d="M1239.59 111.917C1227.59 117.783 1218.12 134.183 1219.72 146.45C1221.32 158.317 1228.92 169.117 1239.85 174.85C1246.79 178.45 1262.92 178.717 1269.45 175.25C1287.32 166.05 1294.79 145.383 1286.39 128.583C1281.99 119.783 1279.99 117.65 1271.85 112.983C1266.12 109.65 1263.85 109.117 1255.19 109.25C1247.85 109.25 1243.59 110.05 1239.59 111.917ZM1266.52 115.117C1290.65 124.85 1291.85 158.983 1268.52 170.717C1256.25 176.85 1244.79 175.383 1234.52 166.183C1226.79 159.383 1224.12 152.983 1224.79 141.917C1225.19 133.917 1225.85 131.517 1229.45 126.317C1238.12 113.917 1252.65 109.517 1266.52 115.117Z" fill="white"/>
<path d="M1751.19 176.317C1751.19 177.25 1756.39 181.384 1762.92 185.517C1769.32 189.65 1781.05 197.784 1788.92 203.65C1801.85 213.25 1805.85 215.25 1805.85 211.917C1805.85 209.517 1755.85 174.45 1752.25 174.45C1751.72 174.45 1751.19 175.25 1751.19 176.317Z" fill="white"/>
<path d="M968.52 222.45C958.92 223.784 955.186 225.384 949.186 230.584C928.253 248.984 931.986 278.584 957.186 293.384L962.52 296.45L1194.52 296.85C1322.12 297.117 1428.52 296.85 1430.92 296.45C1433.19 296.05 1435.19 295.117 1435.19 294.45C1435.19 293.65 1349.45 293.117 1202.52 293.117C972.52 293.117 969.853 293.117 962.786 290.45C947.986 284.85 939.72 272.317 940.786 256.584C941.72 242.05 950.92 230.85 965.32 226.717C969.453 225.517 1028.92 225.117 1203.05 225.117C1331.85 225.117 1435.19 224.584 1435.19 223.917C1435.19 223.384 1431.99 222.45 1428.25 221.917C1418.25 220.85 977.453 221.25 968.52 222.45Z" fill="white"/>
<path d="M1440.92 222.05C1439.99 222.45 1439.19 223.25 1439.19 223.917C1439.19 224.584 1453.85 225.117 1474.25 225.117C1509.85 225.117 1514.65 225.65 1523.99 230.717C1528.52 233.25 1535.05 240.85 1537.59 246.85C1538.52 248.85 1539.19 254.45 1539.19 259.25C1539.19 269.917 1535.59 278.05 1528.12 284.45C1519.05 292.184 1513.32 293.117 1473.19 293.117C1445.32 293.117 1437.72 293.517 1438.25 294.717C1438.65 296.05 1447.59 296.45 1477.32 296.45C1513.59 296.317 1516.25 296.184 1521.85 293.517C1545.19 282.717 1551.59 252.85 1534.39 234.45C1523.72 222.984 1522.39 222.717 1479.72 222.05C1459.32 221.784 1441.72 221.784 1440.92 222.05Z" fill="white"/>
<path d="M1815.19 223.65C1815.19 224.317 1816.25 225.65 1817.45 226.584C1828.12 235.384 1852.12 266.717 1858.12 279.784C1867.85 300.717 1871.19 314.717 1871.19 334.717C1871.19 374.317 1853.45 414.984 1816.12 461.117C1808.65 470.317 1805.19 475.517 1806.12 476.45C1806.92 477.384 1808.79 476.184 1811.45 473.117C1843.59 435.784 1862.25 402.584 1872.65 364.45C1875.19 355.384 1875.19 316.184 1872.65 307.117C1865.32 279.784 1852.39 257.517 1830.65 234.85C1820.12 223.784 1815.19 220.184 1815.19 223.65Z" fill="white"/>
<path d="M577.586 275.783C575.72 295.383 575.053 338.05 575.986 374.983C577.586 435.383 579.186 412.05 578.92 334.85C578.653 295.917 578.12 270.183 577.586 275.783Z" fill="white"/>
<path d="M1801.45 284.717C1800.92 285.117 1803.99 289.25 1808.25 293.65C1817.85 303.65 1822.39 311.25 1825.05 321.917C1831.32 346.05 1822.12 376.583 1795.05 421.783C1782.92 442.183 1782.12 443.783 1784.92 443.783C1787.19 443.783 1802.92 417.65 1813.72 396.317C1836.79 350.317 1836.39 316.05 1812.52 291.783C1804.65 283.917 1803.19 282.983 1801.45 284.717Z" fill="white"/>
<path d="M1561.59 355.383C1554.65 357.517 1554.79 357.117 1555.19 368.05C1555.45 375.383 1555.32 375.783 1550.92 378.45C1545.19 381.917 1544.12 381.783 1537.19 377.117C1533.99 374.85 1530.79 373.117 1529.99 373.117C1528.12 373.117 1517.85 382.717 1517.85 384.45C1517.85 385.117 1519.99 388.983 1522.39 392.85L1526.92 399.917L1523.99 405.117L1521.19 410.45H1512.12C1502.25 410.45 1503.05 409.917 1499.45 420.717C1498.39 424.183 1498.52 425.383 1500.39 426.983C1501.72 428.183 1503.19 429.117 1503.59 429.117C1504.12 429.117 1506.92 430.583 1509.85 432.45C1514.65 435.517 1515.19 436.45 1515.19 441.117C1515.19 446.717 1515.19 446.583 1502.52 453.917C1500.39 455.117 1499.99 456.583 1500.25 461.25C1501.05 470.85 1502.65 472.317 1512.65 471.917C1521.05 471.65 1521.19 471.783 1524.25 476.45C1525.85 478.983 1527.19 481.383 1527.19 481.65C1527.19 482.05 1525.45 485.383 1523.19 489.117C1521.05 492.85 1519.19 496.717 1519.19 497.517C1519.19 499.383 1528.65 509.117 1530.25 509.117C1530.79 509.117 1534.39 507.117 1538.12 504.583L1544.92 499.917L1549.85 502.45C1555.99 505.517 1556.79 507.65 1555.72 515.783C1554.92 521.517 1555.19 522.45 1557.99 524.317C1559.72 525.383 1563.72 526.717 1566.79 527.25L1572.25 528.05L1575.59 521.517C1579.99 513.117 1581.99 511.517 1587.85 512.05C1592.12 512.45 1593.05 513.25 1596.25 519.117C1598.25 522.717 1600.52 526.183 1601.19 526.85C1602.79 528.05 1609.99 526.983 1614.65 524.85C1617.72 523.383 1617.85 522.85 1617.05 514.983L1616.12 506.717L1621.59 503.117L1627.05 499.517L1635.32 504.45L1643.72 509.383L1649.59 503.25L1655.32 497.117L1650.52 489.65C1645.45 481.783 1645.32 479.783 1649.99 473.917C1652.39 470.85 1653.72 470.45 1661.05 470.45C1668.79 470.45 1669.59 470.183 1670.92 467.117C1671.85 465.25 1672.52 461.383 1672.52 458.717C1672.39 454.183 1671.99 453.517 1665.45 450.317C1658.52 446.717 1658.52 446.717 1658.52 440.317C1658.52 433.917 1658.65 433.917 1665.59 429.917C1673.19 425.517 1673.85 423.783 1670.92 414.317L1669.45 409.117H1659.72H1649.99L1647.72 404.183L1645.32 399.383L1649.72 391.383L1654.12 383.517L1649.05 378.317C1646.25 375.517 1643.05 373.117 1641.85 373.117C1640.79 373.117 1637.19 374.983 1633.99 377.117C1627.05 381.917 1627.05 381.783 1621.59 378.45C1617.45 375.917 1617.19 375.383 1616.52 366.317L1615.85 356.717L1609.19 354.983C1605.59 354.05 1601.99 353.25 1601.19 353.25C1600.52 353.117 1598.12 356.717 1595.85 361.117L1591.99 369.117H1585.85C1579.85 369.117 1579.72 369.117 1575.45 361.117C1572.92 356.717 1570.25 353.117 1569.45 353.25C1568.52 353.383 1565.05 354.317 1561.59 355.383ZM1602.65 399.917C1616.79 405.917 1625.72 416.717 1629.45 432.05C1636.52 462.317 1606.12 491.65 1575.85 483.65C1548.52 476.583 1534.39 447.383 1546.25 422.45C1550.25 414.05 1554.12 409.517 1562.12 404.05C1570.25 398.583 1574.52 397.383 1586.12 397.25C1593.59 397.117 1597.99 397.783 1602.65 399.917Z" fill="white"/>
<path d="M292.787 437.117C292.787 439.65 293.053 440.717 293.453 439.384C293.72 438.184 293.72 436.05 293.453 434.717C293.053 433.517 292.787 434.584 292.787 437.117Z" fill="white"/>
<path d="M295.453 447.117C295.453 449.25 295.72 450.05 296.12 448.717C296.386 447.517 296.386 445.65 296.12 444.717C295.72 443.917 295.453 444.85 295.453 447.117Z" fill="white"/>
<path d="M298.92 460.717C299.586 463.517 299.853 463.783 300.253 461.917C300.52 460.583 300.253 458.983 299.453 458.183C298.653 457.383 298.52 458.183 298.92 460.717Z" fill="white"/>
<path d="M1767.05 465.517C1755.05 482.85 1752.25 487.783 1754.79 487.783C1757.19 487.783 1775.19 462.983 1775.19 459.917C1775.19 456.45 1771.45 459.117 1767.05 465.517Z" fill="white"/>
<path d="M302.12 471.783C302.12 473.65 302.386 474.317 302.786 473.383C303.053 472.583 303.053 470.983 302.786 470.05C302.386 469.25 302.12 469.917 302.12 471.783Z" fill="white"/>
<path d="M1349.72 506.317C1338.79 511.784 1333.99 517.517 1331.45 528.05C1328.79 538.45 1332.79 551.117 1340.79 557.784C1352.65 567.784 1369.85 567.65 1381.72 557.65C1392.25 548.717 1395.19 531.517 1388.12 519.384C1379.99 505.65 1362.79 499.784 1349.72 506.317ZM1369.19 509.25C1376.25 511.25 1382.12 517.517 1385.72 527.117C1389.19 536.45 1388.79 540.717 1383.32 549.384C1377.85 557.917 1369.72 561.784 1358.92 560.717C1352.65 560.184 1349.85 559.117 1345.99 556.05C1335.05 547.25 1331.85 532.984 1338.52 521.65C1345.19 510.317 1356.52 505.784 1369.19 509.25Z" fill="white"/>
<path d="M1439.45 565.383C1439.99 566.717 1452.92 567.25 1495.99 567.783C1558.25 568.583 1555.19 568.05 1562.79 578.05L1566.52 582.983L1566.39 626.317C1566.39 675.917 1566.12 677.25 1555.99 682.983C1550.52 686.05 1550.12 686.183 1494.65 686.983C1463.85 687.383 1438.39 688.05 1437.99 688.45C1435.85 690.717 1445.05 691.117 1496.12 691.117C1551.45 691.117 1551.85 691.117 1557.45 688.05C1560.65 686.45 1564.79 682.583 1566.79 679.517L1570.52 674.05L1570.92 638.85L1571.32 603.65L1670.25 604.05L1769.19 604.45L1776.12 608.317C1784.39 612.85 1790.12 620.45 1793.45 631.117C1795.72 638.85 1795.85 659.65 1795.85 1216.45V1793.78L1792.65 1800.72C1788.65 1809.78 1778.92 1818.72 1770.39 1821.65C1765.05 1823.38 1759.59 1823.78 1743.99 1823.52L1724.39 1823.12L1716.52 1803.25C1692.12 1742.18 1673.05 1667.65 1658.39 1575.78C1655.45 1557.12 1651.19 1538.98 1647.85 1530.32C1647.32 1528.85 1648.52 1527.52 1652.39 1525.78C1663.19 1520.98 1663.05 1522.05 1656.79 1490.05C1648.52 1448.98 1647.05 1435.25 1646.92 1403.12C1646.92 1363.78 1651.85 1309.65 1657.45 1288.45C1658.92 1282.45 1659.32 1277.38 1658.52 1267.78C1657.19 1248.98 1657.19 1249.65 1661.72 1232.45C1665.32 1218.98 1665.85 1214.98 1665.19 1207.78C1664.25 1197.92 1657.59 1162.85 1653.59 1147.12C1652.12 1141.25 1650.52 1130.98 1649.85 1124.45C1648.39 1107.12 1642.65 1097.38 1631.19 1092.85C1627.05 1091.12 1626.12 1089.92 1623.19 1080.98C1619.99 1071.65 1619.59 1071.12 1615.59 1070.72C1612.39 1070.45 1610.92 1070.98 1609.32 1073.38C1607.59 1076.05 1607.59 1078.18 1609.45 1092.32C1610.92 1104.18 1611.05 1108.98 1609.99 1111.38C1606.79 1118.45 1609.72 1127.25 1618.65 1136.58C1621.32 1139.52 1624.25 1143.65 1625.19 1145.78C1629.05 1154.72 1632.39 1196.32 1630.65 1210.98C1629.72 1217.52 1628.92 1219.52 1625.19 1222.98C1622.65 1225.25 1618.25 1230.45 1615.32 1234.45C1609.72 1241.92 1573.59 1281.12 1572.79 1280.45C1572.52 1280.18 1573.85 1277.12 1575.72 1273.52C1583.05 1258.85 1582.92 1238.98 1575.19 1222.85C1570.25 1212.72 1570.25 1211.78 1574.65 1211.78C1578.25 1211.78 1578.25 1211.78 1577.45 1204.05C1575.59 1186.72 1566.92 1170.05 1556.39 1163.52C1534.79 1150.05 1478.52 1160.45 1468.92 1179.78C1465.59 1186.32 1464.79 1198.18 1467.19 1206.45C1468.25 1210.05 1468.12 1212.98 1466.39 1219.38C1463.05 1231.65 1464.25 1235.52 1474.25 1244.05C1478.79 1247.92 1486.39 1254.45 1491.05 1258.72C1495.59 1262.85 1502.12 1267.65 1505.45 1269.25C1508.79 1270.85 1513.19 1274.45 1515.32 1277.52C1519.72 1283.52 1529.05 1299.78 1528.25 1300.32C1528.12 1300.45 1525.72 1301.52 1523.19 1302.85C1520.65 1304.05 1514.92 1307.25 1510.52 1309.78C1506.12 1312.32 1498.92 1315.65 1494.39 1317.12C1479.85 1322.05 1474.65 1330.05 1471.72 1352.18C1470.52 1362.18 1467.59 1374.18 1463.05 1388.32C1449.85 1429.65 1448.39 1440.98 1454.39 1452.98C1463.59 1470.98 1475.59 1476.32 1495.19 1471.12C1507.85 1467.78 1507.45 1466.72 1506.92 1497.52C1506.52 1522.32 1506.79 1524.85 1509.19 1529.78C1511.05 1533.52 1513.45 1535.92 1517.45 1537.78C1521.32 1539.52 1522.92 1540.98 1522.52 1542.45C1520.65 1548.45 1517.59 1574.05 1516.39 1595.65C1513.32 1645.78 1520.52 1728.18 1534.65 1802.98C1536.39 1812.45 1537.85 1820.98 1537.85 1821.92C1537.85 1823.38 1528.92 1823.78 1488.25 1824.05C1445.05 1824.45 1438.52 1824.72 1438.52 1826.45C1438.52 1828.18 1445.19 1828.45 1489.59 1828.85C1535.32 1829.12 1540.52 1829.38 1540.52 1831.25C1540.52 1832.45 1542.39 1841.65 1544.52 1851.65C1547.32 1863.92 1549.32 1870.45 1551.05 1871.78C1552.39 1872.98 1553.85 1876.72 1554.39 1880.05C1555.45 1887.38 1557.19 1886.05 1531.05 1897.78C1505.72 1909.12 1500.12 1914.32 1503.32 1923.65C1505.72 1930.72 1508.39 1931.12 1545.72 1931.12C1579.19 1931.12 1579.99 1931.12 1585.32 1927.92C1591.85 1924.32 1594.12 1920.18 1593.05 1914.18C1590.25 1897.38 1587.85 1887.92 1585.72 1883.92C1582.92 1878.58 1582.39 1872.45 1584.65 1870.98C1585.72 1870.32 1585.85 1864.18 1585.19 1849.78L1584.25 1829.52L1600.65 1828.72C1609.59 1828.18 1632.39 1827.78 1651.19 1827.78H1685.32L1692.65 1833.92C1697.05 1837.65 1700.92 1842.45 1702.65 1846.18C1705.45 1852.32 1705.45 1853.25 1704.25 1885.65C1702.79 1922.18 1702.92 1923.38 1710.52 1928.05C1712.79 1929.38 1716.52 1930.45 1719.05 1930.45C1725.32 1930.45 1734.52 1925.78 1737.99 1920.85C1742.25 1914.98 1747.85 1902.85 1750.52 1893.78C1751.72 1889.38 1753.32 1884.05 1753.99 1881.92C1754.65 1879.78 1755.19 1872.32 1755.19 1865.25C1755.19 1855.38 1754.65 1851.65 1752.79 1848.85C1750.25 1844.72 1735.72 1833.12 1733.19 1833.12C1732.25 1833.12 1730.79 1832.18 1729.85 1831.12C1728.39 1829.38 1730.12 1829.12 1744.79 1829.12C1755.19 1829.12 1764.12 1828.32 1768.92 1827.12C1773.19 1826.05 1781.32 1825.12 1787.05 1825.12C1802.25 1825.12 1810.12 1822.32 1818.52 1813.92C1826.12 1806.45 1829.05 1801.12 1831.19 1791.52C1832.12 1787.25 1832.52 1602.98 1832.52 1219.52C1832.52 600.717 1832.92 636.583 1824.92 622.183C1820.39 614.183 1812.12 607.25 1804.79 605.117C1802.12 604.45 1796.12 603.783 1791.59 603.783C1787.05 603.783 1778.65 602.85 1772.92 601.783C1764.25 600.183 1746.39 599.783 1666.92 599.783H1571.19V593.917C1571.19 581.517 1564.92 571.117 1554.52 566.317C1549.59 564.05 1544.92 563.783 1494.12 563.783C1450.52 563.783 1439.05 564.183 1439.45 565.383ZM1618.52 1082.05C1621.45 1092.32 1623.59 1095.38 1629.45 1097.78C1640.25 1102.32 1644.12 1109.38 1645.85 1127.52C1646.52 1134.58 1648.65 1146.98 1650.52 1154.98C1655.72 1177.25 1660.52 1204.85 1660.52 1212.05C1660.52 1219.12 1655.45 1241.12 1653.85 1241.12C1653.32 1241.12 1652.12 1239.38 1651.19 1237.25C1649.19 1232.18 1640.92 1223.92 1636.92 1222.98C1633.99 1222.18 1633.85 1221.78 1634.79 1215.92C1636.12 1208.18 1635.59 1179.92 1633.85 1164.98C1631.99 1149.38 1629.19 1140.85 1624.25 1135.52C1614.52 1125.38 1611.85 1118.05 1615.19 1111.78C1616.12 1110.18 1615.85 1104.32 1614.39 1093.78C1613.32 1085.12 1612.65 1077.25 1613.05 1076.32C1614.52 1072.58 1616.39 1074.58 1618.52 1082.05ZM1569.72 1222.98C1578.12 1240.45 1578.65 1255.78 1571.19 1271.38C1568.52 1277.12 1566.65 1283.65 1566.12 1289.12C1565.32 1296.98 1564.79 1297.92 1560.65 1300.72C1555.05 1304.45 1547.05 1306.72 1541.45 1306.18C1537.59 1305.78 1536.65 1304.72 1531.45 1295.12C1528.39 1289.25 1523.72 1281.38 1521.32 1277.65L1516.79 1270.98L1523.05 1267.65C1537.05 1260.18 1542.65 1252.18 1543.99 1236.98C1544.79 1229.25 1545.59 1226.58 1548.39 1223.65C1551.85 1219.92 1561.19 1214.45 1563.99 1214.45C1564.92 1214.45 1567.45 1218.32 1569.72 1222.98ZM1641.99 1232.85C1653.45 1244.98 1657.05 1268.18 1651.32 1293.25C1645.85 1317.12 1641.19 1380.18 1642.25 1414.98C1643.05 1442.58 1644.52 1454.05 1652.12 1491.92C1656.12 1512.05 1656.79 1517.25 1655.45 1518.85C1649.19 1526.32 1593.19 1534.58 1545.85 1534.98C1524.39 1535.12 1520.65 1534.85 1517.59 1532.85C1511.59 1528.98 1510.79 1522.58 1511.85 1491.78C1512.65 1467.92 1513.05 1464.05 1515.32 1461.25C1522.52 1452.18 1527.05 1411.52 1521.05 1409.52C1520.12 1409.25 1519.32 1414.18 1518.79 1424.72C1517.99 1440.98 1515.32 1452.58 1511.05 1458.58C1507.59 1463.38 1491.05 1468.32 1480.52 1467.52C1470.25 1466.72 1464.65 1462.58 1459.05 1450.98C1454.65 1442.18 1454.65 1442.18 1456.25 1431.78C1457.05 1426.18 1460.12 1414.05 1463.05 1404.98C1472.12 1376.98 1475.19 1365.25 1476.52 1352.72C1477.99 1340.05 1481.05 1331.38 1485.32 1327.52C1486.79 1326.18 1493.19 1323.12 1499.59 1320.45C1505.99 1317.92 1514.52 1313.65 1518.65 1311.12C1527.05 1305.65 1529.85 1305.38 1535.19 1309.25C1540.12 1312.98 1548.39 1311.92 1560.12 1306.32C1566.79 1303.12 1568.65 1301.52 1569.85 1297.92C1570.65 1295.38 1571.05 1292.85 1570.92 1292.05C1570.65 1291.25 1575.99 1284.98 1582.52 1278.18C1597.85 1262.32 1614.79 1243.52 1620.52 1235.78C1622.92 1232.45 1625.99 1228.98 1627.05 1228.05C1630.39 1225.25 1636.65 1227.25 1641.99 1232.85ZM1644.52 1540.32C1644.52 1542.45 1641.59 1543.25 1630.92 1544.58C1619.45 1545.92 1619.85 1545.12 1621.72 1564.05C1622.65 1572.98 1623.72 1581.52 1624.12 1582.85C1624.39 1584.18 1628.92 1587.25 1633.99 1589.92L1643.32 1594.58L1649.19 1590.45C1655.72 1586.05 1657.85 1585.52 1657.85 1588.45C1657.85 1589.52 1654.65 1592.58 1650.65 1595.25L1643.45 1600.05L1631.99 1594.32C1625.72 1591.25 1620.25 1587.78 1619.85 1586.58C1619.19 1584.32 1615.19 1551.12 1615.19 1547.78C1615.19 1543.65 1617.99 1541.92 1626.79 1540.32C1639.45 1538.05 1644.52 1538.05 1644.52 1540.32ZM1589.05 1547.25C1590.79 1548.85 1591.05 1551.78 1590.39 1563.52C1589.05 1591.12 1588.65 1592.05 1576.52 1600.58C1569.72 1605.25 1566.92 1606.45 1562.65 1606.32C1555.32 1606.32 1535.19 1596.32 1532.92 1591.78C1531.85 1589.65 1531.19 1581.78 1531.19 1569.65C1531.19 1545.92 1531.32 1545.78 1547.45 1546.72C1553.59 1546.98 1563.32 1546.98 1569.19 1546.45C1586.52 1544.98 1586.92 1544.98 1589.05 1547.25ZM1612.52 1601.78C1612.52 1608.05 1611.19 1614.18 1607.85 1624.45C1604.79 1633.52 1602.52 1643.65 1601.59 1652.45C1600.12 1665.65 1600.12 1666.98 1603.05 1676.05C1620.25 1730.05 1644.79 1778.98 1670.79 1810.98C1674.25 1815.25 1677.99 1819.92 1679.05 1821.25C1680.79 1823.65 1679.45 1823.78 1632.52 1823.78H1584.12L1585.05 1800.72C1586.79 1757.12 1588.92 1728.18 1594.52 1675.78C1598.39 1639.78 1599.32 1634.18 1603.19 1623.52C1605.45 1617.52 1607.45 1608.72 1607.99 1603.92C1608.92 1593.25 1609.45 1591.38 1611.19 1592.45C1611.85 1592.85 1612.52 1597.12 1612.52 1601.78ZM1717.99 1819.78C1719.32 1820.58 1720.52 1822.18 1720.52 1823.25C1720.52 1824.32 1721.32 1826.85 1722.39 1828.98C1724.25 1832.45 1724.12 1832.72 1720.52 1834.85C1718.52 1836.05 1715.05 1839.92 1713.05 1843.38L1709.45 1849.65L1706.92 1843.92C1705.59 1840.58 1703.45 1837.92 1701.85 1837.52C1695.72 1835.92 1701.72 1822.98 1709.85 1820.18C1712.39 1819.25 1714.65 1818.58 1714.92 1818.58C1715.19 1818.45 1716.52 1819.12 1717.99 1819.78ZM1734.65 1838.98C1737.05 1840.85 1737.05 1840.98 1733.72 1842.32C1726.92 1844.85 1725.05 1848.98 1723.45 1865.65C1722.65 1874.18 1721.45 1881.92 1720.92 1882.98C1720.39 1883.92 1717.32 1887.65 1714.12 1891.25L1708.39 1897.65L1708.79 1891.12C1709.19 1884.72 1709.32 1884.45 1714.52 1882.98C1721.99 1880.98 1721.72 1877.65 1714.25 1878.18C1706.79 1878.72 1706.25 1875.25 1713.45 1873.52C1716.65 1872.85 1718.65 1871.52 1718.92 1869.92C1719.32 1867.78 1718.79 1867.65 1713.99 1868.45L1708.52 1869.38V1864.18C1708.52 1860.32 1709.99 1856.85 1714.79 1849.78C1718.12 1844.58 1721.99 1839.78 1723.05 1838.85C1725.99 1836.58 1731.45 1836.72 1734.65 1838.98ZM1738.65 1848.45C1732.79 1851.52 1731.59 1854.05 1730.65 1865.52C1729.05 1884.05 1727.59 1888.45 1720.25 1896.85C1716.52 1900.98 1712.12 1907.38 1710.39 1911.12C1707.85 1916.85 1707.32 1917.25 1707.32 1914.18C1707.19 1908.58 1709.19 1904.58 1717.19 1895.25C1721.19 1890.45 1725.19 1884.98 1725.85 1883.12C1726.52 1881.25 1727.72 1873.38 1728.52 1865.52C1729.99 1849.65 1731.72 1846.45 1738.39 1846.45H1742.52L1738.65 1848.45ZM1749.05 1853.92C1755.99 1860.72 1745.72 1904.18 1733.85 1918.58C1729.59 1923.78 1722.25 1926.58 1716.52 1925.12C1713.59 1924.32 1713.19 1923.65 1713.45 1919.38C1713.85 1913.12 1716.39 1908.18 1723.19 1900.98C1726.25 1897.78 1729.59 1893.65 1730.52 1891.78C1732.39 1888.05 1734.52 1877.65 1735.85 1864.05C1736.52 1857.78 1737.45 1855.25 1739.59 1853.78C1743.32 1851.25 1746.52 1851.25 1749.05 1853.92ZM1579.19 1879.12C1579.19 1884.32 1578.65 1885.25 1575.19 1887.12C1573.05 1888.18 1569.19 1889.12 1566.52 1889.12C1562.79 1889.12 1561.59 1888.45 1560.65 1886.05C1559.59 1883.25 1558.65 1876.72 1559.05 1874.05C1559.19 1873.52 1563.72 1873.12 1569.19 1873.12H1579.19V1879.12ZM1585.85 1899.65C1588.12 1911.52 1587.85 1911.78 1572.65 1915.38C1564.79 1917.25 1556.79 1917.78 1536.92 1917.78C1522.92 1917.78 1510.92 1917.38 1510.39 1916.85C1508.52 1914.98 1513.32 1911.25 1523.85 1906.32L1534.52 1901.25L1538.92 1904.72C1542.39 1907.25 1543.72 1907.78 1544.92 1906.45C1546.12 1905.25 1545.72 1904.32 1543.32 1902.32C1540.52 1900.05 1540.39 1899.38 1541.99 1898.32C1544.65 1896.72 1545.05 1896.72 1548.92 1899.78C1552.12 1902.32 1556.52 1903.38 1556.52 1901.52C1556.52 1900.98 1555.19 1899.25 1553.59 1897.52C1551.05 1894.72 1550.92 1894.05 1552.52 1892.98C1553.59 1892.32 1556.39 1892.18 1558.52 1892.72C1565.32 1894.32 1574.65 1893.65 1577.99 1891.25C1579.72 1890.05 1581.72 1889.25 1582.52 1889.52C1583.19 1889.78 1584.65 1894.32 1585.85 1899.65ZM1589.19 1917.12C1590.52 1919.25 1583.32 1924.98 1577.99 1926.05C1575.32 1926.72 1559.32 1927.12 1542.25 1927.12C1514.65 1927.12 1511.05 1926.85 1508.92 1924.85C1507.72 1923.52 1506.92 1922.32 1507.32 1921.92C1507.59 1921.65 1513.85 1922.05 1521.19 1922.72C1537.45 1924.45 1567.19 1922.32 1578.65 1918.58C1588.25 1915.52 1588.12 1915.52 1589.19 1917.12Z" fill="white"/>
<path d="M1554.65 1222.72C1551.72 1226.98 1552.12 1234.18 1555.59 1240.32C1558.92 1246.32 1563.45 1248.58 1565.85 1245.78C1567.19 1244.18 1566.79 1243.52 1564.12 1242.32C1560.12 1240.45 1557.85 1235.92 1557.85 1229.78C1557.85 1224.85 1558.92 1224.05 1561.59 1226.72C1562.79 1227.92 1563.59 1227.92 1564.79 1226.72C1565.99 1225.52 1565.72 1224.58 1563.85 1222.45C1560.65 1218.98 1557.19 1219.12 1554.65 1222.72Z" fill="white"/>
<path d="M1555.72 1551.38L1536.92 1551.92L1536.12 1568.58C1535.59 1579.65 1535.85 1586.45 1536.79 1588.58C1538.65 1592.58 1556.65 1601.38 1562.92 1601.38C1567.45 1601.38 1580.52 1592.72 1583.05 1588.05C1583.72 1586.85 1584.65 1577.78 1585.19 1568.05L1586.12 1550.45L1580.39 1550.72C1577.19 1550.85 1566.12 1551.25 1555.72 1551.38Z" fill="white"/>
<path d="M1291.19 650.85C1291.19 652.984 1296.52 658.984 1300.12 660.85C1302.12 662.05 1319.85 662.45 1361.59 662.45C1420.12 662.45 1420.12 662.45 1424.52 659.384C1429.45 656.05 1432.25 652.317 1430.79 650.984C1430.25 650.45 1427.99 651.784 1425.72 653.917L1421.72 657.784L1364.79 658.184C1333.45 658.45 1305.99 658.184 1303.59 657.784C1301.32 657.384 1297.59 655.25 1295.32 653.25C1293.05 651.117 1291.19 650.05 1291.19 650.85Z" fill="white"/>
<path d="M8.51953 657.65C8.51953 659.517 12.2529 670.717 15.1862 677.783C15.7195 679.25 16.9195 682.583 17.8529 685.117C18.7862 687.65 20.3862 691.65 21.3195 694.05C22.3862 696.317 23.1862 698.583 23.1862 698.983C23.1862 699.383 24.5195 702.717 25.9862 706.183C27.5862 709.65 29.7195 714.583 30.7862 717.117C34.5195 725.517 49.5862 756.183 54.9195 765.783C80.3862 812.317 114.653 845.383 153.72 861.117C167.053 866.45 177.586 868.317 191.053 867.383C202.12 866.717 203.186 866.85 206.653 869.783C210.92 873.117 234.653 892.317 237.853 894.85C238.92 895.783 251.586 905.783 265.853 917.25C280.12 928.583 295.186 940.317 299.186 943.25C303.186 946.05 308.653 950.45 311.186 952.85C313.72 955.25 320.386 960.717 325.853 964.85C335.853 972.317 337.453 973.65 344.253 979.383C346.253 981.117 348.786 982.45 349.853 982.317C351.586 982.317 351.586 982.183 349.986 981.517C348.92 981.117 346.786 979.517 345.186 977.917C339.32 972.05 325.186 960.183 316.653 953.783C304.653 944.85 284.52 927.383 284.52 925.917C284.52 925.383 287.72 920.85 291.586 915.917C295.32 911.117 299.186 906.183 300.12 905.117C302.52 902.183 310.92 891.917 316.253 885.383C318.786 882.317 321.586 879.783 322.386 879.783C323.32 879.783 327.986 883.117 332.92 887.25C337.853 891.25 341.853 894.183 341.853 893.517C341.853 892.183 318.386 869.25 300.52 853.117C293.586 846.85 281.986 836.05 274.653 828.983C267.186 821.917 259.053 814.317 256.386 812.05C251.853 808.183 251.453 807.117 250.653 798.183C248.386 774.983 238.92 756.85 217.453 735.25C199.186 716.717 185.986 706.983 164.653 696.583C152.386 690.583 128.786 681.117 126.12 681.117C125.186 681.117 123.453 680.583 122.12 679.783C119.72 678.45 101.72 673.117 90.5195 670.583C86.9195 669.65 81.7195 668.45 79.1862 667.783C76.6529 667.117 72.7862 666.183 70.5195 665.783C68.3862 665.383 64.1195 664.45 61.1862 663.917C51.0529 661.783 23.8529 657.383 16.2529 656.45C9.85286 655.783 8.51953 655.917 8.51953 657.65ZM254.92 815.917C259.053 819.117 280.653 838.717 295.186 852.583C300.653 857.783 308.386 864.983 312.253 868.45C315.986 872.05 319.186 875.517 319.186 876.317C319.186 877.117 317.186 879.917 314.786 882.45C312.386 884.983 303.986 895.117 295.986 904.717C287.986 914.45 280.92 922.45 280.12 922.45C279.053 922.45 230.52 884.183 225.32 879.25C224.52 878.45 220.92 875.383 217.186 872.45C209.986 866.717 208.52 865.117 208.52 863.117C208.52 862.317 211.453 858.45 214.92 854.317C218.386 850.183 227.453 839.25 235.186 829.917C242.92 820.717 249.72 813.117 250.253 813.117C250.92 813.117 253.053 814.317 254.92 815.917Z" fill="white"/>
<path d="M1605.19 720.317C1599.59 722.717 1594.25 729.384 1592.52 735.917C1591.59 739.384 1591.19 752.984 1591.45 772.85C1591.85 803.65 1591.99 804.584 1595.19 810.317C1597.45 814.317 1600.52 817.25 1604.39 819.384C1610.12 822.317 1611.32 822.45 1643.59 822.45C1674.92 822.45 1677.32 822.317 1682.92 819.65C1686.39 817.917 1690.12 814.584 1692.25 811.384L1695.85 806.05L1696.25 773.65C1696.79 738.584 1695.99 733.25 1690.25 726.317C1683.99 718.85 1681.45 718.45 1643.59 718.45C1617.99 718.584 1608.12 718.984 1605.19 720.317ZM1680.65 725.117C1691.05 730.45 1691.32 731.784 1690.92 771.117C1690.39 819.784 1693.05 817.117 1643.85 817.117C1605.45 817.117 1604.52 816.85 1599.32 807.784C1596.65 803.117 1596.52 800.717 1596.52 770.584C1596.52 746.184 1596.92 737.25 1598.39 733.917C1600.25 729.384 1605.85 724.584 1610.52 723.384C1611.99 723.117 1627.19 722.717 1644.25 722.584C1673.05 722.45 1675.72 722.584 1680.65 725.117Z" fill="white"/>
<path d="M1664.12 752.05C1660.25 758.183 1652.65 770.183 1647.32 778.717C1641.99 787.383 1637.05 794.45 1636.52 794.45C1635.85 794.45 1632.65 787.25 1629.19 778.45C1625.72 769.65 1622.39 762.183 1621.72 761.65C1618.25 759.65 1619.59 766.717 1625.32 781.783C1630.65 795.783 1632.25 798.717 1634.92 799.383C1637.05 799.917 1638.92 799.383 1640.52 797.65C1644.79 793.25 1675.19 743.517 1674.39 742.317C1672.79 739.65 1670.79 741.517 1664.12 752.05Z" fill="white"/>
<path d="M1605.05 870.45C1592.92 876.583 1591.19 882.717 1591.19 920.45C1591.19 951.783 1591.99 957.383 1597.45 963.783C1603.99 971.65 1605.05 971.783 1643.85 971.783C1682.65 971.783 1683.72 971.65 1690.39 963.783C1696.12 956.85 1696.79 952.183 1696.25 917.783C1695.85 881.383 1695.05 878.45 1685.45 872.05L1680.12 868.45L1645.32 868.05C1612.52 867.783 1610.25 867.917 1605.05 870.45ZM1681.05 875.117C1683.45 876.317 1686.65 879.517 1688.25 882.317C1691.05 887.25 1691.19 889.117 1691.19 920.717C1691.19 953.117 1691.05 954.183 1688.12 958.583C1682.25 967.383 1679.85 967.917 1642.52 967.517C1594.79 966.983 1596.52 968.85 1596.52 919.517C1596.52 889.517 1596.79 886.85 1599.19 882.717C1600.65 880.317 1603.72 877.25 1606.12 875.783C1610.25 873.383 1612.92 873.117 1643.59 873.117C1670.65 873.117 1677.59 873.517 1681.05 875.117Z" fill="white"/>
<path d="M1653.85 918.45C1644.65 933.117 1636.79 945.117 1636.39 945.117C1635.99 945.117 1632.65 937.65 1629.19 928.45C1625.32 918.317 1622.12 911.783 1621.05 911.783C1618.12 911.783 1618.79 915.383 1625.32 932.05C1631.45 947.65 1634.12 951.25 1638.39 949.65C1640.25 948.85 1673.59 897.117 1674.25 894.05C1674.39 893.25 1673.59 892.45 1672.52 892.183C1671.05 891.783 1665.19 900.05 1653.85 918.45Z" fill="white"/>
<path d="M1227.59 908.45C1218.79 912.183 1215.32 924.05 1220.52 932.45C1225.72 940.85 1218.65 940.45 1353.99 940.85C1451.05 941.117 1478.52 940.85 1482.65 939.517C1496.79 934.85 1497.72 915.25 1484.12 908.983C1478.79 906.583 1473.59 906.45 1355.19 906.583C1252.25 906.583 1231.19 906.85 1227.59 908.45ZM1485.99 915.65C1491.59 921.25 1490.79 927.917 1483.99 933.383C1481.32 935.517 1472.65 935.783 1356.79 935.783C1220.79 935.783 1226.25 936.05 1223.59 928.183C1222.79 926.05 1222.79 922.717 1223.45 920.183C1225.85 911.25 1217.32 911.783 1356.25 911.783H1482.12L1485.99 915.65Z" fill="white"/>
<path d="M354.92 987.783C357.32 989.917 359.853 991.783 360.653 991.783C362.52 991.783 353.853 983.783 351.986 983.783C351.32 983.783 352.653 985.517 354.92 987.783Z" fill="white"/>
<path d="M1599.72 1020.98C1592.65 1025.25 1591.19 1031.38 1591.19 1057.12C1591.19 1078.85 1591.32 1079.78 1593.85 1079.78C1596.39 1079.78 1596.52 1078.85 1596.52 1056.32C1596.52 1030.18 1597.45 1026.45 1604.92 1023.78C1610.39 1021.92 1677.45 1022.05 1683.05 1023.92C1689.72 1026.32 1690.52 1028.85 1691.19 1055.12C1691.72 1075.25 1692.12 1079.12 1693.85 1079.12C1695.59 1079.12 1695.85 1075.52 1695.85 1054.45C1695.85 1016.85 1698.25 1018.45 1643.59 1018.45C1606.92 1018.45 1603.59 1018.72 1599.72 1020.98Z" fill="white"/>
<path d="M1186.52 1358.32C1177.72 1362.05 1173.85 1374.58 1179.05 1382.85C1180.52 1385.25 1183.32 1388.05 1185.19 1388.85C1187.72 1390.05 1204.52 1390.45 1243.99 1390.45C1304.65 1390.45 1305.05 1390.45 1309.19 1382.45C1310.25 1380.32 1311.19 1376.18 1311.19 1373.12C1311.19 1368.85 1310.25 1366.72 1306.65 1362.72L1302.12 1357.78L1245.59 1357.52C1214.52 1357.38 1187.99 1357.78 1186.52 1358.32ZM1302.79 1365.38C1306.65 1369.65 1307.72 1374.05 1305.72 1378.58C1302.52 1386.32 1301.85 1386.45 1243.45 1386.45C1191.19 1386.45 1190.12 1386.45 1186.65 1383.65C1181.45 1379.52 1180.12 1375.25 1182.39 1369.92C1183.45 1367.38 1185.32 1364.72 1186.79 1363.92C1188.39 1362.98 1207.72 1362.58 1244.65 1362.45H1300.12L1302.79 1365.38Z" fill="white"/>
<path d="M423.187 1819.65C423.187 1821.65 463.453 1835.65 486.52 1841.78C490.92 1842.98 499.987 1845.38 506.653 1847.25C529.053 1853.12 569.32 1860.98 595.187 1864.32C627.587 1868.58 646.253 1869.65 685.187 1869.52C721.453 1869.52 751.587 1867.92 753.587 1865.92C753.987 1865.38 753.72 1864.45 752.92 1863.65C751.987 1862.72 744.253 1862.72 727.053 1863.92C697.32 1865.78 641.453 1864.85 613.853 1861.78C589.987 1859.12 554.52 1853.78 532.52 1849.38C512.387 1845.38 461.053 1830.32 437.987 1821.65C429.32 1818.32 423.187 1817.52 423.187 1819.65Z" fill="white"/>
<path d="M478.52 1875.78C477.586 1877.25 482.253 1879.52 490.52 1881.38C493.453 1882.05 498.253 1883.12 501.186 1883.92C512.52 1886.58 516.92 1886.98 516.253 1884.98C515.853 1883.92 509.853 1881.65 501.72 1879.52C482.653 1874.72 479.586 1874.18 478.52 1875.78Z" fill="white"/>
<path d="M825.72 1889.78C825.453 1890.05 814.786 1891.78 802.253 1893.65C724.653 1905.25 646.253 1905.12 566.653 1893.12C560.52 1892.18 556.92 1892.18 556.12 1892.98C554.52 1894.58 555.986 1895.25 564.52 1896.45C567.853 1896.85 574.786 1897.78 579.853 1898.58C585.053 1899.38 594.253 1900.45 600.52 1901.12C606.786 1901.78 619.32 1902.98 628.52 1903.92C650.386 1906.18 727.853 1906.18 749.853 1903.92C797.453 1899.12 828.52 1894.32 828.52 1891.78C828.52 1890.45 826.52 1888.98 825.72 1889.78Z" fill="white"/>
</svg>
