<svg width="91" height="79" viewBox="0 0 91 79" fill="none" xmlns="http://www.w3.org/2000/svg">
<path d="M36.988 49.4612C34.4216 49.4573 31.8552 49.4573 29.2888 49.4612C27.781 49.4651 26.6443 50.6682 26.6404 52.262C26.6365 55.0393 26.6365 57.8128 26.6404 60.5862C26.6443 62.1878 27.7771 63.3831 29.281 63.3909C30.5857 63.3948 31.8865 63.3909 33.1872 63.3909C34.5075 63.3909 35.8278 63.3948 37.152 63.3909C38.6637 63.387 39.8043 62.1956 39.8082 60.6057C39.8121 59.7033 39.8082 58.801 39.8082 57.8987L38.152 58.4534C38.152 59.2737 38.152 60.0901 38.1442 60.9026C38.1403 61.4534 37.8746 61.6409 37.2145 61.6409C34.7379 61.6448 32.2653 61.6448 29.7887 61.6448C29.6012 61.6448 29.4176 61.6487 29.2301 61.6448C28.4957 61.633 28.3004 61.4338 28.2965 60.6643C28.2926 58.3791 28.2926 56.094 28.2926 53.8127C28.2926 53.2189 28.2926 52.6291 28.2965 52.0393C28.3004 51.5119 28.5543 51.2268 29.0504 51.2268C31.4957 51.2229 33.9449 51.219 36.3902 51.2307L37.023 49.4729C37.0113 49.4612 37.0036 49.4612 36.988 49.4612Z" fill="black"/>
<path d="M29.2811 43.812C30.5858 43.8159 31.8866 43.812 33.1873 43.812C34.5076 43.812 35.8279 43.8159 37.1521 43.812C38.6638 43.8081 39.8044 42.6167 39.8083 41.0268C39.8161 38.312 39.8161 35.5932 39.8083 32.8784C39.8044 31.1792 38.5895 29.8862 36.9919 29.8823C34.4255 29.8784 31.8591 29.8784 29.2927 29.8823C27.7849 29.8862 26.6482 31.0893 26.6443 32.6831C26.6404 35.4604 26.6404 38.2339 26.6443 41.0073C26.6443 42.605 27.7772 43.8081 29.2811 43.812ZM28.3006 32.453C28.3045 31.9257 28.5584 31.6405 29.0545 31.6405C31.7889 31.6327 34.5272 31.6288 37.2615 31.6444C37.8436 31.6483 38.1326 31.9882 38.1482 32.6249C38.1678 33.3319 38.1522 34.039 38.1522 34.8554C37.8865 34.4609 37.6639 34.1288 37.2381 34.1523C36.8201 34.1718 36.5897 34.5038 36.3279 34.7773C35.1834 35.9882 34.0271 37.1875 32.8982 38.4179C32.6287 38.7069 32.4646 38.7343 32.1912 38.4374C31.7537 37.9569 31.2771 37.5077 30.8045 37.0663C30.3787 36.664 29.8983 36.6718 29.5701 37.0663C29.2537 37.4452 29.281 37.9218 29.6795 38.328C30.4334 39.0897 31.1951 39.8397 31.9647 40.5858C32.3553 40.9608 32.7811 40.9803 33.16 40.5858C34.7225 38.9491 36.2694 37.3046 37.8162 35.6561C37.9256 35.5389 37.9998 35.3827 38.1443 35.1639C38.1443 37.2811 38.156 39.3045 38.1365 41.328C38.1326 41.8788 37.867 42.0624 37.2068 42.0663C34.7302 42.0702 32.2576 42.0702 29.781 42.0702C29.5935 42.0702 29.4099 42.0741 29.2224 42.0702C28.488 42.0585 28.2927 41.8593 28.2888 41.0897C28.2849 38.8045 28.2849 36.5233 28.2849 34.2381C28.2966 33.6366 28.2967 33.0429 28.3006 32.453Z" fill="black"/>
<path d="M29.2811 24.2341C30.5858 24.2381 31.8866 24.2341 33.1873 24.2341C34.5076 24.2341 35.8279 24.2381 37.1521 24.2341C38.6638 24.2302 39.8044 23.0388 39.8083 21.4489C39.8161 18.7341 39.8161 16.0153 39.8083 13.3005C39.8044 11.6013 38.5895 10.3083 36.9919 10.3044C34.4255 10.3005 31.8591 10.3005 29.2927 10.3044C27.7849 10.3083 26.6482 11.5153 26.6443 13.1052C26.6404 15.8825 26.6404 18.656 26.6443 21.4294C26.6443 23.031 27.7772 24.2302 29.2811 24.2341ZM28.3006 12.8751C28.3045 12.3478 28.5584 12.0626 29.0545 12.0626C31.7889 12.0548 34.5272 12.0509 37.2615 12.0665C37.8436 12.0705 38.1326 12.4142 38.1482 13.047C38.1678 13.758 38.1522 14.4611 38.1522 15.2814C37.8865 14.8869 37.6639 14.5549 37.2381 14.5744C36.8201 14.5939 36.5897 14.9259 36.3279 15.2033C35.1834 16.4142 34.0271 17.6135 32.8982 18.8439C32.6287 19.1369 32.4646 19.1603 32.1912 18.8634C31.7537 18.383 31.2771 17.9377 30.8045 17.4884C30.3787 17.0861 29.8983 17.0978 29.5701 17.4923C29.2537 17.8712 29.281 18.3478 29.6795 18.754C30.4334 19.5197 31.1951 20.2657 31.9647 21.0118C32.3553 21.3868 32.7811 21.4064 33.16 21.0118C34.7225 19.3751 36.2694 17.7306 37.8162 16.0821C37.9256 15.9649 37.9998 15.8087 38.1443 15.5899C38.1443 17.7071 38.156 19.7305 38.1365 21.754C38.1326 22.3048 37.867 22.4923 37.2068 22.4923C34.7302 22.4962 32.2576 22.4962 29.781 22.4962C29.5935 22.4962 29.4099 22.5001 29.2224 22.4962C28.488 22.4806 28.2927 22.2853 28.2888 21.5119C28.2849 19.2267 28.2849 16.9416 28.2849 14.6603C28.2966 14.0587 28.2967 13.4689 28.3006 12.8751Z" fill="black"/>
<path d="M89.4141 11.0041L82.4649 4.06656L82.3711 3.98453C81.7344 3.49234 81.0234 3.24234 80.25 3.24234C79.0234 3.24234 77.8594 3.87906 76.8398 4.65644C76.6797 3.9416 76.3906 3.28144 76 2.69164C75.5547 2.01976 74.9805 1.44554 74.3086 1.00024C73.3594 0.367434 72.2227 0.000244141 71 0.000244141H23C21.7773 0.000244141 20.6406 0.367434 19.6914 1.00024C19.0195 1.44555 18.4453 2.01974 18 2.69164C17.3711 3.64086 17 4.77754 17 6.00024V7.00024H6C4.5312 7.00024 3.1875 7.53149 2.1445 8.40644C1.70309 8.77753 1.32028 9.21113 1 9.69164C0.37109 10.6409 0 11.7775 0 13.0002V73.0002C0 74.2229 0.37109 75.3596 1 76.3088C1.53516 77.1135 2.2539 77.7815 3.1016 78.2502C3.96098 78.7268 4.9493 79.0002 6 79.0002H54C55.0508 79.0002 56.0391 78.7268 56.8984 78.2502C57.7461 77.7815 58.4648 77.1135 59 76.3088C59.6328 75.3596 60 74.2229 60 73.0002V72.0002H71C72.3203 72.0002 73.5352 71.5666 74.5273 70.844C75.1015 70.4222 75.6054 69.9066 76 69.3129C76.6328 68.3636 77 67.2269 77 66.0042V29.1992L86.5039 19.7461C89.4883 17.0625 90.7695 15.25 90.7891 13.6758C90.8047 12.4727 90.0938 11.6408 89.4141 11.0041ZM17.8401 69.0471C16.1565 69.0471 14.4729 69.051 12.7893 69.051C12.6018 69.051 12.4182 69.0549 12.2307 69.0471C11.4963 69.0353 11.301 68.8361 11.2971 68.0666C11.2932 65.7814 11.2932 63.5002 11.2932 61.215C11.2932 60.6252 11.2932 60.0314 11.2971 59.4416C11.301 58.9143 11.5549 58.6291 12.051 58.6291C13.6994 58.6252 15.3479 58.6291 16.9963 58.633V64.2385C16.6291 64.6291 16.258 65.0158 15.8908 65.4104C15.6213 65.7034 15.4572 65.7268 15.1838 65.4299C14.7463 64.9495 14.2697 64.5042 13.7971 64.0588C13.3713 63.6565 12.8908 63.6682 12.5627 64.0588C12.2463 64.4377 12.2736 64.9143 12.6721 65.3205C13.426 66.0822 14.1877 66.8322 14.9573 67.5783C15.3479 67.9533 15.7737 67.9729 16.1526 67.5783C16.4455 67.2697 16.7346 66.9611 17.0237 66.6526C17.1291 67.5119 17.4143 68.3245 17.8401 69.0471ZM12.6799 45.7311C13.4338 46.4928 14.1955 47.2428 14.9651 47.9889C15.3557 48.3639 15.7815 48.3834 16.1604 47.9889C16.4416 47.6959 16.719 47.3951 17.0002 47.1021V49.4693C15.5979 49.4693 14.1916 49.4733 12.7893 49.4733C12.6018 49.4733 12.4182 49.4772 12.2307 49.4733C11.4964 49.4615 11.301 49.2623 11.2971 48.4889C11.2932 46.2077 11.2932 43.9225 11.2932 41.6373C11.2932 41.0474 11.2932 40.4537 11.2971 39.8639C11.3011 39.3365 11.555 39.0514 12.0511 39.0514C13.6995 39.0475 15.348 39.0514 16.9964 39.0553V44.6608C16.6292 45.0514 16.2581 45.4342 15.8909 45.8327C15.6213 46.1256 15.4573 46.1491 15.1838 45.8522C14.7463 45.3717 14.2698 44.9264 13.7971 44.4811C13.3714 44.0788 12.8909 44.0905 12.5627 44.4811C12.2541 44.8483 12.2775 45.3248 12.6799 45.7311ZM12.6799 26.1531C13.4338 26.9148 14.1955 27.6648 14.9651 28.4109C15.3557 28.7859 15.7815 28.8054 16.1604 28.4109C16.4416 28.1179 16.719 27.8171 17.0002 27.5241V30.0007H12.7893C12.6018 30.0007 12.4182 29.95 12.2307 29.9461C11.4964 29.9343 11.301 29.7117 11.2971 28.9383C11.2932 26.6571 11.2932 24.3563 11.2932 22.0711C11.2932 21.4812 11.2932 20.8836 11.2971 20.2938C11.3011 19.7664 11.555 19.4773 12.0511 19.4773C13.6995 19.4734 15.348 19.4734 16.9964 19.4734V25.0789C16.6292 25.4696 16.2581 25.8563 15.8909 26.2508C15.6213 26.5399 15.4573 26.5672 15.1838 26.2704C14.7463 25.7899 14.2698 25.3446 13.7971 24.8993C13.3714 24.4969 12.8909 24.5086 12.5627 24.8993C12.2541 25.2704 12.2775 25.7468 12.6799 26.1531ZM57.9999 73.0011C57.9999 75.2081 56.2069 77.0011 53.9999 77.0011H5.99989C3.79679 77.0011 1.99989 75.2081 1.99989 73.0011V13.0011C1.99989 10.798 3.79679 9.00106 5.99989 9.00106H16.9999V17.7159C15.4296 17.7159 13.8593 17.712 12.289 17.7159C10.7812 17.7198 9.64449 18.9229 9.64059 20.5167C9.63668 23.294 9.63668 26.0675 9.64059 28.8409C9.6445 30.4425 10.7773 31.8175 12.2812 31.8214C13.5859 31.8292 14.8867 32.0011 16.1874 32.0011H16.9999V37.2902C15.4296 37.2902 13.8593 37.2862 12.289 37.2902C10.7812 37.2941 9.64449 38.4972 9.64059 40.091C9.63668 42.8683 9.63668 45.6418 9.64059 48.4152C9.6445 50.0168 10.7773 51.1027 12.2812 51.1105C13.5859 51.1144 14.8867 51.0011 16.1874 51.0011H16.9999V56.8683C15.4296 56.8683 13.8593 56.8644 12.289 56.8683C10.7812 56.8722 9.64449 58.0753 9.64059 59.6691C9.63668 62.4464 9.63668 65.2199 9.64059 67.9933C9.6445 69.5949 10.7773 70.8917 12.2812 70.8995C13.5859 70.9034 14.8867 71.001 16.1874 71.001H17.9999H19.4726C20.4648 72.001 21.6796 72.001 22.9999 72.001H57.9999V73.0011ZM74.9999 66.0011C74.9999 68.2081 73.2069 70.0011 70.9999 70.0011H22.9999C20.7968 70.0011 18.9999 68.2081 18.9999 66.0011V6.00107C18.9999 3.79797 20.7968 2.00107 22.9999 2.00107H70.9999C73.2069 2.00107 74.9999 3.79797 74.9999 6.00107V6.28623C74.9335 6.34873 74.8632 6.41903 74.8007 6.48153C74.5585 6.71981 74.3476 6.92684 74.1249 7.12606L66.8085 14.4425C66.6288 14.1847 66.3437 14.0011 65.9999 14.0011H43.9999C43.4452 14.0011 42.9999 14.4464 42.9999 15.0011C42.9999 15.5557 43.4452 16.0011 43.9999 16.0011H65.2539L48.8089 32.4421C48.6292 32.1842 48.3441 32.0006 48.0003 32.0006H43.0003C42.4456 32.0006 42.0003 32.446 42.0003 33.0006C42.0003 33.5553 42.4456 34.0006 43.0003 34.0006H47.2542L44.8089 36.442C44.6292 36.1842 44.3441 36.0006 44.0003 36.0006H43.0003C42.4456 36.0006 42.0003 36.4459 42.0003 37.0006C42.0003 37.5553 42.4456 38.0006 43.0003 38.0006H43.2542L39.969 41.2858L37.0276 49.4655L36.3948 51.2233L34.6096 56.1803C34.0393 56.7858 33.4612 57.3834 32.8987 57.9967C32.6292 58.2858 32.4651 58.3131 32.1917 58.0163C31.7542 57.5358 31.2776 57.0905 30.805 56.6413C30.3792 56.2389 29.8987 56.2506 29.5706 56.6413C29.2542 57.0202 29.2815 57.4967 29.68 57.903C30.4339 58.6647 31.1956 59.4147 31.9652 60.1608C32.3558 60.5358 32.7816 60.5553 33.1605 60.1608C33.18 60.1412 33.1995 60.1178 33.2191 60.0983L38.1449 58.4538L39.8011 57.8991L52.3671 53.7116L75.0001 31.1886L74.9999 66.0011ZM41.2419 43.6531L49.9841 52.3953L41.4763 55.2312L38.324 51.7507L41.2419 43.6531ZM51.8359 51.4226L49.9609 49.5476L54.3671 45.2117C54.7616 44.8249 54.7655 44.1922 54.3788 43.7976C53.9921 43.403 53.3593 43.3991 52.9647 43.7858L48.5467 48.1335L42.2459 41.8327L69.8279 14.2467L76.2224 20.692L56.7924 40.212C56.4018 40.6027 56.4057 41.2354 56.7963 41.6261C56.9916 41.8215 57.2455 41.9152 57.5033 41.9152C57.7612 41.9152 58.019 41.8175 58.2143 41.6222L77.6403 22.1142L79.4528 23.9423L51.8359 51.4226ZM80.8669 22.5316L71.2458 12.8363L74.2536 9.82846L83.9567 19.4574L80.8669 22.5316ZM85.3825 18.055L75.6716 8.41826C75.8318 8.26982 76.0036 8.10186 76.2028 7.90655C77.2184 6.91046 78.9137 5.23854 80.2536 5.23854C80.5661 5.23854 80.8357 5.3323 81.1052 5.52761L88.0271 12.4338C88.5896 12.9651 88.7966 13.2932 88.7927 13.6447C88.7771 14.5236 87.6365 16.0003 85.3825 18.055Z" fill="black"/>
<path d="M70.582 18.668C70.1914 18.2773 69.5586 18.2773 69.1679 18.668L45.7109 42.125C45.3203 42.5156 45.3203 43.1484 45.7109 43.5391C45.9063 43.7344 46.1602 43.832 46.418 43.832C46.6758 43.832 46.9297 43.7344 47.125 43.5391L70.582 20.0821C70.9726 19.6914 70.9727 19.0587 70.582 18.668Z" fill="black"/>
<path d="M44 20H56C56.5547 20 57 19.5547 57 19C57 18.4453 56.5547 18 56 18H44C43.4453 18 43 18.4453 43 19C43 19.5547 43.4453 20 44 20Z" fill="black"/>
</svg>
