<svg width="91" height="79" viewBox="0 0 91 79" fill="none" xmlns="http://www.w3.org/2000/svg">
<path d="M36.9881 49.4609C34.4217 49.457 31.8553 49.457 29.2889 49.4609C27.7811 49.4648 26.6444 50.6679 26.6405 52.2617C26.6366 55.039 26.6366 57.8125 26.6405 60.5859C26.6444 62.1875 27.7772 63.3828 29.2811 63.3906C30.5858 63.3945 31.8866 63.3906 33.1873 63.3906C34.5076 63.3906 35.8279 63.3945 37.1521 63.3906C38.6638 63.3867 39.8044 62.1953 39.8083 60.6054C39.8122 59.7031 39.8083 58.8007 39.8083 57.8984L38.1521 58.4531C38.1521 59.2734 38.1521 60.0898 38.1443 60.9023C38.1404 61.4531 37.8748 61.6406 37.2146 61.6406C34.738 61.6445 32.2654 61.6445 29.7888 61.6445C29.6013 61.6445 29.4177 61.6484 29.2302 61.6445C28.4958 61.6328 28.3005 61.4336 28.2966 60.664C28.2927 58.3788 28.2927 56.0937 28.2927 53.8124C28.2927 53.2187 28.2927 52.6288 28.2966 52.039C28.3005 51.5117 28.5544 51.2265 29.0505 51.2265C31.4958 51.2226 33.945 51.2187 36.3903 51.2305L37.0231 49.4727C37.0114 49.4609 37.0037 49.4609 36.9881 49.4609Z" fill="white"/>
<path d="M29.2811 43.8118C30.5858 43.8157 31.8866 43.8118 33.1873 43.8118C34.5076 43.8118 35.8279 43.8157 37.1521 43.8118C38.6638 43.8079 39.8044 42.6165 39.8083 41.0266C39.8161 38.3118 39.8161 35.593 39.8083 32.8782C39.8044 31.179 38.5895 29.886 36.9919 29.8821C34.4255 29.8782 31.8591 29.8782 29.2927 29.8821C27.7849 29.886 26.6482 31.0891 26.6443 32.6829C26.6404 35.4602 26.6404 38.2337 26.6443 41.0071C26.6443 42.6048 27.7772 43.8079 29.2811 43.8118ZM28.3006 32.4528C28.3045 31.9254 28.5584 31.6403 29.0545 31.6403C31.7889 31.6325 34.5272 31.6286 37.2615 31.6442C37.8436 31.6481 38.1326 31.9879 38.1482 32.6247C38.1678 33.3317 38.1522 34.0388 38.1522 34.8552C37.8865 34.4606 37.6639 34.1286 37.2381 34.152C36.8201 34.1716 36.5897 34.5036 36.3279 34.777C35.1834 35.9879 34.0271 37.1872 32.8982 38.4176C32.6287 38.7067 32.4646 38.734 32.1912 38.4372C31.7537 37.9567 31.2771 37.5075 30.8045 37.0661C30.3787 36.6637 29.8983 36.6715 29.5701 37.0661C29.2537 37.445 29.281 37.9215 29.6795 38.3278C30.4334 39.0895 31.1951 39.8395 31.9647 40.5856C32.3553 40.9606 32.7811 40.9801 33.16 40.5856C34.7225 38.9489 36.2694 37.3044 37.8162 35.6559C37.9256 35.5387 37.9998 35.3824 38.1443 35.1637C38.1443 37.2809 38.156 39.3043 38.1365 41.3278C38.1326 41.8786 37.867 42.0622 37.2068 42.0661C34.7302 42.07 32.2576 42.07 29.781 42.07C29.5935 42.07 29.4099 42.0739 29.2224 42.07C28.488 42.0582 28.2927 41.859 28.2888 41.0895C28.2849 38.8043 28.2849 36.5231 28.2849 34.2379C28.2966 33.6363 28.2967 33.0427 28.3006 32.4528Z" fill="white"/>
<path d="M29.2811 24.2339C30.5858 24.2378 31.8866 24.2339 33.1873 24.2339C34.5076 24.2339 35.8279 24.2378 37.1521 24.2339C38.6638 24.23 39.8044 23.0386 39.8083 21.4487C39.8161 18.7339 39.8161 16.0151 39.8083 13.3003C39.8044 11.6011 38.5895 10.3081 36.9919 10.3042C34.4255 10.3003 31.8591 10.3003 29.2927 10.3042C27.7849 10.3081 26.6482 11.5151 26.6443 13.105C26.6404 15.8823 26.6404 18.6558 26.6443 21.4292C26.6443 23.0308 27.7772 24.23 29.2811 24.2339ZM28.3006 12.8749C28.3045 12.3476 28.5584 12.0624 29.0545 12.0624C31.7889 12.0546 34.5272 12.0507 37.2615 12.0663C37.8436 12.0702 38.1326 12.414 38.1482 13.0468C38.1678 13.7577 38.1522 14.4609 38.1522 15.2812C37.8865 14.8866 37.6639 14.5546 37.2381 14.5741C36.8201 14.5937 36.5897 14.9257 36.3279 15.2031C35.1834 16.414 34.0271 17.6133 32.8982 18.8437C32.6287 19.1366 32.4646 19.1601 32.1912 18.8632C31.7537 18.3827 31.2771 17.9374 30.8045 17.4882C30.3787 17.0858 29.8983 17.0976 29.5701 17.4921C29.2537 17.871 29.281 18.3476 29.6795 18.7538C30.4334 19.5194 31.1951 20.2655 31.9647 21.0116C32.3553 21.3866 32.7811 21.4061 33.16 21.0116C34.7225 19.3749 36.2694 17.7304 37.8162 16.0819C37.9256 15.9647 37.9998 15.8085 38.1443 15.5897C38.1443 17.7069 38.156 19.7303 38.1365 21.7538C38.1326 22.3046 37.867 22.4921 37.2068 22.4921C34.7302 22.496 32.2576 22.496 29.781 22.496C29.5935 22.496 29.4099 22.4999 29.2224 22.496C28.488 22.4804 28.2927 22.285 28.2888 21.5116C28.2849 19.2264 28.2849 16.9413 28.2849 14.66C28.2966 14.0584 28.2967 13.4687 28.3006 12.8749Z" fill="white"/>
<path d="M89.4141 11.0038L82.4649 4.06632L82.3711 3.98429C81.7344 3.4921 81.0234 3.2421 80.25 3.2421C79.0234 3.2421 77.8594 3.87882 76.8398 4.6562C76.6797 3.94136 76.3906 3.2812 76 2.6914C75.5547 2.01952 74.9805 1.4453 74.3086 1C73.3594 0.36719 72.2227 0 71 0H23C21.7773 0 20.6406 0.36719 19.6914 1C19.0195 1.44531 18.4453 2.0195 18 2.6914C17.3711 3.64062 17 4.7773 17 6V7H6C4.5312 7 3.1875 7.53125 2.1445 8.4062C1.70309 8.77729 1.32028 9.21089 1 9.6914C0.37109 10.6406 0 11.7773 0 13V73C0 74.2227 0.37109 75.3594 1 76.3086C1.53516 77.1133 2.2539 77.7813 3.1016 78.25C3.96098 78.7266 4.9493 79 6 79H54C55.0508 79 56.0391 78.7266 56.8984 78.25C57.7461 77.7812 58.4648 77.1133 59 76.3086C59.6328 75.3594 60 74.2227 60 73V72H71C72.3203 72 73.5352 71.5664 74.5273 70.8438C75.1015 70.4219 75.6054 69.9063 76 69.3126C76.6328 68.3634 77 67.2267 77 66.004V29.199L86.5039 19.7459C89.4883 17.0623 90.7695 15.2498 90.7891 13.6756C90.8047 12.4725 90.0938 11.6405 89.4141 11.0038ZM17.8401 69.0468C16.1565 69.0468 14.4729 69.0507 12.7893 69.0507C12.6018 69.0507 12.4182 69.0546 12.2307 69.0468C11.4963 69.0351 11.301 68.8359 11.2971 68.0663C11.2932 65.7811 11.2932 63.4999 11.2932 61.2147C11.2932 60.6249 11.2932 60.0311 11.2971 59.4413C11.301 58.914 11.5549 58.6288 12.051 58.6288C13.6994 58.6249 15.3479 58.6288 16.9963 58.6328V64.2383C16.6291 64.6289 16.258 65.0156 15.8908 65.4102C15.6213 65.7031 15.4572 65.7266 15.1838 65.4297C14.7463 64.9492 14.2697 64.5039 13.7971 64.0586C13.3713 63.6563 12.8908 63.668 12.5627 64.0586C12.2463 64.4375 12.2736 64.9141 12.6721 65.3203C13.426 66.082 14.1877 66.832 14.9573 67.5781C15.3479 67.9531 15.7737 67.9726 16.1526 67.5781C16.4455 67.2695 16.7346 66.9609 17.0237 66.6523C17.1291 67.5117 17.4143 68.3242 17.8401 69.0468ZM12.6799 45.7308C13.4338 46.4925 14.1955 47.2425 14.9651 47.9886C15.3557 48.3636 15.7815 48.3832 16.1604 47.9886C16.4416 47.6957 16.719 47.3949 17.0002 47.1019V49.4691C15.5979 49.4691 14.1916 49.473 12.7893 49.473C12.6018 49.473 12.4182 49.4769 12.2307 49.473C11.4964 49.4613 11.301 49.2621 11.2971 48.4886C11.2932 46.2074 11.2932 43.9222 11.2932 41.637C11.2932 41.0472 11.2932 40.4534 11.2971 39.8636C11.3011 39.3363 11.555 39.0511 12.0511 39.0511C13.6995 39.0472 15.348 39.0511 16.9964 39.055V44.6605C16.6292 45.0512 16.2581 45.434 15.8909 45.8324C15.6213 46.1254 15.4573 46.1488 15.1838 45.852C14.7463 45.3715 14.2698 44.9262 13.7971 44.4809C13.3714 44.0785 12.8909 44.0902 12.5627 44.4809C12.2541 44.8481 12.2775 45.3246 12.6799 45.7308ZM12.6799 26.1528C13.4338 26.9145 14.1955 27.6645 14.9651 28.4106C15.3557 28.7856 15.7815 28.8052 16.1604 28.4106C16.4416 28.1177 16.719 27.8169 17.0002 27.5239V30.0005H12.7893C12.6018 30.0005 12.4182 29.9497 12.2307 29.9458C11.4964 29.9341 11.301 29.7114 11.2971 28.938C11.2932 26.6568 11.2932 24.356 11.2932 22.0708C11.2932 21.481 11.2932 20.8833 11.2971 20.2935C11.3011 19.7662 11.555 19.4771 12.0511 19.4771C13.6995 19.4732 15.348 19.4732 16.9964 19.4732V25.0787C16.6292 25.4693 16.2581 25.856 15.8909 26.2506C15.6213 26.5397 15.4573 26.567 15.1838 26.2701C14.7463 25.7897 14.2698 25.3443 13.7971 24.899C13.3714 24.4967 12.8909 24.5084 12.5627 24.899C12.2541 25.2701 12.2775 25.7466 12.6799 26.1528ZM57.9999 73.0008C57.9999 75.2078 56.2069 77.0008 53.9999 77.0008H5.99989C3.79679 77.0008 1.99989 75.2078 1.99989 73.0008V13.0008C1.99989 10.7977 3.79679 9.00082 5.99989 9.00082H16.9999V17.7156C15.4296 17.7156 13.8593 17.7117 12.289 17.7156C10.7812 17.7195 9.64449 18.9226 9.64059 20.5164C9.63668 23.2937 9.63668 26.0672 9.64059 28.8406C9.6445 30.4422 10.7773 31.8172 12.2812 31.8211C13.5859 31.8289 14.8867 32.0008 16.1874 32.0008H16.9999V37.2899C15.4296 37.2899 13.8593 37.286 12.289 37.2899C10.7812 37.2938 9.64449 38.4969 9.64059 40.0907C9.63668 42.868 9.63668 45.6415 9.64059 48.4149C9.6445 50.0165 10.7773 51.1024 12.2812 51.1102C13.5859 51.1141 14.8867 51.0008 16.1874 51.0008H16.9999V56.868C15.4296 56.868 13.8593 56.8641 12.289 56.868C10.7812 56.8719 9.64449 58.075 9.64059 59.6688C9.63668 62.4461 9.63668 65.2196 9.64059 67.993C9.6445 69.5946 10.7773 70.8914 12.2812 70.8992C13.5859 70.9031 14.8867 71.0008 16.1874 71.0008H17.9999H19.4726C20.4648 72.0008 21.6796 72.0008 22.9999 72.0008H57.9999V73.0008ZM74.9999 66.0008C74.9999 68.2078 73.2069 70.0008 70.9999 70.0008H22.9999C20.7968 70.0008 18.9999 68.2078 18.9999 66.0008V6.00082C18.9999 3.79772 20.7968 2.00082 22.9999 2.00082H70.9999C73.2069 2.00082 74.9999 3.79772 74.9999 6.00082V6.28598C74.9335 6.34848 74.8632 6.41879 74.8007 6.48129C74.5585 6.71957 74.3476 6.9266 74.1249 7.12582L66.8085 14.4422C66.6288 14.1844 66.3437 14.0008 65.9999 14.0008H43.9999C43.4452 14.0008 42.9999 14.4461 42.9999 15.0008C42.9999 15.5555 43.4452 16.0008 43.9999 16.0008H65.2539L48.8089 32.4418C48.6292 32.184 48.3441 32.0004 48.0003 32.0004H43.0003C42.4456 32.0004 42.0003 32.4457 42.0003 33.0004C42.0003 33.5551 42.4456 34.0004 43.0003 34.0004H47.2542L44.8089 36.4418C44.6292 36.184 44.3441 36.0004 44.0003 36.0004H43.0003C42.4456 36.0004 42.0003 36.4457 42.0003 37.0004C42.0003 37.5551 42.4456 38.0004 43.0003 38.0004H43.2542L39.969 41.2856L37.0276 49.4653L36.3948 51.2231L34.6096 56.1801C34.0393 56.7856 33.4612 57.3832 32.8987 57.9965C32.6292 58.2856 32.4651 58.3129 32.1917 58.016C31.7542 57.5355 31.2776 57.0902 30.805 56.641C30.3792 56.2387 29.8987 56.2504 29.5706 56.641C29.2542 57.0199 29.2815 57.4965 29.68 57.9027C30.4339 58.6644 31.1956 59.4144 31.9652 60.1605C32.3558 60.5355 32.7816 60.555 33.1605 60.1605C33.18 60.141 33.1995 60.1176 33.2191 60.098L38.1449 58.4535L39.8011 57.8988L52.3671 53.7113L75.0001 31.1883L74.9999 66.0008ZM41.2419 43.6528L49.9841 52.395L41.4763 55.2309L38.324 51.7504L41.2419 43.6528ZM51.8359 51.4223L49.9609 49.5473L54.3671 45.2114C54.7616 44.8247 54.7655 44.1919 54.3788 43.7973C53.9921 43.4028 53.3593 43.3989 52.9647 43.7856L48.5467 48.1333L42.2459 41.8325L69.8279 14.2465L76.2224 20.6918L56.7924 40.2118C56.4018 40.6024 56.4057 41.2352 56.7963 41.6259C56.9916 41.8212 57.2455 41.915 57.5033 41.915C57.7612 41.915 58.019 41.8173 58.2143 41.622L77.6403 22.114L79.4528 23.9421L51.8359 51.4223ZM80.8669 22.5313L71.2458 12.836L74.2536 9.82822L83.9567 19.4571L80.8669 22.5313ZM85.3825 18.0547L75.6716 8.41802C75.8318 8.26958 76.0036 8.10161 76.2028 7.9063C77.2184 6.91021 78.9137 5.2383 80.2536 5.2383C80.5661 5.2383 80.8357 5.33205 81.1052 5.52736L88.0271 12.4336C88.5896 12.9648 88.7966 13.2929 88.7927 13.6445C88.7771 14.5234 87.6365 16 85.3825 18.0547Z" fill="white"/>
<path d="M70.582 18.6677C70.1914 18.2771 69.5586 18.2771 69.1679 18.6677L45.7109 42.1247C45.3203 42.5153 45.3203 43.1481 45.7109 43.5388C45.9063 43.7341 46.1602 43.8318 46.418 43.8318C46.6758 43.8318 46.9297 43.7341 47.125 43.5388L70.582 20.0818C70.9726 19.6912 70.9727 19.0584 70.582 18.6677Z" fill="white"/>
<path d="M44.0001 19.9998H56.0001C56.5548 19.9998 57.0001 19.5544 57.0001 18.9998C57.0001 18.4451 56.5548 17.9998 56.0001 17.9998H44.0001C43.4454 17.9998 43.0001 18.4451 43.0001 18.9998C43.0001 19.5544 43.4454 19.9998 44.0001 19.9998Z" fill="white"/>
</svg>
